M48
;DRILL file {KiCad no-vcs-found-0b1eb56~60~ubuntu16.04.1} date Thu Nov  2 03:21:33 2017
;FORMAT={-:-/ absolute / inch / decimal}
FMAT,2
INCH,TZ
T1C0.012
T2C0.016
T3C0.039
T4C0.047
T5C0.087
%
G90
G05
M72
T1
X3.9459Y-5.4459
X3.9459Y-5.4833
X3.9833Y-5.4459
X3.9833Y-5.4833
T2
X3.0512Y-4.6791
X3.1102Y-4.6791
X3.1102Y-4.9547
X3.1378Y-5.3898
X3.1693Y-4.6791
X3.1811Y-5.5
X3.3661Y-5.3465
X3.3917Y-4.878
X3.4016Y-5.4764
X3.4449Y-5.7323
X3.4764Y-5.7559
X3.4764Y-5.4331
X3.5138Y-5.1398
X3.5315Y-5.7559
X3.5335Y-5.4331
X3.563Y-5.7323
X3.6102Y-5.4764
X3.6417Y-5.3465
X3.7402Y-5.2874
X3.7953Y-4.6791
X3.8071Y-5.3622
X3.8071Y-5.4528
X3.8543Y-4.6791
X3.8543Y-5.563
X3.8563Y-4.9547
X3.8622Y-5.0433
X3.9134Y-4.6791
X3.9252Y-5.1417
X4.0197Y-5.1772
X4.0394Y-5.437
X4.0394Y-5.4961
X4.0394Y-5.6181
X4.0827Y-5.0433
X4.0906Y-5.7559
X4.1417Y-4.878
X4.1575Y-5.0354
X4.1614Y-5.4567
X4.2717Y-5.3425
X4.2972Y-5.5984
X4.3031Y-5.4213
X4.3071Y-5.0827
X4.4134Y-5.4921
X4.437Y-5.3504
X4.5433Y-4.9744
X4.5669Y-5.4921
X4.6634Y-5.3051
X4.6634Y-5.3051
X4.6693Y-5.4921
X4.6988Y-5.3287
X4.7283Y-5.6654
X4.8209Y-5.1378
X4.8268Y-4.9272
X4.8622Y-5.3602
T3
X3.2228Y-5.1929
X3.3228Y-5.1929
X3.4228Y-5.1929
X2.987Y-5.8555
X2.987Y-5.9555
X3.087Y-5.8555
X3.087Y-5.9555
X3.187Y-5.8555
X3.187Y-5.9555
X3.287Y-5.8555
X3.287Y-5.9555
X3.387Y-5.8555
X3.387Y-5.9555
X3.487Y-5.8555
X3.487Y-5.9555
X3.587Y-5.8555
X3.587Y-5.9555
X3.687Y-5.8555
X3.687Y-5.9555
X3.787Y-5.8555
X3.787Y-5.9555
X3.887Y-5.8555
X3.887Y-5.9555
X3.987Y-5.8555
X3.987Y-5.9555
X4.087Y-5.8555
X4.087Y-5.9555
X4.187Y-5.8555
X4.187Y-5.9555
X4.287Y-5.8555
X4.287Y-5.9555
X4.387Y-5.8555
X4.387Y-5.9555
X4.487Y-5.8555
X4.487Y-5.9555
X4.587Y-5.8555
X4.587Y-5.9555
X4.687Y-5.8555
X4.687Y-5.9555
X4.787Y-5.8555
X4.787Y-5.9555
X4.887Y-5.8555
X4.887Y-5.9555
X4.815Y-5.4709
X4.815Y-5.5709
X4.815Y-5.6709
X3.2228Y-5.0709
X3.3228Y-5.0709
X3.4228Y-5.0709
X3.0118Y-5.4331
X3.7047Y-4.6756
X3.7047Y-4.7756
X3.7047Y-4.8756
T4
X3.2283Y-4.3504
X4.6457Y-4.3504
X3.937Y-4.3504
T5
X3.0984Y-4.2205
X3.0984Y-4.4803
X3.3583Y-4.2205
X3.3583Y-4.4803
X4.5157Y-4.2205
X4.5157Y-4.4803
X4.7756Y-4.2205
X4.7756Y-4.4803
X3.8071Y-4.2205
X3.8071Y-4.4803
X4.0669Y-4.2205
X4.0669Y-4.4803
T0
M30
