%TF.GenerationSoftware,KiCad,Pcbnew,no-vcs-found-0b1eb56~60~ubuntu16.04.1*%
%TF.CreationDate,2017-11-02T03:22:39+00:00*%
%TF.ProjectId,adcdac,6164636461632E6B696361645F706362,rev?*%
%TF.SameCoordinates,Original*%
%TF.FileFunction,Copper,L1,Top,Signal*%
%TF.FilePolarity,Positive*%
%FSLAX46Y46*%
G04 Gerber Fmt 4.6, Leading zero omitted, Abs format (unit mm)*
G04 Created by KiCad (PCBNEW no-vcs-found-0b1eb56~60~ubuntu16.04.1) date Thu Nov  2 03:22:39 2017*
%MOMM*%
%LPD*%
G01*
G04 APERTURE LIST*
%TA.AperFunction,ComponentPad*%
%ADD10R,1.900000X1.900000*%
%TD*%
%TA.AperFunction,BGAPad,CuDef*%
%ADD11C,1.000000*%
%TD*%
%TA.AperFunction,ComponentPad*%
%ADD12C,1.900000*%
%TD*%
%TA.AperFunction,SMDPad,CuDef*%
%ADD13R,0.950000X1.000000*%
%TD*%
%TA.AperFunction,SMDPad,CuDef*%
%ADD14C,0.950000*%
%TD*%
%TA.AperFunction,Conductor*%
%ADD15C,0.100000*%
%TD*%
%TA.AperFunction,SMDPad,CuDef*%
%ADD16R,1.000000X0.950000*%
%TD*%
%TA.AperFunction,SMDPad,CuDef*%
%ADD17R,0.450000X1.450000*%
%TD*%
%TA.AperFunction,ViaPad*%
%ADD18C,0.650000*%
%TD*%
%TA.AperFunction,SMDPad,CuDef*%
%ADD19R,1.660000X1.725000*%
%TD*%
%TA.AperFunction,ComponentPad*%
%ADD20C,3.200000*%
%TD*%
%TA.AperFunction,ComponentPad*%
%ADD21C,2.000000*%
%TD*%
%TA.AperFunction,SMDPad,CuDef*%
%ADD22R,0.620000X0.620000*%
%TD*%
%TA.AperFunction,SMDPad,CuDef*%
%ADD23R,0.300000X1.500000*%
%TD*%
%TA.AperFunction,SMDPad,CuDef*%
%ADD24R,1.500000X0.300000*%
%TD*%
%TA.AperFunction,SMDPad,CuDef*%
%ADD25R,1.550000X0.600000*%
%TD*%
%TA.AperFunction,SMDPad,CuDef*%
%ADD26R,0.450000X1.350000*%
%TD*%
%TA.AperFunction,ViaPad*%
%ADD27C,0.800000*%
%TD*%
%TA.AperFunction,Conductor*%
%ADD28C,0.200000*%
%TD*%
%TA.AperFunction,Conductor*%
%ADD29C,0.300000*%
%TD*%
%TA.AperFunction,Conductor*%
%ADD30C,0.500000*%
%TD*%
%TA.AperFunction,Conductor*%
%ADD31C,0.250000*%
%TD*%
G04 APERTURE END LIST*
D10*
%TO.P,J6,1*%
%TO.N,GND*%
X76500000Y-138000000D03*
%TD*%
D11*
%TO.P,TP4,1*%
%TO.N,/ADC_VDD*%
X102200000Y-127500000D03*
%TD*%
%TO.P,TP3,1*%
%TO.N,/DAC_DVDD*%
X107200000Y-144000000D03*
%TD*%
%TO.P,TP2,1*%
%TO.N,5v*%
X104900000Y-145800000D03*
%TD*%
%TO.P,TP1,1*%
%TO.N,/DAC_AVDD*%
X107000000Y-127600000D03*
%TD*%
%TO.P,TP5,1*%
%TO.N,/ADC_VD*%
X98100000Y-135400000D03*
%TD*%
D12*
%TO.P,J4,3*%
%TO.N,/ADC_VDD*%
X86940000Y-128800000D03*
%TO.P,J4,2*%
%TO.N,Net-(IC9-Pad8)*%
X84400000Y-128800000D03*
D10*
%TO.P,J4,1*%
%TO.N,GND*%
X81860000Y-128800000D03*
%TD*%
%TO.P,J3,1*%
%TO.N,GND*%
X81860000Y-131900000D03*
D12*
%TO.P,J3,2*%
%TO.N,Net-(IC9-Pad9)*%
X84400000Y-131900000D03*
%TO.P,J3,3*%
%TO.N,/ADC_VDD*%
X86940000Y-131900000D03*
%TD*%
D13*
%TO.P,C28,1*%
%TO.N,Net-(C28-Pad1)*%
X120850000Y-131650000D03*
%TO.P,C28,2*%
%TO.N,GND*%
X122450000Y-131650000D03*
%TD*%
%TO.P,C8,1*%
%TO.N,Net-(C8-Pad1)*%
X105800000Y-142800000D03*
%TO.P,C8,2*%
%TO.N,/DAC_DVDD*%
X107400000Y-142800000D03*
%TD*%
D14*
%TO.P,C27,1*%
%TO.N,/ADC_VDD*%
X96034315Y-139434315D03*
D15*
%TD*%
%TO.N,/ADC_VDD*%
%TO.C,C27*%
G36*
X95344886Y-139451993D02*
X96051993Y-138744886D01*
X96723744Y-139416637D01*
X96016637Y-140123744D01*
X95344886Y-139451993D01*
X95344886Y-139451993D01*
G37*
D14*
%TO.P,C27,2*%
%TO.N,GND*%
X97165685Y-140565685D03*
D15*
%TD*%
%TO.N,GND*%
%TO.C,C27*%
G36*
X96476256Y-140583363D02*
X97183363Y-139876256D01*
X97855114Y-140548007D01*
X97148007Y-141255114D01*
X96476256Y-140583363D01*
X96476256Y-140583363D01*
G37*
D13*
%TO.P,C26,1*%
%TO.N,/ADC_VD*%
X82400000Y-136900000D03*
%TO.P,C26,2*%
%TO.N,GND*%
X80800000Y-136900000D03*
%TD*%
D16*
%TO.P,C25,2*%
%TO.N,GND*%
X93900000Y-134300000D03*
%TO.P,C25,1*%
%TO.N,/ADC_VD*%
X93900000Y-135900000D03*
%TD*%
D13*
%TO.P,C24,1*%
%TO.N,/ADC_VDD*%
X82400000Y-138600000D03*
%TO.P,C24,2*%
%TO.N,GND*%
X80800000Y-138600000D03*
%TD*%
D16*
%TO.P,C23,2*%
%TO.N,GND*%
X79000000Y-124700000D03*
%TO.P,C23,1*%
%TO.N,/ADC_VD*%
X79000000Y-123100000D03*
%TD*%
%TO.P,C18,1*%
%TO.N,/ADC_VD*%
X97900000Y-123100000D03*
%TO.P,C18,2*%
%TO.N,GND*%
X97900000Y-124700000D03*
%TD*%
D17*
%TO.P,IC7,1*%
%TO.N,/ADC_VD*%
X101675000Y-136600000D03*
%TO.P,IC7,2*%
X101025000Y-136600000D03*
%TO.P,IC7,3*%
X100375000Y-136600000D03*
%TO.P,IC7,4*%
%TO.N,GND*%
X99725000Y-136600000D03*
%TO.P,IC7,5*%
%TO.N,5v*%
X99725000Y-141000000D03*
%TO.P,IC7,6*%
%TO.N,Net-(IC7-Pad6)*%
X100375000Y-141000000D03*
%TO.P,IC7,7*%
%TO.N,5v*%
X101025000Y-141000000D03*
%TO.P,IC7,8*%
X101675000Y-141000000D03*
D18*
%TD*%
%TO.N,GND*%
%TO.C,IC7*%
X101175000Y-138325000D03*
%TO.N,GND*%
%TO.C,IC7*%
X100225000Y-138325000D03*
X101175000Y-139275000D03*
X100225000Y-139275000D03*
D19*
%TD*%
%TO.P,IC7,EP*%
%TO.N,GND*%
X100700000Y-138800000D03*
D20*
%TO.P,P2,2*%
%TO.N,GND*%
X78700000Y-107200000D03*
D21*
%TO.P,P2,1*%
%TO.N,Net-(D2-Pad1)*%
X82000000Y-110500000D03*
D20*
%TO.P,P2,2*%
%TO.N,GND*%
X85300000Y-107200000D03*
X78700000Y-113800000D03*
X85300000Y-113800000D03*
%TD*%
%TO.P,P3,2*%
%TO.N,GND*%
X121300000Y-113800000D03*
X114700000Y-113800000D03*
X121300000Y-107200000D03*
D21*
%TO.P,P3,1*%
%TO.N,Net-(D3-Pad1)*%
X118000000Y-110500000D03*
D20*
%TO.P,P3,2*%
%TO.N,GND*%
X114700000Y-107200000D03*
%TD*%
%TO.P,P1,2*%
%TO.N,GND*%
X96700000Y-107200000D03*
D21*
%TO.P,P1,1*%
%TO.N,Net-(D1-Pad1)*%
X100000000Y-110500000D03*
D20*
%TO.P,P1,2*%
%TO.N,GND*%
X103300000Y-107200000D03*
X96700000Y-113800000D03*
X103300000Y-113800000D03*
%TD*%
D22*
%TO.P,D3,1*%
%TO.N,Net-(D3-Pad1)*%
X118000000Y-116900000D03*
%TO.P,D3,2*%
%TO.N,GND*%
X117100000Y-116900000D03*
%TD*%
%TO.P,D2,2*%
%TO.N,GND*%
X81050000Y-116900000D03*
%TO.P,D2,1*%
%TO.N,Net-(D2-Pad1)*%
X81950000Y-116900000D03*
%TD*%
%TO.P,D1,1*%
%TO.N,Net-(D1-Pad1)*%
X100150000Y-116900000D03*
%TO.P,D1,2*%
%TO.N,GND*%
X99250000Y-116900000D03*
%TD*%
D13*
%TO.P,R23,2*%
%TO.N,/DAC_AVDD*%
X122450000Y-134650000D03*
%TO.P,R23,1*%
%TO.N,Net-(C28-Pad1)*%
X120850000Y-134650000D03*
%TD*%
%TO.P,R21,1*%
%TO.N,Net-(IC5-Pad18)*%
X120850000Y-136150000D03*
%TO.P,R21,2*%
%TO.N,GND*%
X122450000Y-136150000D03*
%TD*%
%TO.P,R20,2*%
%TO.N,GND*%
X112650000Y-134750000D03*
%TO.P,R20,1*%
%TO.N,Net-(C15-Pad2)*%
X114250000Y-134750000D03*
%TD*%
%TO.P,R19,1*%
%TO.N,Net-(C15-Pad1)*%
X115750000Y-134750000D03*
%TO.P,R19,2*%
%TO.N,GND*%
X117350000Y-134750000D03*
%TD*%
%TO.P,R18,2*%
%TO.N,Net-(IC3-Pad4)*%
X79550000Y-131200000D03*
%TO.P,R18,1*%
%TO.N,Net-(C12-Pad2)*%
X77950000Y-131200000D03*
%TD*%
D16*
%TO.P,R26,1*%
%TO.N,Net-(D3-Pad1)*%
X113600000Y-121300000D03*
%TO.P,R26,2*%
%TO.N,Net-(IC8-Pad2)*%
X113600000Y-122900000D03*
%TD*%
D13*
%TO.P,R16,2*%
%TO.N,Net-(IC2-Pad4)*%
X96800000Y-126200000D03*
%TO.P,R16,1*%
%TO.N,Net-(C10-Pad2)*%
X95200000Y-126200000D03*
%TD*%
%TO.P,R15,1*%
%TO.N,Net-(C10-Pad1)*%
X95200000Y-127700000D03*
%TO.P,R15,2*%
%TO.N,Net-(IC2-Pad5)*%
X96800000Y-127700000D03*
%TD*%
D16*
%TO.P,R13,2*%
%TO.N,Net-(IC3-Pad5)*%
X89500000Y-124050000D03*
%TO.P,R13,1*%
%TO.N,Net-(IC3-Pad8)*%
X89500000Y-122450000D03*
%TD*%
%TO.P,R12,1*%
%TO.N,Net-(IC2-Pad1)*%
X99400000Y-123100000D03*
%TO.P,R12,2*%
%TO.N,Net-(IC2-Pad4)*%
X99400000Y-124700000D03*
%TD*%
%TO.P,R10,2*%
%TO.N,Net-(IC3-Pad1)*%
X80500000Y-121600000D03*
%TO.P,R10,1*%
%TO.N,GND*%
X80500000Y-120000000D03*
%TD*%
%TO.P,R22,1*%
%TO.N,Net-(IC8-Pad2)*%
X114200000Y-130150000D03*
%TO.P,R22,2*%
%TO.N,Net-(C15-Pad2)*%
X114200000Y-131750000D03*
%TD*%
D13*
%TO.P,R24,2*%
%TO.N,Net-(C28-Pad1)*%
X120850000Y-133150000D03*
%TO.P,R24,1*%
%TO.N,GND*%
X122450000Y-133150000D03*
%TD*%
D16*
%TO.P,R25,1*%
%TO.N,Net-(C28-Pad1)*%
X115800000Y-130150000D03*
%TO.P,R25,2*%
%TO.N,Net-(C15-Pad1)*%
X115800000Y-131750000D03*
%TD*%
%TO.P,C1,2*%
%TO.N,GND*%
X103700000Y-129200000D03*
%TO.P,C1,1*%
%TO.N,5v*%
X103700000Y-130800000D03*
%TD*%
D13*
%TO.P,R17,1*%
%TO.N,Net-(C12-Pad1)*%
X77950000Y-132700000D03*
%TO.P,R17,2*%
%TO.N,Net-(IC3-Pad5)*%
X79550000Y-132700000D03*
%TD*%
%TO.P,R1,2*%
%TO.N,GND*%
X102500000Y-118250000D03*
%TO.P,R1,1*%
%TO.N,Net-(D1-Pad1)*%
X100900000Y-118250000D03*
%TD*%
D16*
%TO.P,R2,1*%
%TO.N,Net-(C2-Pad1)*%
X96400000Y-123100000D03*
%TO.P,R2,2*%
%TO.N,/ADC_VD*%
X96400000Y-124700000D03*
%TD*%
%TO.P,R3,2*%
%TO.N,Net-(C2-Pad1)*%
X96400000Y-121600000D03*
%TO.P,R3,1*%
%TO.N,GND*%
X96400000Y-120000000D03*
%TD*%
%TO.P,R7,1*%
%TO.N,GND*%
X77500000Y-120000000D03*
%TO.P,R7,2*%
%TO.N,Net-(C4-Pad1)*%
X77500000Y-121600000D03*
%TD*%
D13*
%TO.P,R5,1*%
%TO.N,Net-(D2-Pad1)*%
X82000000Y-118250000D03*
%TO.P,R5,2*%
%TO.N,GND*%
X83600000Y-118250000D03*
%TD*%
D16*
%TO.P,R6,1*%
%TO.N,Net-(C4-Pad1)*%
X77500000Y-123100000D03*
%TO.P,R6,2*%
%TO.N,/ADC_VD*%
X77500000Y-124700000D03*
%TD*%
D13*
%TO.P,R4,2*%
%TO.N,Net-(D1-Pad1)*%
X100900000Y-119750000D03*
%TO.P,R4,1*%
%TO.N,Net-(IC2-Pad8)*%
X102500000Y-119750000D03*
%TD*%
D16*
%TO.P,R11,1*%
%TO.N,Net-(IC2-Pad8)*%
X108400000Y-122450000D03*
%TO.P,R11,2*%
%TO.N,Net-(IC2-Pad5)*%
X108400000Y-124050000D03*
%TD*%
%TO.P,C22,2*%
%TO.N,GND*%
X122600000Y-124050000D03*
%TO.P,C22,1*%
%TO.N,/DAC_AVDD*%
X122600000Y-122450000D03*
%TD*%
%TO.P,C21,1*%
%TO.N,Net-(C21-Pad1)*%
X89250000Y-133350000D03*
%TO.P,C21,2*%
%TO.N,GND*%
X89250000Y-131750000D03*
%TD*%
%TO.P,C20,2*%
%TO.N,GND*%
X103700000Y-138100000D03*
%TO.P,C20,1*%
%TO.N,/ADC_VD*%
X103700000Y-136500000D03*
%TD*%
%TO.P,C19,2*%
%TO.N,GND*%
X98100000Y-129200000D03*
%TO.P,C19,1*%
%TO.N,/ADC_VDD*%
X98100000Y-130800000D03*
%TD*%
%TO.P,C17,2*%
%TO.N,/ADC_VDD*%
X98100000Y-132300000D03*
%TO.P,C17,1*%
%TO.N,Net-(C17-Pad1)*%
X98100000Y-133900000D03*
%TD*%
D13*
%TO.P,C16,2*%
%TO.N,GND*%
X119350000Y-136450000D03*
%TO.P,C16,1*%
%TO.N,Net-(C16-Pad1)*%
X117750000Y-136450000D03*
%TD*%
D16*
%TO.P,C14,1*%
%TO.N,5v*%
X103700000Y-141200000D03*
%TO.P,C14,2*%
%TO.N,GND*%
X103700000Y-139600000D03*
%TD*%
%TO.P,C13,1*%
%TO.N,5v*%
X103700000Y-133900000D03*
%TO.P,C13,2*%
%TO.N,GND*%
X103700000Y-132300000D03*
%TD*%
D13*
%TO.P,C12,1*%
%TO.N,Net-(C12-Pad1)*%
X77950000Y-134200000D03*
%TO.P,C12,2*%
%TO.N,Net-(C12-Pad2)*%
X79550000Y-134200000D03*
%TD*%
%TO.P,C11,2*%
%TO.N,GND*%
X109400000Y-136400000D03*
%TO.P,C11,1*%
%TO.N,/DAC_DVDD*%
X111000000Y-136400000D03*
%TD*%
D16*
%TO.P,C10,1*%
%TO.N,Net-(C10-Pad1)*%
X93700000Y-127750000D03*
%TO.P,C10,2*%
%TO.N,Net-(C10-Pad2)*%
X93700000Y-126150000D03*
%TD*%
%TO.P,C9,2*%
%TO.N,GND*%
X109150000Y-141100000D03*
%TO.P,C9,1*%
%TO.N,/DAC_DVDD*%
X109150000Y-139500000D03*
%TD*%
%TO.P,C7,2*%
%TO.N,GND*%
X103700000Y-142700000D03*
%TO.P,C7,1*%
%TO.N,5v*%
X103700000Y-144300000D03*
%TD*%
D13*
%TO.P,C6,1*%
%TO.N,/DAC_AVDD*%
X111000000Y-134800000D03*
%TO.P,C6,2*%
%TO.N,GND*%
X109400000Y-134800000D03*
%TD*%
D16*
%TO.P,C5,2*%
%TO.N,GND*%
X109400000Y-130200000D03*
%TO.P,C5,1*%
%TO.N,/DAC_AVDD*%
X109400000Y-131800000D03*
%TD*%
%TO.P,C4,1*%
%TO.N,Net-(C4-Pad1)*%
X79000000Y-121600000D03*
%TO.P,C4,2*%
%TO.N,GND*%
X79000000Y-120000000D03*
%TD*%
D13*
%TO.P,C3,2*%
%TO.N,/DAC_AVDD*%
X111000000Y-133300000D03*
%TO.P,C3,1*%
%TO.N,Net-(C3-Pad1)*%
X109400000Y-133300000D03*
%TD*%
D16*
%TO.P,C2,1*%
%TO.N,Net-(C2-Pad1)*%
X97900000Y-121600000D03*
%TO.P,C2,2*%
%TO.N,GND*%
X97900000Y-120000000D03*
%TD*%
D13*
%TO.P,R9,2*%
%TO.N,Net-(D2-Pad1)*%
X82000000Y-119750000D03*
%TO.P,R9,1*%
%TO.N,Net-(IC3-Pad8)*%
X83600000Y-119750000D03*
%TD*%
%TO.P,C15,1*%
%TO.N,Net-(C15-Pad1)*%
X115800000Y-133250000D03*
%TO.P,C15,2*%
%TO.N,Net-(C15-Pad2)*%
X114200000Y-133250000D03*
%TD*%
D16*
%TO.P,R8,2*%
%TO.N,Net-(IC2-Pad1)*%
X99400000Y-121600000D03*
%TO.P,R8,1*%
%TO.N,GND*%
X99400000Y-120000000D03*
%TD*%
%TO.P,R14,1*%
%TO.N,Net-(IC3-Pad1)*%
X80500000Y-123100000D03*
%TO.P,R14,2*%
%TO.N,Net-(IC3-Pad4)*%
X80500000Y-124700000D03*
%TD*%
D10*
%TO.P,J1,1*%
%TO.N,/GPIO0_IN0*%
X75870000Y-151270000D03*
D12*
%TO.P,J1,2*%
%TO.N,/GPIO0_00*%
X75870000Y-148730000D03*
%TO.P,J1,3*%
%TO.N,/GPIO0_IN1*%
X78410000Y-151270000D03*
%TO.P,J1,4*%
%TO.N,/GPIO0_01*%
X78410000Y-148730000D03*
%TO.P,J1,5*%
%TO.N,/GPIO0_02*%
X80950000Y-151270000D03*
%TO.P,J1,6*%
%TO.N,/GPIO0_03*%
X80950000Y-148730000D03*
%TO.P,J1,7*%
%TO.N,/GPIO0_04*%
X83490000Y-151270000D03*
%TO.P,J1,8*%
%TO.N,/GPIO0_05*%
X83490000Y-148730000D03*
%TO.P,J1,9*%
%TO.N,/GPIO0_06*%
X86030000Y-151270000D03*
%TO.P,J1,10*%
%TO.N,/GPIO0_07*%
X86030000Y-148730000D03*
%TO.P,J1,11*%
%TO.N,5v*%
X88570000Y-151270000D03*
%TO.P,J1,12*%
%TO.N,GND*%
X88570000Y-148730000D03*
%TO.P,J1,13*%
%TO.N,/GPIO0_08*%
X91110000Y-151270000D03*
%TO.P,J1,14*%
%TO.N,/GPIO0_09*%
X91110000Y-148730000D03*
%TO.P,J1,15*%
%TO.N,/GPIO0_10*%
X93650000Y-151270000D03*
%TO.P,J1,16*%
%TO.N,/GPIO0_11*%
X93650000Y-148730000D03*
%TO.P,J1,17*%
%TO.N,/GPIO0_12*%
X96190000Y-151270000D03*
%TO.P,J1,18*%
%TO.N,/GPIO0_13*%
X96190000Y-148730000D03*
%TO.P,J1,19*%
%TO.N,/GPIO0_14*%
X98730000Y-151270000D03*
%TO.P,J1,20*%
%TO.N,/GPIO0_15*%
X98730000Y-148730000D03*
%TO.P,J1,21*%
%TO.N,/GPIO0_16*%
X101270000Y-151270000D03*
%TO.P,J1,22*%
%TO.N,/GPIO0_17*%
X101270000Y-148730000D03*
%TO.P,J1,23*%
%TO.N,/GPIO0_18*%
X103810000Y-151270000D03*
%TO.P,J1,24*%
%TO.N,/GPIO0_19*%
X103810000Y-148730000D03*
%TO.P,J1,25*%
%TO.N,/GPIO0_20*%
X106350000Y-151270000D03*
%TO.P,J1,26*%
%TO.N,/GPIO0_21*%
X106350000Y-148730000D03*
%TO.P,J1,27*%
%TO.N,/GPIO0_22*%
X108890000Y-151270000D03*
%TO.P,J1,28*%
%TO.N,/GPIO0_23*%
X108890000Y-148730000D03*
%TO.P,J1,29*%
%TO.N,Net-(J1-Pad29)*%
X111430000Y-151270000D03*
%TO.P,J1,30*%
%TO.N,GND*%
X111430000Y-148730000D03*
%TO.P,J1,31*%
%TO.N,/GPIO0_24*%
X113970000Y-151270000D03*
%TO.P,J1,32*%
%TO.N,/GPIO0_25*%
X113970000Y-148730000D03*
%TO.P,J1,33*%
%TO.N,/GPIO0_26*%
X116510000Y-151270000D03*
%TO.P,J1,34*%
%TO.N,/GPIO0_27*%
X116510000Y-148730000D03*
%TO.P,J1,35*%
%TO.N,/GPIO0_28*%
X119050000Y-151270000D03*
%TO.P,J1,36*%
%TO.N,/GPIO0_29*%
X119050000Y-148730000D03*
%TO.P,J1,37*%
%TO.N,/GPIO0_30*%
X121590000Y-151270000D03*
%TO.P,J1,38*%
%TO.N,/GPIO0_31*%
X121590000Y-148730000D03*
%TO.P,J1,39*%
%TO.N,/GPIO0_32*%
X124130000Y-151270000D03*
%TO.P,J1,40*%
%TO.N,/GPIO0_33*%
X124130000Y-148730000D03*
%TD*%
D23*
%TO.P,IC9,1*%
%TO.N,GND*%
X91750000Y-135800000D03*
%TO.P,IC9,2*%
%TO.N,Net-(C10-Pad1)*%
X91250000Y-135800000D03*
%TO.P,IC9,3*%
%TO.N,Net-(C10-Pad2)*%
X90750000Y-135800000D03*
%TO.P,IC9,4*%
%TO.N,Net-(IC9-Pad4)*%
X90250000Y-135800000D03*
%TO.P,IC9,5*%
%TO.N,Net-(C21-Pad1)*%
X89750000Y-135800000D03*
%TO.P,IC9,6*%
X89250000Y-135800000D03*
%TO.P,IC9,7*%
X88750000Y-135800000D03*
%TO.P,IC9,8*%
%TO.N,Net-(IC9-Pad8)*%
X88250000Y-135800000D03*
%TO.P,IC9,9*%
%TO.N,Net-(IC9-Pad9)*%
X87750000Y-135800000D03*
%TO.P,IC9,10*%
%TO.N,Net-(C12-Pad2)*%
X87250000Y-135800000D03*
%TO.P,IC9,11*%
%TO.N,Net-(C12-Pad1)*%
X86750000Y-135800000D03*
%TO.P,IC9,12*%
%TO.N,GND*%
X86250000Y-135800000D03*
D24*
%TO.P,IC9,13*%
%TO.N,/ADC_VD*%
X84800000Y-137250000D03*
%TO.P,IC9,14*%
%TO.N,/GPIO0_00*%
X84800000Y-137750000D03*
%TO.P,IC9,15*%
%TO.N,/ADC_VDD*%
X84800000Y-138250000D03*
%TO.P,IC9,16*%
%TO.N,GND*%
X84800000Y-138750000D03*
%TO.P,IC9,17*%
%TO.N,/GPIO0_IN0*%
X84800000Y-139250000D03*
%TO.P,IC9,18*%
%TO.N,/GPIO0_01*%
X84800000Y-139750000D03*
%TO.P,IC9,19*%
%TO.N,/GPIO0_IN1*%
X84800000Y-140250000D03*
%TO.P,IC9,20*%
%TO.N,/GPIO0_03*%
X84800000Y-140750000D03*
%TO.P,IC9,21*%
%TO.N,/GPIO0_02*%
X84800000Y-141250000D03*
%TO.P,IC9,22*%
%TO.N,/GPIO0_05*%
X84800000Y-141750000D03*
%TO.P,IC9,23*%
%TO.N,/GPIO0_04*%
X84800000Y-142250000D03*
%TO.P,IC9,24*%
%TO.N,/GPIO0_07*%
X84800000Y-142750000D03*
D23*
%TO.P,IC9,25*%
%TO.N,/GPIO0_06*%
X86250000Y-144200000D03*
%TO.P,IC9,26*%
%TO.N,/GPIO0_08*%
X86750000Y-144200000D03*
%TO.P,IC9,27*%
%TO.N,GND*%
X87250000Y-144200000D03*
%TO.P,IC9,28*%
%TO.N,/ADC_VDD*%
X87750000Y-144200000D03*
%TO.P,IC9,29*%
%TO.N,GND*%
X88250000Y-144200000D03*
%TO.P,IC9,30*%
%TO.N,/ADC_VD*%
X88750000Y-144200000D03*
%TO.P,IC9,31*%
X89250000Y-144200000D03*
%TO.P,IC9,32*%
%TO.N,GND*%
X89750000Y-144200000D03*
%TO.P,IC9,33*%
%TO.N,/ADC_VDD*%
X90250000Y-144200000D03*
%TO.P,IC9,34*%
%TO.N,GND*%
X90750000Y-144200000D03*
%TO.P,IC9,35*%
%TO.N,/GPIO0_09*%
X91250000Y-144200000D03*
%TO.P,IC9,36*%
%TO.N,/GPIO0_10*%
X91750000Y-144200000D03*
D24*
%TO.P,IC9,37*%
%TO.N,/GPIO0_11*%
X93200000Y-142750000D03*
%TO.P,IC9,38*%
%TO.N,/GPIO0_12*%
X93200000Y-142250000D03*
%TO.P,IC9,39*%
%TO.N,/GPIO0_13*%
X93200000Y-141750000D03*
%TO.P,IC9,40*%
%TO.N,/GPIO0_14*%
X93200000Y-141250000D03*
%TO.P,IC9,41*%
%TO.N,/GPIO0_15*%
X93200000Y-140750000D03*
%TO.P,IC9,42*%
%TO.N,/GPIO0_16*%
X93200000Y-140250000D03*
%TO.P,IC9,43*%
%TO.N,/GPIO0_17*%
X93200000Y-139750000D03*
%TO.P,IC9,44*%
%TO.N,/GPIO0_18*%
X93200000Y-139250000D03*
%TO.P,IC9,45*%
%TO.N,GND*%
X93200000Y-138750000D03*
%TO.P,IC9,46*%
%TO.N,/ADC_VDD*%
X93200000Y-138250000D03*
%TO.P,IC9,47*%
%TO.N,/GPIO0_19*%
X93200000Y-137750000D03*
%TO.P,IC9,48*%
%TO.N,/ADC_VD*%
X93200000Y-137250000D03*
%TD*%
D17*
%TO.P,IC4,8*%
%TO.N,5v*%
X107575000Y-141000000D03*
%TO.P,IC4,7*%
X106925000Y-141000000D03*
%TO.P,IC4,6*%
X106275000Y-141000000D03*
%TO.P,IC4,5*%
%TO.N,Net-(C8-Pad1)*%
X105625000Y-141000000D03*
%TO.P,IC4,4*%
%TO.N,GND*%
X105625000Y-136600000D03*
%TO.P,IC4,3*%
%TO.N,/DAC_DVDD*%
X106275000Y-136600000D03*
%TO.P,IC4,2*%
X106925000Y-136600000D03*
%TO.P,IC4,1*%
X107575000Y-136600000D03*
%TD*%
%TO.P,IC6,8*%
%TO.N,5v*%
X101675000Y-133700000D03*
%TO.P,IC6,7*%
X101025000Y-133700000D03*
%TO.P,IC6,6*%
X100375000Y-133700000D03*
%TO.P,IC6,5*%
%TO.N,Net-(C17-Pad1)*%
X99725000Y-133700000D03*
%TO.P,IC6,4*%
%TO.N,GND*%
X99725000Y-129300000D03*
%TO.P,IC6,3*%
%TO.N,/ADC_VDD*%
X100375000Y-129300000D03*
%TO.P,IC6,2*%
X101025000Y-129300000D03*
%TO.P,IC6,1*%
X101675000Y-129300000D03*
%TD*%
%TO.P,IC1,1*%
%TO.N,/DAC_AVDD*%
X107575000Y-129300000D03*
%TO.P,IC1,2*%
X106925000Y-129300000D03*
%TO.P,IC1,3*%
X106275000Y-129300000D03*
%TO.P,IC1,4*%
%TO.N,GND*%
X105625000Y-129300000D03*
%TO.P,IC1,5*%
%TO.N,Net-(C3-Pad1)*%
X105625000Y-133700000D03*
%TO.P,IC1,6*%
%TO.N,5v*%
X106275000Y-133700000D03*
%TO.P,IC1,7*%
X106925000Y-133700000D03*
%TO.P,IC1,8*%
X107575000Y-133700000D03*
%TD*%
D12*
%TO.P,J2,3*%
%TO.N,/DAC_DVDD*%
X122300000Y-144040000D03*
%TO.P,J2,2*%
%TO.N,Net-(IC5-Pad25)*%
X122300000Y-141500000D03*
D10*
%TO.P,J2,1*%
%TO.N,GND*%
X122300000Y-138960000D03*
%TD*%
%TO.P,J5,1*%
%TO.N,GND*%
X94100000Y-118760000D03*
D12*
%TO.P,J5,2*%
%TO.N,Net-(IC9-Pad4)*%
X94100000Y-121300000D03*
%TO.P,J5,3*%
%TO.N,/ADC_VDD*%
X94100000Y-123840000D03*
%TD*%
D25*
%TO.P,IC2,1*%
%TO.N,Net-(IC2-Pad1)*%
X101200000Y-121345000D03*
%TO.P,IC2,2*%
%TO.N,Net-(C2-Pad1)*%
X101200000Y-122615000D03*
%TO.P,IC2,3*%
%TO.N,/ADC_VD*%
X101200000Y-123885000D03*
%TO.P,IC2,4*%
%TO.N,Net-(IC2-Pad4)*%
X101200000Y-125155000D03*
%TO.P,IC2,5*%
%TO.N,Net-(IC2-Pad5)*%
X106600000Y-125155000D03*
%TO.P,IC2,6*%
%TO.N,GND*%
X106600000Y-123885000D03*
%TO.P,IC2,7*%
%TO.N,Net-(IC2-Pad7)*%
X106600000Y-122615000D03*
%TO.P,IC2,8*%
%TO.N,Net-(IC2-Pad8)*%
X106600000Y-121345000D03*
%TD*%
%TO.P,IC3,8*%
%TO.N,Net-(IC3-Pad8)*%
X87700000Y-121345000D03*
%TO.P,IC3,7*%
%TO.N,Net-(IC3-Pad7)*%
X87700000Y-122615000D03*
%TO.P,IC3,6*%
%TO.N,GND*%
X87700000Y-123885000D03*
%TO.P,IC3,5*%
%TO.N,Net-(IC3-Pad5)*%
X87700000Y-125155000D03*
%TO.P,IC3,4*%
%TO.N,Net-(IC3-Pad4)*%
X82300000Y-125155000D03*
%TO.P,IC3,3*%
%TO.N,/ADC_VD*%
X82300000Y-123885000D03*
%TO.P,IC3,2*%
%TO.N,Net-(C4-Pad1)*%
X82300000Y-122615000D03*
%TO.P,IC3,1*%
%TO.N,Net-(IC3-Pad1)*%
X82300000Y-121345000D03*
%TD*%
%TO.P,IC8,1*%
%TO.N,Net-(IC8-Pad1)*%
X115400000Y-121345000D03*
%TO.P,IC8,2*%
%TO.N,Net-(IC8-Pad2)*%
X115400000Y-122615000D03*
%TO.P,IC8,3*%
%TO.N,Net-(C28-Pad1)*%
X115400000Y-123885000D03*
%TO.P,IC8,4*%
%TO.N,GND*%
X115400000Y-125155000D03*
%TO.P,IC8,5*%
%TO.N,Net-(IC8-Pad5)*%
X120800000Y-125155000D03*
%TO.P,IC8,6*%
%TO.N,Net-(D3-Pad1)*%
X120800000Y-123885000D03*
%TO.P,IC8,7*%
%TO.N,/DAC_AVDD*%
X120800000Y-122615000D03*
%TO.P,IC8,8*%
%TO.N,Net-(IC8-Pad8)*%
X120800000Y-121345000D03*
%TD*%
D26*
%TO.P,IC5,1*%
%TO.N,/GPIO0_21*%
X110775000Y-143875000D03*
%TO.P,IC5,2*%
%TO.N,/GPIO0_22*%
X111425000Y-143875000D03*
%TO.P,IC5,3*%
%TO.N,/GPIO0_23*%
X112075000Y-143875000D03*
%TO.P,IC5,4*%
%TO.N,/GPIO0_24*%
X112725000Y-143875000D03*
%TO.P,IC5,5*%
%TO.N,/GPIO0_25*%
X113375000Y-143875000D03*
%TO.P,IC5,6*%
%TO.N,/GPIO0_26*%
X114025000Y-143875000D03*
%TO.P,IC5,7*%
%TO.N,/GPIO0_27*%
X114675000Y-143875000D03*
%TO.P,IC5,8*%
%TO.N,/GPIO0_28*%
X115325000Y-143875000D03*
%TO.P,IC5,9*%
%TO.N,/GPIO0_29*%
X115975000Y-143875000D03*
%TO.P,IC5,10*%
%TO.N,/GPIO0_30*%
X116625000Y-143875000D03*
%TO.P,IC5,11*%
%TO.N,/GPIO0_31*%
X117275000Y-143875000D03*
%TO.P,IC5,12*%
%TO.N,/GPIO0_32*%
X117925000Y-143875000D03*
%TO.P,IC5,13*%
%TO.N,/GPIO0_33*%
X118575000Y-143875000D03*
%TO.P,IC5,14*%
%TO.N,GND*%
X119225000Y-143875000D03*
%TO.P,IC5,15*%
%TO.N,Net-(IC5-Pad15)*%
X119225000Y-138125000D03*
%TO.P,IC5,16*%
%TO.N,GND*%
X118575000Y-138125000D03*
%TO.P,IC5,17*%
%TO.N,Net-(C16-Pad1)*%
X117925000Y-138125000D03*
%TO.P,IC5,18*%
%TO.N,Net-(IC5-Pad18)*%
X117275000Y-138125000D03*
%TO.P,IC5,19*%
%TO.N,Net-(IC5-Pad19)*%
X116625000Y-138125000D03*
%TO.P,IC5,20*%
%TO.N,GND*%
X115975000Y-138125000D03*
%TO.P,IC5,21*%
%TO.N,Net-(C15-Pad1)*%
X115325000Y-138125000D03*
%TO.P,IC5,22*%
%TO.N,Net-(C15-Pad2)*%
X114675000Y-138125000D03*
%TO.P,IC5,23*%
%TO.N,Net-(IC5-Pad23)*%
X114025000Y-138125000D03*
%TO.P,IC5,24*%
%TO.N,/DAC_AVDD*%
X113375000Y-138125000D03*
%TO.P,IC5,25*%
%TO.N,Net-(IC5-Pad25)*%
X112725000Y-138125000D03*
%TO.P,IC5,26*%
%TO.N,GND*%
X112075000Y-138125000D03*
%TO.P,IC5,27*%
%TO.N,/DAC_DVDD*%
X111425000Y-138125000D03*
%TO.P,IC5,28*%
%TO.N,/GPIO0_20*%
X110775000Y-138125000D03*
%TD*%
D27*
%TO.N,GND*%
X109400000Y-129100000D03*
X109150000Y-142200000D03*
X115400000Y-126350000D03*
X122450000Y-130500000D03*
X122600000Y-125150000D03*
X118450000Y-134750000D03*
X118450000Y-134750000D03*
X112700000Y-135900000D03*
X119350000Y-135350000D03*
X123500000Y-136150000D03*
X103700000Y-128100000D03*
X105600000Y-127900000D03*
X102100000Y-131500000D03*
X79700000Y-136900000D03*
X89250000Y-130550000D03*
X86150000Y-123900000D03*
X80500000Y-118850000D03*
X79000000Y-118850000D03*
X77500000Y-118850000D03*
X79000000Y-125850000D03*
X97950000Y-125850000D03*
X105200000Y-123900000D03*
X99400000Y-118850000D03*
X97900000Y-118850000D03*
X96400000Y-118850000D03*
X108500000Y-135700000D03*
X105700000Y-138600000D03*
X102600000Y-142700000D03*
X102600000Y-139600000D03*
X109300000Y-137700000D03*
X102600000Y-138100000D03*
X95000000Y-134300000D03*
X97900000Y-141300000D03*
X80800000Y-139700000D03*
X90500000Y-145600000D03*
X89700000Y-146200000D03*
X88300000Y-146200000D03*
X87500000Y-145600000D03*
X98100000Y-128100000D03*
X99700000Y-130600000D03*
X85500000Y-135800000D03*
X92500000Y-135800000D03*
X91700000Y-139100000D03*
X86400000Y-139100000D03*
X112100000Y-139500000D03*
X116000000Y-139500000D03*
X118600000Y-139500000D03*
X120100000Y-143900000D03*
%TO.N,/ADC_VDD*%
X88300001Y-138000000D03*
X89750001Y-138000000D03*
X96700000Y-136200000D03*
X96700000Y-138500000D03*
%TO.N,5v*%
X103900000Y-146200000D03*
%TD*%
D28*
%TO.N,/GPIO0_32*%
X118800000Y-146100000D02*
X117925000Y-145225000D01*
X117925000Y-145225000D02*
X117925000Y-143875000D01*
X120810002Y-146100000D02*
X118800000Y-146100000D01*
X124130000Y-151270000D02*
X122840001Y-149980001D01*
X122840001Y-149980001D02*
X122840001Y-148129999D01*
X122840001Y-148129999D02*
X120810002Y-146100000D01*
%TO.N,/GPIO0_31*%
X117275000Y-143875000D02*
X117275000Y-145375000D01*
X117275000Y-145375000D02*
X118600000Y-146700000D01*
X118600000Y-146700000D02*
X119800000Y-146700000D01*
X119800000Y-146700000D02*
X121590000Y-148490000D01*
X121590000Y-148490000D02*
X121590000Y-148730000D01*
%TO.N,/GPIO0_30*%
X119600000Y-147200000D02*
X120339999Y-147939999D01*
X120339999Y-147939999D02*
X120339999Y-150019999D01*
X120339999Y-150019999D02*
X120640001Y-150320001D01*
X120640001Y-150320001D02*
X121590000Y-151270000D01*
X118400000Y-147200000D02*
X119600000Y-147200000D01*
X116625000Y-145425000D02*
X118400000Y-147200000D01*
X116625000Y-143875000D02*
X116625000Y-145425000D01*
%TO.N,/GPIO0_29*%
X115975000Y-143875000D02*
X115975000Y-145655000D01*
X115975000Y-145655000D02*
X119050000Y-148730000D01*
D29*
X119050000Y-148450000D02*
X119050000Y-148730000D01*
D28*
%TO.N,/GPIO0_28*%
X117760001Y-148060001D02*
X115325000Y-145625000D01*
X115325000Y-145625000D02*
X115325000Y-143875000D01*
X119050000Y-151270000D02*
X117760001Y-149980001D01*
X117760001Y-149980001D02*
X117760001Y-148060001D01*
%TO.N,/GPIO0_27*%
X114675000Y-143875000D02*
X114675000Y-146375000D01*
X114675000Y-146375000D02*
X116510000Y-148210000D01*
X116510000Y-148210000D02*
X116510000Y-148730000D01*
%TO.N,/GPIO0_26*%
X116510000Y-151270000D02*
X115220001Y-149980001D01*
X114025000Y-146625000D02*
X114025000Y-143875000D01*
X115220001Y-149980001D02*
X115220001Y-147820001D01*
X115220001Y-147820001D02*
X114025000Y-146625000D01*
%TO.N,/GPIO0_25*%
X113375000Y-143875000D02*
X113375000Y-148135000D01*
D29*
X113375000Y-148135000D02*
X113970000Y-148730000D01*
D28*
%TO.N,/GPIO0_24*%
X113970000Y-151270000D02*
X112719999Y-150019999D01*
X112719999Y-150019999D02*
X112719999Y-144755001D01*
X112719999Y-144755001D02*
X112725000Y-144750000D01*
X112725000Y-144750000D02*
X112725000Y-143875000D01*
%TO.N,/GPIO0_23*%
X108890000Y-148730000D02*
X112075000Y-145545000D01*
X112075000Y-145545000D02*
X112075000Y-143875000D01*
%TO.N,/GPIO0_22*%
X108890000Y-151270000D02*
X107639999Y-150019999D01*
X107639999Y-150019999D02*
X107639999Y-148129999D01*
X107639999Y-148129999D02*
X108469998Y-147300000D01*
X111425000Y-144875000D02*
X111425000Y-143875000D01*
X108469998Y-147300000D02*
X109000000Y-147300000D01*
X109000000Y-147300000D02*
X111425000Y-144875000D01*
%TO.N,/GPIO0_21*%
X106350000Y-148730000D02*
X110775000Y-144305000D01*
D29*
X110775000Y-144305000D02*
X110775000Y-143875000D01*
D28*
%TO.N,/GPIO0_20*%
X110775000Y-141725000D02*
X110775000Y-138125000D01*
X105099999Y-150019999D02*
X105099999Y-147400001D01*
X105099999Y-147400001D02*
X110775000Y-141725000D01*
X106350000Y-151270000D02*
X105099999Y-150019999D01*
D29*
%TO.N,GND*%
X109400000Y-130200000D02*
X109400000Y-129100000D01*
X109150000Y-141100000D02*
X109150000Y-142200000D01*
X122450000Y-133150000D02*
X122450000Y-131650000D01*
X115400000Y-125155000D02*
X115400000Y-126350000D01*
X122450000Y-131650000D02*
X122450000Y-130500000D01*
X122600000Y-124050000D02*
X122600000Y-125150000D01*
D30*
X117100000Y-116900000D02*
X117100000Y-116200000D01*
X117100000Y-116200000D02*
X114700000Y-113800000D01*
D29*
X117350000Y-134750000D02*
X118450000Y-134750000D01*
X112650000Y-134750000D02*
X112650000Y-135850000D01*
X112650000Y-135850000D02*
X112700000Y-135900000D01*
X119350000Y-136450000D02*
X119350000Y-135350000D01*
X118575000Y-138125000D02*
X118575000Y-137225000D01*
X118575000Y-137225000D02*
X119350000Y-136450000D01*
X122450000Y-136150000D02*
X123500000Y-136150000D01*
X103700000Y-129200000D02*
X103700000Y-128100000D01*
X105625000Y-129300000D02*
X105625000Y-127925000D01*
X105625000Y-127925000D02*
X105600000Y-127900000D01*
X102900000Y-132300000D02*
X103700000Y-132300000D01*
X102900000Y-132300000D02*
X102100000Y-131500000D01*
X80800000Y-136900000D02*
X79700000Y-136900000D01*
D30*
X83600000Y-118250000D02*
X83600000Y-115500000D01*
D29*
X89250000Y-131750000D02*
X89250000Y-130550000D01*
D30*
X87700000Y-123885000D02*
X86165000Y-123885000D01*
X86165000Y-123885000D02*
X86150000Y-123900000D01*
X80500000Y-120000000D02*
X80500000Y-118850000D01*
X79000000Y-120000000D02*
X79000000Y-118850000D01*
X77500000Y-120000000D02*
X77500000Y-118850000D01*
X79000000Y-124700000D02*
X79000000Y-125850000D01*
X83600000Y-115500000D02*
X85300000Y-113800000D01*
X81050000Y-116900000D02*
X81050000Y-116150000D01*
X81050000Y-116150000D02*
X78700000Y-113800000D01*
X102500000Y-118250000D02*
X102500000Y-114600000D01*
X102500000Y-114600000D02*
X103300000Y-113800000D01*
X99250000Y-116950000D02*
X99250000Y-116350000D01*
X99250000Y-116350000D02*
X96700000Y-113800000D01*
X97900000Y-124700000D02*
X97900000Y-125800000D01*
X97900000Y-125800000D02*
X97950000Y-125850000D01*
X106600000Y-123885000D02*
X105215000Y-123885000D01*
X105215000Y-123885000D02*
X105200000Y-123900000D01*
X99400000Y-120000000D02*
X99400000Y-118850000D01*
X97900000Y-120000000D02*
X97900000Y-118850000D01*
X96400000Y-120000000D02*
X96400000Y-118850000D01*
D29*
X109400000Y-134800000D02*
X108500000Y-135700000D01*
X105625000Y-136600000D02*
X105625000Y-138525000D01*
X105625000Y-138525000D02*
X105700000Y-138600000D01*
X103700000Y-142700000D02*
X102600000Y-142700000D01*
X103700000Y-139600000D02*
X102600000Y-139600000D01*
X109400000Y-136400000D02*
X109400000Y-137600000D01*
X109400000Y-137600000D02*
X109300000Y-137700000D01*
X103700000Y-138100000D02*
X102600000Y-138100000D01*
X93900000Y-134300000D02*
X95000000Y-134300000D01*
X97165685Y-140565685D02*
X97900000Y-141300000D01*
X99725000Y-137825000D02*
X99725000Y-136600000D01*
X80800000Y-138600000D02*
X80800000Y-139700000D01*
D28*
X90750000Y-144200000D02*
X90750000Y-145350000D01*
X90750000Y-145350000D02*
X90500000Y-145600000D01*
X89750000Y-144200000D02*
X89750000Y-146150000D01*
X89750000Y-146150000D02*
X89700000Y-146200000D01*
X88250000Y-144200000D02*
X88250000Y-146150000D01*
X88250000Y-146150000D02*
X88300000Y-146200000D01*
X87250000Y-144200000D02*
X87250000Y-145350000D01*
X87250000Y-145350000D02*
X87500000Y-145600000D01*
D29*
X98100000Y-129200000D02*
X98100000Y-128100000D01*
X99725000Y-129300000D02*
X99725000Y-130575000D01*
X99725000Y-130575000D02*
X99700000Y-130600000D01*
X99725000Y-137825000D02*
X100225000Y-138325000D01*
X86250000Y-135800000D02*
X85500000Y-135800000D01*
X91750000Y-135800000D02*
X92500000Y-135800000D01*
X93200000Y-138750000D02*
X92050000Y-138750000D01*
X92050000Y-138750000D02*
X91700000Y-139100000D01*
X84800000Y-138750000D02*
X86050000Y-138750000D01*
X86050000Y-138750000D02*
X86400000Y-139100000D01*
X112075000Y-138125000D02*
X112075000Y-139475000D01*
X112075000Y-139475000D02*
X112100000Y-139500000D01*
X115975000Y-138125000D02*
X115975000Y-139475000D01*
X115975000Y-139475000D02*
X116000000Y-139500000D01*
X118575000Y-138125000D02*
X118575000Y-139475000D01*
X118575000Y-139475000D02*
X118600000Y-139500000D01*
X119225000Y-143875000D02*
X120075000Y-143875000D01*
X120075000Y-143875000D02*
X120100000Y-143900000D01*
%TO.N,Net-(C16-Pad1)*%
X117925000Y-138125000D02*
X117925000Y-136625000D01*
X117925000Y-136625000D02*
X117750000Y-136450000D01*
D28*
%TO.N,Net-(IC5-Pad18)*%
X120150000Y-139600000D02*
X120150000Y-136875000D01*
X120150000Y-136875000D02*
X120850000Y-136175000D01*
X120850000Y-136175000D02*
X120850000Y-136150000D01*
X119200000Y-140550000D02*
X120150000Y-139600000D01*
X117950000Y-140550000D02*
X119200000Y-140550000D01*
X117275000Y-139875000D02*
X117950000Y-140550000D01*
X117275000Y-138125000D02*
X117275000Y-139875000D01*
D29*
%TO.N,Net-(C15-Pad1)*%
X115800000Y-133250000D02*
X115800000Y-131750000D01*
X115750000Y-133200000D02*
X115800000Y-133250000D01*
X115750000Y-134750000D02*
X115750000Y-133300000D01*
X115750000Y-133300000D02*
X115800000Y-133250000D01*
X115325000Y-138125000D02*
X115325000Y-135175000D01*
X115325000Y-135175000D02*
X115750000Y-134750000D01*
%TO.N,Net-(C15-Pad2)*%
X114200000Y-133250000D02*
X114200000Y-131750000D01*
X114250000Y-133200000D02*
X114200000Y-133250000D01*
X114250000Y-134750000D02*
X114250000Y-133300000D01*
X114250000Y-133300000D02*
X114200000Y-133250000D01*
X114675000Y-138125000D02*
X114675000Y-135175000D01*
X114675000Y-135175000D02*
X114250000Y-134750000D01*
%TO.N,/DAC_AVDD*%
X106925000Y-129300000D02*
X106925000Y-127675000D01*
X106925000Y-127675000D02*
X107000000Y-127600000D01*
X109400000Y-131800000D02*
X109375000Y-131800000D01*
X109375000Y-131800000D02*
X108375000Y-130800000D01*
X108375000Y-130800000D02*
X107600000Y-130800000D01*
X111000000Y-132575000D02*
X110225000Y-131800000D01*
X110225000Y-131800000D02*
X109400000Y-131800000D01*
X120850000Y-139900000D02*
X120850000Y-137650000D01*
D28*
X121649999Y-135475001D02*
X121649999Y-136850001D01*
X121649999Y-136850001D02*
X120850000Y-137650000D01*
D29*
X113375000Y-138125000D02*
X113375000Y-140125000D01*
X119550000Y-141200000D02*
X120850000Y-139900000D01*
X113375000Y-140125000D02*
X114450000Y-141200000D01*
X114450000Y-141200000D02*
X119550000Y-141200000D01*
D28*
X121649999Y-135475001D02*
X122450000Y-134675000D01*
X122450000Y-134675000D02*
X122450000Y-134650000D01*
D29*
X122450000Y-134650000D02*
X123225000Y-134650000D01*
X123650000Y-122700000D02*
X123400000Y-122450000D01*
X123225000Y-134650000D02*
X123650000Y-134225000D01*
X123650000Y-134225000D02*
X123650000Y-122700000D01*
X123400000Y-122450000D02*
X122600000Y-122450000D01*
X120800000Y-122615000D02*
X122435000Y-122615000D01*
X122435000Y-122615000D02*
X122600000Y-122450000D01*
X111900000Y-136500000D02*
X111900000Y-135725000D01*
X111900000Y-135725000D02*
X111000000Y-134825000D01*
X111000000Y-134825000D02*
X111000000Y-134800000D01*
X112300000Y-136900000D02*
X111900000Y-136500000D01*
X113030002Y-136900000D02*
X112300000Y-136900000D01*
X113375000Y-138125000D02*
X113375000Y-137244998D01*
X113375000Y-137244998D02*
X113030002Y-136900000D01*
X111000000Y-132575000D02*
X111000000Y-133300000D01*
X111000000Y-134800000D02*
X111000000Y-133300000D01*
X106750000Y-130800000D02*
X107600000Y-130800000D01*
X107575000Y-129300000D02*
X107575000Y-130775000D01*
X107575000Y-130775000D02*
X107600000Y-130800000D01*
X106550000Y-130600000D02*
X106750000Y-130800000D01*
X106275000Y-130325000D02*
X106550000Y-130600000D01*
X106925000Y-129300000D02*
X106925000Y-130325000D01*
X106925000Y-130325000D02*
X106650000Y-130600000D01*
X106650000Y-130600000D02*
X106550000Y-130600000D01*
X106275000Y-129300000D02*
X106275000Y-130325000D01*
D28*
%TO.N,Net-(IC5-Pad25)*%
X112725000Y-138125000D02*
X112725000Y-139000000D01*
X112725000Y-139000000D02*
X112800001Y-139075001D01*
X112800001Y-139075001D02*
X112800001Y-140200001D01*
X112800001Y-140200001D02*
X114300000Y-141700000D01*
X114300000Y-141700000D02*
X122100000Y-141700000D01*
X122100000Y-141700000D02*
X122300000Y-141500000D01*
D29*
%TO.N,/DAC_DVDD*%
X107400000Y-142800000D02*
X107400000Y-143800000D01*
X107400000Y-143800000D02*
X107200000Y-144000000D01*
X109100000Y-138600000D02*
X109150000Y-138650000D01*
X109150000Y-138650000D02*
X109150000Y-139500000D01*
X108200000Y-141975000D02*
X108200000Y-140425000D01*
X108200000Y-140425000D02*
X109125000Y-139500000D01*
X109125000Y-139500000D02*
X109150000Y-139500000D01*
X108200000Y-141975000D02*
X107400000Y-142775000D01*
D28*
X120150000Y-142590001D02*
X113190001Y-142590001D01*
X120850001Y-142590001D02*
X120150000Y-142590001D01*
X122300000Y-144040000D02*
X120850001Y-142590001D01*
X111200000Y-139200000D02*
X111225000Y-139200000D01*
X111225000Y-139200000D02*
X111425000Y-139000000D01*
X111425000Y-139000000D02*
X111425000Y-138125000D01*
X111200000Y-140600000D02*
X111200000Y-139200000D01*
X113190001Y-142590001D02*
X111200000Y-140600000D01*
D29*
X107400000Y-142775000D02*
X107400000Y-142800000D01*
X109100000Y-139500000D02*
X109075000Y-139500000D01*
X107600000Y-138600000D02*
X109100000Y-138600000D01*
X109100000Y-138600000D02*
X109600000Y-138600000D01*
X106925000Y-136600000D02*
X106925000Y-138582120D01*
X106925000Y-138582120D02*
X106907120Y-138600000D01*
X106907120Y-138600000D02*
X107600000Y-138600000D01*
X107575000Y-136600000D02*
X107575000Y-138575000D01*
X107575000Y-138575000D02*
X107600000Y-138600000D01*
X110100000Y-138100000D02*
X110100000Y-137325000D01*
X110100000Y-137325000D02*
X111000000Y-136425000D01*
X111000000Y-136425000D02*
X111000000Y-136400000D01*
X109600000Y-138600000D02*
X110100000Y-138100000D01*
X106275000Y-136600000D02*
X106275000Y-137967880D01*
X106275000Y-137967880D02*
X106907120Y-138600000D01*
X111425000Y-138125000D02*
X111425000Y-136825000D01*
X111425000Y-136825000D02*
X111000000Y-136400000D01*
D28*
%TO.N,/GPIO0_33*%
X119425000Y-145600000D02*
X121000000Y-145600000D01*
X121000000Y-145600000D02*
X124130000Y-148730000D01*
X118575000Y-143875000D02*
X118575000Y-144750000D01*
X118575000Y-144750000D02*
X119425000Y-145600000D01*
D29*
%TO.N,Net-(IC8-Pad2)*%
X113704990Y-124395010D02*
X114200000Y-123900000D01*
X114200000Y-123900000D02*
X114200000Y-123340000D01*
X113704990Y-127980039D02*
X113704990Y-124395010D01*
X114200000Y-128475048D02*
X113704990Y-127980039D01*
X114200000Y-130150000D02*
X114200000Y-128475048D01*
X113600000Y-122900000D02*
X113760000Y-122900000D01*
X113760000Y-122900000D02*
X114200000Y-123340000D01*
X114200000Y-123340000D02*
X114925000Y-122615000D01*
X114925000Y-122615000D02*
X115400000Y-122615000D01*
X115875000Y-122615000D02*
X115400000Y-122615000D01*
%TO.N,Net-(D3-Pad1)*%
X118000000Y-116900000D02*
X118000000Y-120400000D01*
X118000000Y-120400000D02*
X118000000Y-122600000D01*
X113600000Y-121300000D02*
X113600000Y-120525000D01*
X113725000Y-120400000D02*
X118000000Y-120400000D01*
X113600000Y-120525000D02*
X113725000Y-120400000D01*
X118000000Y-122600000D02*
X119285000Y-123885000D01*
X119285000Y-123885000D02*
X120800000Y-123885000D01*
%TO.N,Net-(IC3-Pad5)*%
X81500000Y-125900000D02*
X85880000Y-125900000D01*
X85880000Y-125900000D02*
X86625000Y-125155000D01*
X86625000Y-125155000D02*
X87700000Y-125155000D01*
X80400000Y-127000000D02*
X81500000Y-125900000D01*
X80400000Y-131825000D02*
X80400000Y-127000000D01*
X79550000Y-132700000D02*
X79550000Y-132675000D01*
X79550000Y-132675000D02*
X80400000Y-131825000D01*
%TO.N,Net-(IC3-Pad4)*%
X79550000Y-131200000D02*
X79550000Y-126750000D01*
X79550000Y-126750000D02*
X80955000Y-125345000D01*
X80955000Y-125345000D02*
X80955000Y-125155000D01*
%TO.N,/ADC_VD*%
X98500000Y-136000000D02*
X99400000Y-135100000D01*
X97250000Y-137250000D02*
X98500000Y-136000000D01*
X98500000Y-136000000D02*
X98599999Y-135899999D01*
X98599999Y-135899999D02*
X98100000Y-135400000D01*
D30*
X82400000Y-136900000D02*
X82400000Y-136714998D01*
X82400000Y-136714998D02*
X81385002Y-135700000D01*
X81385002Y-135700000D02*
X76800000Y-135700000D01*
X76800000Y-135700000D02*
X76300000Y-135200000D01*
X77450000Y-124700000D02*
X77500000Y-124700000D01*
X76300000Y-135200000D02*
X76300000Y-125850000D01*
X76300000Y-125850000D02*
X77450000Y-124700000D01*
D29*
X95450000Y-137000000D02*
X95450000Y-137200000D01*
X95450000Y-137200000D02*
X95400000Y-137250000D01*
D30*
X95450000Y-135650000D02*
X95450000Y-137000000D01*
X96000000Y-135100000D02*
X95450000Y-135650000D01*
X96000000Y-128550000D02*
X96000000Y-135100000D01*
D29*
X96000000Y-128450000D02*
X96000000Y-128550000D01*
D28*
X96000000Y-125075000D02*
X96000000Y-128450000D01*
X96400000Y-124700000D02*
X96375000Y-124700000D01*
X96375000Y-124700000D02*
X96000000Y-125075000D01*
%TO.N,Net-(IC9-Pad4)*%
X95500000Y-124650000D02*
X95500000Y-122700000D01*
X95500000Y-122700000D02*
X94100000Y-121300000D01*
X94900000Y-125250000D02*
X95500000Y-124650000D01*
X92450000Y-125250000D02*
X94900000Y-125250000D01*
X90250000Y-127450000D02*
X92450000Y-125250000D01*
X90250000Y-135800000D02*
X90250000Y-127450000D01*
D29*
%TO.N,/ADC_VDD*%
X101675000Y-128075000D02*
X101675000Y-128025000D01*
X101675000Y-128025000D02*
X102200000Y-127500000D01*
X88300001Y-138000000D02*
X87100000Y-138000000D01*
X87100000Y-138000000D02*
X86850000Y-138250000D01*
X89750001Y-138000000D02*
X90800000Y-138000000D01*
X90800000Y-138000000D02*
X91050000Y-138250000D01*
D31*
X87725001Y-139125001D02*
X87200000Y-138600000D01*
X87200000Y-138600000D02*
X86850000Y-138250000D01*
X90600000Y-138700000D02*
X90250000Y-139050000D01*
X91050000Y-138250000D02*
X90600000Y-138700000D01*
D28*
X94100000Y-123840000D02*
X91900000Y-123840000D01*
X91900000Y-123840000D02*
X86940000Y-128800000D01*
X86940000Y-128800000D02*
X86940000Y-130143502D01*
X86940000Y-130143502D02*
X86940000Y-131900000D01*
%TO.N,Net-(IC9-Pad8)*%
X86150001Y-133150001D02*
X85650001Y-132650001D01*
X85650001Y-132650001D02*
X85650001Y-130050001D01*
X85650001Y-130050001D02*
X85349999Y-129749999D01*
X85349999Y-129749999D02*
X84400000Y-128800000D01*
X88250000Y-135800000D02*
X88250000Y-134234302D01*
X88250000Y-134234302D02*
X87165699Y-133150001D01*
X87165699Y-133150001D02*
X86150001Y-133150001D01*
%TO.N,Net-(IC9-Pad9)*%
X84750000Y-133600000D02*
X84400000Y-133250000D01*
X84400000Y-133250000D02*
X84400000Y-131900000D01*
X87050000Y-133600000D02*
X84750000Y-133600000D01*
X87750000Y-134300000D02*
X87050000Y-133600000D01*
X87750000Y-135800000D02*
X87750000Y-134300000D01*
D29*
%TO.N,5v*%
X103900000Y-146200000D02*
X104500000Y-146200000D01*
X104500000Y-146200000D02*
X104900000Y-145800000D01*
D28*
%TO.N,Net-(C12-Pad2)*%
X78750000Y-133200000D02*
X78750000Y-133375000D01*
X78750000Y-133375000D02*
X79550000Y-134175000D01*
X78750000Y-132025000D02*
X78750000Y-133200000D01*
X77950000Y-131200000D02*
X77950000Y-131225000D01*
X77950000Y-131225000D02*
X78750000Y-132025000D01*
X79550000Y-134175000D02*
X79550000Y-134200000D01*
D29*
X86907120Y-134200000D02*
X79550000Y-134200000D01*
X87250000Y-135800000D02*
X87250000Y-134542880D01*
X87250000Y-134542880D02*
X86907120Y-134200000D01*
%TO.N,Net-(C12-Pad1)*%
X77950000Y-134200000D02*
X77950000Y-132700000D01*
X86750000Y-135800000D02*
X86750000Y-134750000D01*
X86750000Y-134750000D02*
X86700000Y-134700000D01*
X86700000Y-134700000D02*
X80700000Y-134700000D01*
X80700000Y-134700000D02*
X80349999Y-135050001D01*
X78775001Y-135050001D02*
X77950000Y-134225000D01*
X80349999Y-135050001D02*
X78775001Y-135050001D01*
X77950000Y-134225000D02*
X77950000Y-134200000D01*
%TO.N,Net-(C28-Pad1)*%
X114200000Y-124610000D02*
X114200000Y-127775000D01*
X114200000Y-127775000D02*
X115800000Y-129375000D01*
X115800000Y-129375000D02*
X115800000Y-130150000D01*
X115400000Y-123885000D02*
X114925000Y-123885000D01*
X114925000Y-123885000D02*
X114200000Y-124610000D01*
X118200000Y-131650000D02*
X116700000Y-130150000D01*
X116700000Y-130150000D02*
X115800000Y-130150000D01*
X120850000Y-131650000D02*
X118200000Y-131650000D01*
X115875000Y-123885000D02*
X115400000Y-123885000D01*
X120850000Y-134650000D02*
X120850000Y-133150000D01*
X120850000Y-131625000D02*
X120850000Y-131650000D01*
X120750000Y-131750000D02*
X120850000Y-131650000D01*
X120850000Y-133150000D02*
X120850000Y-131650000D01*
X120850000Y-133125000D02*
X120850000Y-133150000D01*
%TO.N,Net-(D3-Pad1)*%
X120800000Y-123885000D02*
X120325000Y-123885000D01*
X118000000Y-110500000D02*
X118000000Y-116900000D01*
D30*
%TO.N,Net-(IC3-Pad8)*%
X87700000Y-121345000D02*
X85195000Y-121345000D01*
X85195000Y-121345000D02*
X83600000Y-119750000D01*
X87700000Y-121345000D02*
X88395000Y-121345000D01*
X88395000Y-121345000D02*
X89500000Y-122450000D01*
%TO.N,Net-(IC3-Pad5)*%
X87700000Y-125155000D02*
X88395000Y-125155000D01*
X88395000Y-125155000D02*
X89500000Y-124050000D01*
%TO.N,Net-(IC3-Pad4)*%
X82300000Y-125155000D02*
X82605000Y-125155000D01*
X82300000Y-125155000D02*
X80955000Y-125155000D01*
X80955000Y-125155000D02*
X80500000Y-124700000D01*
D29*
%TO.N,/ADC_VD*%
X85850000Y-137250000D02*
X89100000Y-137250000D01*
X84800000Y-137250000D02*
X85850000Y-137250000D01*
X89100000Y-137250000D02*
X93200000Y-137250000D01*
D31*
X89025001Y-137324999D02*
X89100000Y-137250000D01*
X89025001Y-143225001D02*
X89025001Y-137324999D01*
D28*
X97900000Y-123100000D02*
X97875000Y-123100000D01*
X97875000Y-123100000D02*
X96400000Y-124575000D01*
X96400000Y-124575000D02*
X96400000Y-124700000D01*
X79000000Y-123100000D02*
X78975000Y-123100000D01*
X78975000Y-123100000D02*
X77500000Y-124575000D01*
X77500000Y-124575000D02*
X77500000Y-124700000D01*
X79000000Y-123100000D02*
X79025000Y-123100000D01*
X79025000Y-123100000D02*
X79810000Y-123885000D01*
X79810000Y-123885000D02*
X81325000Y-123885000D01*
X81325000Y-123885000D02*
X82300000Y-123885000D01*
D29*
X93200000Y-137250000D02*
X95400000Y-137250000D01*
X95400000Y-137250000D02*
X97250000Y-137250000D01*
D28*
X97900000Y-123100000D02*
X97925000Y-123100000D01*
X97925000Y-123100000D02*
X98710000Y-123885000D01*
X98710000Y-123885000D02*
X100225000Y-123885000D01*
X100225000Y-123885000D02*
X101200000Y-123885000D01*
D31*
X96400000Y-124700000D02*
X96400000Y-124600000D01*
D29*
X93900000Y-135900000D02*
X93900000Y-137100000D01*
X99400000Y-135100000D02*
X100300000Y-135100000D01*
X103075000Y-135100000D02*
X101600000Y-135100000D01*
X101600000Y-135100000D02*
X101000000Y-135100000D01*
X101675000Y-136600000D02*
X101675000Y-135175000D01*
X101675000Y-135175000D02*
X101600000Y-135100000D01*
X101000000Y-135100000D02*
X100300000Y-135100000D01*
X101025000Y-136600000D02*
X101025000Y-135125000D01*
X101025000Y-135125000D02*
X101000000Y-135100000D01*
X100375000Y-135175000D02*
X100300000Y-135100000D01*
X100375000Y-136600000D02*
X100375000Y-135175000D01*
X94200000Y-136200000D02*
X93900000Y-135900000D01*
X103700000Y-136500000D02*
X103700000Y-135725000D01*
X103700000Y-135725000D02*
X103075000Y-135100000D01*
X84800000Y-137250000D02*
X82750000Y-137250000D01*
X82750000Y-137250000D02*
X82400000Y-136900000D01*
D31*
X88750000Y-144200000D02*
X88750000Y-143500002D01*
X88750000Y-143500002D02*
X89025001Y-143225001D01*
X89250000Y-143450000D02*
X89025001Y-143225001D01*
X89250000Y-144200000D02*
X89250000Y-143450000D01*
D28*
%TO.N,Net-(C4-Pad1)*%
X83500000Y-122500000D02*
X83385000Y-122615000D01*
X83385000Y-122615000D02*
X82300000Y-122615000D01*
X83500000Y-120950000D02*
X83500000Y-122500000D01*
X83200000Y-120650000D02*
X83500000Y-120950000D01*
X81379998Y-120650000D02*
X83200000Y-120650000D01*
X79000000Y-121600000D02*
X79025000Y-121600000D01*
X79830010Y-120794990D02*
X81235008Y-120794990D01*
X79025000Y-121600000D02*
X79830010Y-120794990D01*
X81235008Y-120794990D02*
X81379998Y-120650000D01*
D30*
X77500000Y-121600000D02*
X79000000Y-121600000D01*
X77500000Y-123100000D02*
X77500000Y-121600000D01*
%TO.N,Net-(IC3-Pad1)*%
X80500000Y-121600000D02*
X80500000Y-123100000D01*
X82300000Y-121345000D02*
X80755000Y-121345000D01*
X80755000Y-121345000D02*
X80500000Y-121600000D01*
%TO.N,Net-(IC2-Pad1)*%
X99400000Y-121600000D02*
X99400000Y-123100000D01*
X101200000Y-121345000D02*
X99655000Y-121345000D01*
D28*
X99655000Y-121345000D02*
X99400000Y-121600000D01*
%TO.N,Net-(C2-Pad1)*%
X97900000Y-121600000D02*
X97925000Y-121600000D01*
X97925000Y-121600000D02*
X98749999Y-120775001D01*
X98749999Y-120775001D02*
X100154997Y-120775001D01*
X100154997Y-120775001D02*
X100279998Y-120650000D01*
X100279998Y-120650000D02*
X102100000Y-120650000D01*
X102350000Y-122440000D02*
X102175000Y-122615000D01*
X102100000Y-120650000D02*
X102350000Y-120900000D01*
X102350000Y-120900000D02*
X102350000Y-122440000D01*
X102175000Y-122615000D02*
X101200000Y-122615000D01*
D30*
X96400000Y-121600000D02*
X97900000Y-121600000D01*
X96400000Y-123100000D02*
X96400000Y-121600000D01*
D29*
%TO.N,Net-(IC2-Pad4)*%
X96800000Y-126200000D02*
X96800000Y-126225000D01*
X96800000Y-126225000D02*
X97175001Y-126600001D01*
X99855000Y-126245000D02*
X99855000Y-125155000D01*
X97175001Y-126600001D02*
X99499999Y-126600001D01*
X99499999Y-126600001D02*
X99855000Y-126245000D01*
D30*
X101200000Y-125155000D02*
X99855000Y-125155000D01*
X99855000Y-125155000D02*
X99400000Y-124700000D01*
D29*
%TO.N,Net-(IC2-Pad5)*%
X96800000Y-127700000D02*
X97399989Y-127100011D01*
X97399989Y-127100011D02*
X101199989Y-127100011D01*
X101199989Y-127100011D02*
X103145000Y-125155000D01*
X103145000Y-125155000D02*
X106600000Y-125155000D01*
D30*
X106600000Y-125155000D02*
X107295000Y-125155000D01*
X107295000Y-125155000D02*
X108400000Y-124050000D01*
%TO.N,Net-(IC2-Pad8)*%
X106600000Y-121345000D02*
X104095000Y-121345000D01*
X104095000Y-121345000D02*
X102500000Y-119750000D01*
X106600000Y-121345000D02*
X107295000Y-121345000D01*
X107295000Y-121345000D02*
X108400000Y-122450000D01*
D29*
%TO.N,/ADC_VDD*%
X94850000Y-138250000D02*
X96000000Y-138250000D01*
X96000000Y-138250000D02*
X96450000Y-138250000D01*
X96034315Y-139434315D02*
X96034315Y-138284315D01*
X96034315Y-138284315D02*
X96000000Y-138250000D01*
X96700000Y-136200000D02*
X96700000Y-133675000D01*
X96700000Y-133675000D02*
X98075000Y-132300000D01*
X98075000Y-132300000D02*
X98100000Y-132300000D01*
X96450000Y-138250000D02*
X96700000Y-138500000D01*
X93200000Y-138250000D02*
X94850000Y-138250000D01*
X84800000Y-138250000D02*
X82750000Y-138250000D01*
X82750000Y-138250000D02*
X82400000Y-138600000D01*
D31*
X90250000Y-139050000D02*
X90250000Y-139100000D01*
X90250000Y-139100000D02*
X90250000Y-144200000D01*
X93200000Y-138250000D02*
X91050000Y-138250000D01*
X86850000Y-138250000D02*
X84800000Y-138250000D01*
X87750000Y-144200000D02*
X87750000Y-143450000D01*
X87750000Y-143450000D02*
X87725001Y-143425001D01*
X87725001Y-143425001D02*
X87725001Y-139125001D01*
D29*
X101025000Y-130775000D02*
X99500000Y-132300000D01*
X99500000Y-132300000D02*
X98100000Y-132300000D01*
X101025000Y-129300000D02*
X101025000Y-130775000D01*
X100500000Y-127900000D02*
X101000000Y-127900000D01*
X101000000Y-127900000D02*
X101500000Y-127900000D01*
X101025000Y-129300000D02*
X101025000Y-127925000D01*
X101025000Y-127925000D02*
X101000000Y-127900000D01*
X101500000Y-127900000D02*
X101675000Y-128075000D01*
X101675000Y-128075000D02*
X101675000Y-129300000D01*
X100375000Y-128025000D02*
X100500000Y-127900000D01*
X100375000Y-129300000D02*
X100375000Y-128025000D01*
X98100000Y-132300000D02*
X98100000Y-130800000D01*
%TO.N,Net-(C3-Pad1)*%
X105625000Y-133700000D02*
X105625000Y-134630002D01*
X105625000Y-134630002D02*
X105994998Y-135000000D01*
X108400000Y-134600000D02*
X108400000Y-133525000D01*
X105994998Y-135000000D02*
X108000000Y-135000000D01*
X108000000Y-135000000D02*
X108400000Y-134600000D01*
X108400000Y-133525000D02*
X108625000Y-133300000D01*
X108625000Y-133300000D02*
X109400000Y-133300000D01*
%TO.N,5v*%
X103700000Y-130800000D02*
X104500000Y-130800000D01*
X104500000Y-130800000D02*
X104800000Y-131100000D01*
X104800000Y-131100000D02*
X104800000Y-131500000D01*
X103700000Y-133900000D02*
X104800000Y-133900000D01*
X101675000Y-132575000D02*
X102175000Y-132575000D01*
X102175000Y-132575000D02*
X102700000Y-133100000D01*
X102700000Y-133100000D02*
X102700000Y-133700000D01*
X102700000Y-133700000D02*
X102900000Y-133900000D01*
X102900000Y-133900000D02*
X103700000Y-133900000D01*
X104800000Y-132300000D02*
X106300000Y-132300000D01*
X106300000Y-132300000D02*
X106900000Y-132300000D01*
X106275000Y-133700000D02*
X106275000Y-132325000D01*
X106275000Y-132325000D02*
X106300000Y-132300000D01*
X106900000Y-132300000D02*
X107200000Y-132300000D01*
X106925000Y-133700000D02*
X106925000Y-132325000D01*
X106925000Y-132325000D02*
X106900000Y-132300000D01*
X107200000Y-132300000D02*
X107575000Y-132675000D01*
X107575000Y-132675000D02*
X107575000Y-133700000D01*
X104800000Y-132300000D02*
X104800000Y-133900000D01*
X104800000Y-131500000D02*
X104800000Y-132300000D01*
X104800000Y-133900000D02*
X104800000Y-135375000D01*
X104800000Y-139500000D02*
X104800000Y-144000000D01*
X104800000Y-144000000D02*
X104500000Y-144300000D01*
X104500000Y-144300000D02*
X103700000Y-144300000D01*
X103900000Y-146200000D02*
X102900000Y-145200000D01*
X102900000Y-145200000D02*
X100600000Y-142900000D01*
X103700000Y-144300000D02*
X103675000Y-144300000D01*
X103675000Y-144300000D02*
X102900000Y-145075000D01*
X102900000Y-145075000D02*
X102900000Y-145200000D01*
X101675000Y-141000000D02*
X103500000Y-141000000D01*
X103500000Y-141000000D02*
X103700000Y-141200000D01*
X100600000Y-142900000D02*
X100300000Y-142600000D01*
X101675000Y-141000000D02*
X101675000Y-142025000D01*
X101675000Y-142025000D02*
X100800000Y-142900000D01*
X100800000Y-142900000D02*
X100600000Y-142900000D01*
X100300000Y-142600000D02*
X99725000Y-142025000D01*
X101025000Y-141000000D02*
X101025000Y-142025000D01*
X101025000Y-142025000D02*
X100450000Y-142600000D01*
X100450000Y-142600000D02*
X100300000Y-142600000D01*
X99725000Y-142025000D02*
X99725000Y-141000000D01*
X106800000Y-139500000D02*
X106200000Y-139500000D01*
X106275000Y-139575000D02*
X106200000Y-139500000D01*
X106200000Y-139500000D02*
X104800000Y-139500000D01*
X106275000Y-141000000D02*
X106275000Y-139575000D01*
X107100000Y-139500000D02*
X106800000Y-139500000D01*
X106925000Y-141000000D02*
X106925000Y-139625000D01*
X106925000Y-139625000D02*
X106800000Y-139500000D01*
X104800000Y-135375000D02*
X104800000Y-139500000D01*
X107575000Y-139975000D02*
X107100000Y-139500000D01*
X107575000Y-141000000D02*
X107575000Y-139975000D01*
X101000000Y-132500000D02*
X101600000Y-132500000D01*
X101675000Y-133700000D02*
X101675000Y-132575000D01*
X101675000Y-132575000D02*
X101600000Y-132500000D01*
X100550000Y-132500000D02*
X101000000Y-132500000D01*
X101025000Y-132525000D02*
X101000000Y-132500000D01*
X101025000Y-133700000D02*
X101025000Y-132525000D01*
X100375000Y-133700000D02*
X100375000Y-132675000D01*
X100375000Y-132675000D02*
X100550000Y-132500000D01*
%TO.N,Net-(C17-Pad1)*%
X98100000Y-133900000D02*
X99525000Y-133900000D01*
X99525000Y-133900000D02*
X99725000Y-133700000D01*
%TO.N,Net-(C8-Pad1)*%
X105625000Y-141000000D02*
X105625000Y-142625000D01*
X105625000Y-142625000D02*
X105800000Y-142800000D01*
%TO.N,Net-(C10-Pad1)*%
X91250000Y-128950000D02*
X92400000Y-127800000D01*
X92400000Y-127800000D02*
X93700000Y-127800000D01*
X91250000Y-135800000D02*
X91250000Y-128950000D01*
X95200000Y-127700000D02*
X93800000Y-127700000D01*
X93800000Y-127700000D02*
X93700000Y-127800000D01*
%TO.N,Net-(C10-Pad2)*%
X90750000Y-127950000D02*
X92500000Y-126200000D01*
X92500000Y-126200000D02*
X93700000Y-126200000D01*
X90750000Y-135800000D02*
X90750000Y-127950000D01*
X95200000Y-126200000D02*
X93700000Y-126200000D01*
%TO.N,Net-(C21-Pad1)*%
X89250000Y-134450000D02*
X89250000Y-133350000D01*
X88900000Y-134400000D02*
X89300000Y-134400000D01*
X89300000Y-134400000D02*
X89600000Y-134400000D01*
X89250000Y-135800000D02*
X89250000Y-134450000D01*
X89250000Y-134450000D02*
X89300000Y-134400000D01*
X89600000Y-134400000D02*
X89749999Y-134549999D01*
X89749999Y-134549999D02*
X89750000Y-134750000D01*
X89750000Y-134750000D02*
X89750000Y-135800000D01*
X88750000Y-134550000D02*
X88900000Y-134400000D01*
X88750000Y-135800000D02*
X88750000Y-134550000D01*
D28*
%TO.N,/GPIO0_09*%
X91250000Y-144200000D02*
X91250000Y-148590000D01*
D29*
X91250000Y-148590000D02*
X91110000Y-148730000D01*
D28*
%TO.N,/GPIO0_19*%
X93200000Y-137750000D02*
X97150000Y-137750000D01*
X99000000Y-142576498D02*
X103810000Y-147386498D01*
X97150000Y-137750000D02*
X99000000Y-139600000D01*
X99000000Y-139600000D02*
X99000000Y-142576498D01*
X103810000Y-147386498D02*
X103810000Y-148730000D01*
%TO.N,/GPIO0_18*%
X93200000Y-139250000D02*
X94544188Y-139250000D01*
X94544188Y-139250000D02*
X102520001Y-147225813D01*
X102520001Y-147225813D02*
X102520001Y-149980001D01*
X102860001Y-150320001D02*
X103810000Y-151270000D01*
X102520001Y-149980001D02*
X102860001Y-150320001D01*
%TO.N,/GPIO0_17*%
X93200000Y-139750000D02*
X94478490Y-139750000D01*
X94478490Y-139750000D02*
X101270000Y-146541510D01*
X101270000Y-146541510D02*
X101270000Y-147386498D01*
X101270000Y-147386498D02*
X101270000Y-148730000D01*
%TO.N,/GPIO0_16*%
X93200000Y-140250000D02*
X94412792Y-140250000D01*
X94412792Y-140250000D02*
X100019999Y-145857207D01*
X100019999Y-145857207D02*
X100019999Y-150019999D01*
X100019999Y-150019999D02*
X100320001Y-150320001D01*
X100320001Y-150320001D02*
X101270000Y-151270000D01*
%TO.N,/GPIO0_15*%
X93200000Y-140750000D02*
X94347094Y-140750000D01*
X94347094Y-140750000D02*
X98730000Y-145132906D01*
X98730000Y-145132906D02*
X98730000Y-147386498D01*
X98730000Y-147386498D02*
X98730000Y-148730000D01*
%TO.N,/GPIO0_14*%
X93200000Y-141250000D02*
X94281396Y-141250000D01*
X94281396Y-141250000D02*
X97440001Y-144408605D01*
X97440001Y-144408605D02*
X97440001Y-149980001D01*
X97440001Y-149980001D02*
X97780001Y-150320001D01*
X97780001Y-150320001D02*
X98730000Y-151270000D01*
%TO.N,/GPIO0_13*%
X93200000Y-141750000D02*
X94215698Y-141750000D01*
X94215698Y-141750000D02*
X96190000Y-143724302D01*
X96190000Y-143724302D02*
X96190000Y-147386498D01*
X96190000Y-147386498D02*
X96190000Y-148730000D01*
%TO.N,/GPIO0_12*%
X93200000Y-142250000D02*
X94150000Y-142250000D01*
X94150000Y-142250000D02*
X94939999Y-143039999D01*
X94939999Y-143039999D02*
X94939999Y-150019999D01*
X94939999Y-150019999D02*
X95240001Y-150320001D01*
X95240001Y-150320001D02*
X96190000Y-151270000D01*
%TO.N,/GPIO0_11*%
X93200000Y-142750000D02*
X93200000Y-148280000D01*
D29*
X93200000Y-148280000D02*
X93650000Y-148730000D01*
D28*
%TO.N,/GPIO0_10*%
X93650000Y-151270000D02*
X92360001Y-149980001D01*
X92360001Y-149980001D02*
X92360001Y-145760001D01*
X92360001Y-145760001D02*
X91750000Y-145150000D01*
X91750000Y-145150000D02*
X91750000Y-144200000D01*
%TO.N,/GPIO0_IN0*%
X75870000Y-151230000D02*
X77159999Y-149940001D01*
X77159999Y-149940001D02*
X77159999Y-145545813D01*
X77159999Y-145545813D02*
X83455812Y-139250000D01*
X83455812Y-139250000D02*
X83850000Y-139250000D01*
X83850000Y-139250000D02*
X84800000Y-139250000D01*
X75870000Y-151270000D02*
X75870000Y-151230000D01*
D29*
X75870000Y-151270000D02*
X75870000Y-151180000D01*
X75870000Y-151270000D02*
X75880000Y-151270000D01*
D28*
%TO.N,/GPIO0_IN1*%
X78410000Y-151270000D02*
X79699999Y-149980001D01*
X79699999Y-149980001D02*
X79699999Y-144137209D01*
X79699999Y-144137209D02*
X83587208Y-140250000D01*
X83587208Y-140250000D02*
X83850000Y-140250000D01*
X83850000Y-140250000D02*
X84800000Y-140250000D01*
%TO.N,/GPIO0_00*%
X75870000Y-145730000D02*
X75870000Y-148730000D01*
X75870000Y-141930000D02*
X75870000Y-145730000D01*
X80050000Y-137750000D02*
X75870000Y-141930000D01*
X84800000Y-137750000D02*
X80050000Y-137750000D01*
%TO.N,/GPIO0_01*%
X78410000Y-148730000D02*
X78410000Y-144861510D01*
X78410000Y-144861510D02*
X83521510Y-139750000D01*
X83521510Y-139750000D02*
X83850000Y-139750000D01*
X83850000Y-139750000D02*
X84800000Y-139750000D01*
%TO.N,/GPIO0_02*%
X80950000Y-151270000D02*
X82239999Y-149980001D01*
X82239999Y-149980001D02*
X82239999Y-142728605D01*
X82239999Y-142728605D02*
X83718604Y-141250000D01*
X83850000Y-141250000D02*
X84800000Y-141250000D01*
X83718604Y-141250000D02*
X83850000Y-141250000D01*
%TO.N,/GPIO0_03*%
X80950000Y-148730000D02*
X80950000Y-143452906D01*
X80950000Y-143452906D02*
X83652906Y-140750000D01*
X83652906Y-140750000D02*
X83850000Y-140750000D01*
X83850000Y-140750000D02*
X84800000Y-140750000D01*
%TO.N,/GPIO0_04*%
X84800000Y-142250000D02*
X83850000Y-142250000D01*
X83850000Y-142250000D02*
X83500000Y-142600000D01*
X83500000Y-145600000D02*
X83500000Y-142600000D01*
X84779999Y-146879999D02*
X83500000Y-145600000D01*
X83490000Y-151270000D02*
X84779999Y-149980001D01*
X84779999Y-149980001D02*
X84779999Y-146879999D01*
%TO.N,/GPIO0_05*%
X83000000Y-145800000D02*
X83000000Y-142534302D01*
X83784302Y-141750000D02*
X83850000Y-141750000D01*
X83000000Y-142534302D02*
X83784302Y-141750000D01*
X83850000Y-141750000D02*
X84800000Y-141750000D01*
X83490000Y-146290000D02*
X83000000Y-145800000D01*
X83490000Y-148730000D02*
X83490000Y-146290000D01*
%TO.N,/GPIO0_06*%
X86030000Y-151270000D02*
X87319999Y-149980001D01*
X87319999Y-149980001D02*
X87319999Y-147719999D01*
X87319999Y-147719999D02*
X86250000Y-146650000D01*
X86250000Y-146650000D02*
X86250000Y-144200000D01*
%TO.N,/GPIO0_07*%
X86030000Y-148730000D02*
X86030000Y-147386498D01*
X86030000Y-147386498D02*
X84800000Y-146156498D01*
X84800000Y-146156498D02*
X84800000Y-143100000D01*
X84800000Y-143100000D02*
X84800000Y-142750000D01*
%TO.N,/GPIO0_08*%
X91110000Y-151270000D02*
X89859999Y-150019999D01*
X89859999Y-150019999D02*
X89859999Y-148159999D01*
X89859999Y-148159999D02*
X88800000Y-147100000D01*
X88800000Y-147100000D02*
X87500000Y-147100000D01*
X87500000Y-147100000D02*
X86750000Y-146350000D01*
X86750000Y-146350000D02*
X86750000Y-145140002D01*
X86750000Y-145140002D02*
X86750000Y-144200000D01*
D30*
%TO.N,Net-(D2-Pad1)*%
X81950000Y-116900000D02*
X81950000Y-118200000D01*
X81950000Y-118200000D02*
X82000000Y-118250000D01*
X82000000Y-118250000D02*
X82000000Y-119750000D01*
X82000000Y-116950000D02*
X81950000Y-116900000D01*
X82000000Y-110500000D02*
X82000000Y-116850000D01*
X82000000Y-116850000D02*
X81950000Y-116900000D01*
%TO.N,Net-(D1-Pad1)*%
X100150000Y-116950000D02*
X100150000Y-110650000D01*
X100150000Y-110650000D02*
X100000000Y-110500000D01*
X100900000Y-118250000D02*
X100900000Y-119750000D01*
X100150000Y-116950000D02*
X100150000Y-117500000D01*
X100150000Y-117500000D02*
X100900000Y-118250000D01*
%TD*%
M02*
