%TF.GenerationSoftware,KiCad,Pcbnew,no-vcs-found-0b1eb56~60~ubuntu16.04.1*%
%TF.CreationDate,2017-11-02T03:22:39+00:00*%
%TF.ProjectId,adcdac,6164636461632E6B696361645F706362,rev?*%
%TF.SameCoordinates,Original*%
%TF.FileFunction,Copper,L2,Bot,Signal*%
%TF.FilePolarity,Positive*%
%FSLAX46Y46*%
G04 Gerber Fmt 4.6, Leading zero omitted, Abs format (unit mm)*
G04 Created by KiCad (PCBNEW no-vcs-found-0b1eb56~60~ubuntu16.04.1) date Thu Nov  2 03:22:39 2017*
%MOMM*%
%LPD*%
G01*
G04 APERTURE LIST*
%TA.AperFunction,ComponentPad*%
%ADD10R,1.900000X1.900000*%
%TD*%
%TA.AperFunction,ComponentPad*%
%ADD11C,1.900000*%
%TD*%
%TA.AperFunction,ViaPad*%
%ADD12C,0.650000*%
%TD*%
%TA.AperFunction,ComponentPad*%
%ADD13C,3.200000*%
%TD*%
%TA.AperFunction,ComponentPad*%
%ADD14C,2.000000*%
%TD*%
%TA.AperFunction,ViaPad*%
%ADD15C,0.800000*%
%TD*%
%TA.AperFunction,Conductor*%
%ADD16C,0.300000*%
%TD*%
%TA.AperFunction,Conductor*%
%ADD17C,0.200000*%
%TD*%
%TA.AperFunction,Conductor*%
%ADD18C,0.250000*%
%TD*%
G04 APERTURE END LIST*
D10*
%TO.P,J6,1*%
%TO.N,GND*%
X76500000Y-138000000D03*
%TD*%
D11*
%TO.P,J4,3*%
%TO.N,/ADC_VDD*%
X86940000Y-128800000D03*
%TO.P,J4,2*%
%TO.N,Net-(IC9-Pad8)*%
X84400000Y-128800000D03*
D10*
%TO.P,J4,1*%
%TO.N,GND*%
X81860000Y-128800000D03*
%TD*%
%TO.P,J3,1*%
%TO.N,GND*%
X81860000Y-131900000D03*
D11*
%TO.P,J3,2*%
%TO.N,Net-(IC9-Pad9)*%
X84400000Y-131900000D03*
%TO.P,J3,3*%
%TO.N,/ADC_VDD*%
X86940000Y-131900000D03*
%TD*%
D12*
%TO.N,GND*%
%TO.C,IC7*%
X101175000Y-138325000D03*
X100225000Y-138325000D03*
X101175000Y-139275000D03*
X100225000Y-139275000D03*
%TD*%
D13*
%TO.P,P2,2*%
%TO.N,GND*%
X78700000Y-107200000D03*
D14*
%TO.P,P2,1*%
%TO.N,Net-(D2-Pad1)*%
X82000000Y-110500000D03*
D13*
%TO.P,P2,2*%
%TO.N,GND*%
X85300000Y-107200000D03*
X78700000Y-113800000D03*
X85300000Y-113800000D03*
%TD*%
%TO.P,P3,2*%
%TO.N,GND*%
X121300000Y-113800000D03*
X114700000Y-113800000D03*
X121300000Y-107200000D03*
D14*
%TO.P,P3,1*%
%TO.N,Net-(D3-Pad1)*%
X118000000Y-110500000D03*
D13*
%TO.P,P3,2*%
%TO.N,GND*%
X114700000Y-107200000D03*
%TD*%
%TO.P,P1,2*%
%TO.N,GND*%
X96700000Y-107200000D03*
D14*
%TO.P,P1,1*%
%TO.N,Net-(D1-Pad1)*%
X100000000Y-110500000D03*
D13*
%TO.P,P1,2*%
%TO.N,GND*%
X103300000Y-107200000D03*
X96700000Y-113800000D03*
X103300000Y-113800000D03*
%TD*%
D10*
%TO.P,J1,1*%
%TO.N,/GPIO0_IN0*%
X75870000Y-151270000D03*
D11*
%TO.P,J1,2*%
%TO.N,/GPIO0_00*%
X75870000Y-148730000D03*
%TO.P,J1,3*%
%TO.N,/GPIO0_IN1*%
X78410000Y-151270000D03*
%TO.P,J1,4*%
%TO.N,/GPIO0_01*%
X78410000Y-148730000D03*
%TO.P,J1,5*%
%TO.N,/GPIO0_02*%
X80950000Y-151270000D03*
%TO.P,J1,6*%
%TO.N,/GPIO0_03*%
X80950000Y-148730000D03*
%TO.P,J1,7*%
%TO.N,/GPIO0_04*%
X83490000Y-151270000D03*
%TO.P,J1,8*%
%TO.N,/GPIO0_05*%
X83490000Y-148730000D03*
%TO.P,J1,9*%
%TO.N,/GPIO0_06*%
X86030000Y-151270000D03*
%TO.P,J1,10*%
%TO.N,/GPIO0_07*%
X86030000Y-148730000D03*
%TO.P,J1,11*%
%TO.N,5v*%
X88570000Y-151270000D03*
%TO.P,J1,12*%
%TO.N,GND*%
X88570000Y-148730000D03*
%TO.P,J1,13*%
%TO.N,/GPIO0_08*%
X91110000Y-151270000D03*
%TO.P,J1,14*%
%TO.N,/GPIO0_09*%
X91110000Y-148730000D03*
%TO.P,J1,15*%
%TO.N,/GPIO0_10*%
X93650000Y-151270000D03*
%TO.P,J1,16*%
%TO.N,/GPIO0_11*%
X93650000Y-148730000D03*
%TO.P,J1,17*%
%TO.N,/GPIO0_12*%
X96190000Y-151270000D03*
%TO.P,J1,18*%
%TO.N,/GPIO0_13*%
X96190000Y-148730000D03*
%TO.P,J1,19*%
%TO.N,/GPIO0_14*%
X98730000Y-151270000D03*
%TO.P,J1,20*%
%TO.N,/GPIO0_15*%
X98730000Y-148730000D03*
%TO.P,J1,21*%
%TO.N,/GPIO0_16*%
X101270000Y-151270000D03*
%TO.P,J1,22*%
%TO.N,/GPIO0_17*%
X101270000Y-148730000D03*
%TO.P,J1,23*%
%TO.N,/GPIO0_18*%
X103810000Y-151270000D03*
%TO.P,J1,24*%
%TO.N,/GPIO0_19*%
X103810000Y-148730000D03*
%TO.P,J1,25*%
%TO.N,/GPIO0_20*%
X106350000Y-151270000D03*
%TO.P,J1,26*%
%TO.N,/GPIO0_21*%
X106350000Y-148730000D03*
%TO.P,J1,27*%
%TO.N,/GPIO0_22*%
X108890000Y-151270000D03*
%TO.P,J1,28*%
%TO.N,/GPIO0_23*%
X108890000Y-148730000D03*
%TO.P,J1,29*%
%TO.N,Net-(J1-Pad29)*%
X111430000Y-151270000D03*
%TO.P,J1,30*%
%TO.N,GND*%
X111430000Y-148730000D03*
%TO.P,J1,31*%
%TO.N,/GPIO0_24*%
X113970000Y-151270000D03*
%TO.P,J1,32*%
%TO.N,/GPIO0_25*%
X113970000Y-148730000D03*
%TO.P,J1,33*%
%TO.N,/GPIO0_26*%
X116510000Y-151270000D03*
%TO.P,J1,34*%
%TO.N,/GPIO0_27*%
X116510000Y-148730000D03*
%TO.P,J1,35*%
%TO.N,/GPIO0_28*%
X119050000Y-151270000D03*
%TO.P,J1,36*%
%TO.N,/GPIO0_29*%
X119050000Y-148730000D03*
%TO.P,J1,37*%
%TO.N,/GPIO0_30*%
X121590000Y-151270000D03*
%TO.P,J1,38*%
%TO.N,/GPIO0_31*%
X121590000Y-148730000D03*
%TO.P,J1,39*%
%TO.N,/GPIO0_32*%
X124130000Y-151270000D03*
%TO.P,J1,40*%
%TO.N,/GPIO0_33*%
X124130000Y-148730000D03*
%TD*%
%TO.P,J2,3*%
%TO.N,/DAC_DVDD*%
X122300000Y-144040000D03*
%TO.P,J2,2*%
%TO.N,Net-(IC5-Pad25)*%
X122300000Y-141500000D03*
D10*
%TO.P,J2,1*%
%TO.N,GND*%
X122300000Y-138960000D03*
%TD*%
%TO.P,J5,1*%
%TO.N,GND*%
X94100000Y-118760000D03*
D11*
%TO.P,J5,2*%
%TO.N,Net-(IC9-Pad4)*%
X94100000Y-121300000D03*
%TO.P,J5,3*%
%TO.N,/ADC_VDD*%
X94100000Y-123840000D03*
%TD*%
D15*
%TO.N,GND*%
X109400000Y-129100000D03*
X109150000Y-142200000D03*
X115400000Y-126350000D03*
X122450000Y-130500000D03*
X122600000Y-125150000D03*
X118450000Y-134750000D03*
X118450000Y-134750000D03*
X112700000Y-135900000D03*
X119350000Y-135350000D03*
X123500000Y-136150000D03*
X103700000Y-128100000D03*
X105600000Y-127900000D03*
X102100000Y-131500000D03*
X79700000Y-136900000D03*
X89250000Y-130550000D03*
X86150000Y-123900000D03*
X80500000Y-118850000D03*
X79000000Y-118850000D03*
X77500000Y-118850000D03*
X79000000Y-125850000D03*
X97950000Y-125850000D03*
X105200000Y-123900000D03*
X99400000Y-118850000D03*
X97900000Y-118850000D03*
X96400000Y-118850000D03*
X108500000Y-135700000D03*
X105700000Y-138600000D03*
X102600000Y-142700000D03*
X102600000Y-139600000D03*
X109300000Y-137700000D03*
X102600000Y-138100000D03*
X95000000Y-134300000D03*
X97900000Y-141300000D03*
X80800000Y-139700000D03*
X90500000Y-145600000D03*
X89700000Y-146200000D03*
X88300000Y-146200000D03*
X87500000Y-145600000D03*
X98100000Y-128100000D03*
X99700000Y-130600000D03*
X85500000Y-135800000D03*
X92500000Y-135800000D03*
X91700000Y-139100000D03*
X86400000Y-139100000D03*
X112100000Y-139500000D03*
X116000000Y-139500000D03*
X118600000Y-139500000D03*
X120100000Y-143900000D03*
%TO.N,/ADC_VDD*%
X88300001Y-138000000D03*
X89750001Y-138000000D03*
X96700000Y-136200000D03*
X96700000Y-138500000D03*
%TO.N,5v*%
X103900000Y-146200000D03*
%TD*%
D16*
%TO.N,/ADC_VDD*%
X86940000Y-131900000D02*
X88300001Y-133260001D01*
X88300001Y-133260001D02*
X88300001Y-138000000D01*
X89750001Y-138000000D02*
X88300001Y-138000000D01*
X96700000Y-138500000D02*
X96700000Y-136200000D01*
D17*
%TO.N,5v*%
X101980001Y-150019999D02*
X102559999Y-149440001D01*
X102559999Y-149440001D02*
X102559999Y-147540001D01*
X102559999Y-147540001D02*
X103900000Y-146200000D01*
X89820001Y-150019999D02*
X101980001Y-150019999D01*
X88570000Y-151270000D02*
X89820001Y-150019999D01*
%TD*%
D18*
%TO.N,GND*%
G36*
X123875000Y-147354777D02*
X123857695Y-147354762D01*
X123352143Y-147563652D01*
X122965011Y-147950108D01*
X122860001Y-148203001D01*
X122756348Y-147952143D01*
X122369892Y-147565011D01*
X121864704Y-147355239D01*
X121317695Y-147354762D01*
X120812143Y-147563652D01*
X120425011Y-147950108D01*
X120320001Y-148203001D01*
X120216348Y-147952143D01*
X119829892Y-147565011D01*
X119324704Y-147355239D01*
X118777695Y-147354762D01*
X118272143Y-147563652D01*
X117885011Y-147950108D01*
X117780001Y-148203001D01*
X117676348Y-147952143D01*
X117289892Y-147565011D01*
X116784704Y-147355239D01*
X116237695Y-147354762D01*
X115732143Y-147563652D01*
X115345011Y-147950108D01*
X115240001Y-148203001D01*
X115136348Y-147952143D01*
X114749892Y-147565011D01*
X114244704Y-147355239D01*
X113697695Y-147354762D01*
X113192143Y-147563652D01*
X112805011Y-147950108D01*
X112700186Y-148202556D01*
X112612097Y-147976290D01*
X112578706Y-147926318D01*
X112363697Y-147831658D01*
X111465355Y-148730000D01*
X111479498Y-148744143D01*
X111444143Y-148779498D01*
X111430000Y-148765355D01*
X111415858Y-148779498D01*
X111380503Y-148744143D01*
X111394645Y-148730000D01*
X110496303Y-147831658D01*
X110281294Y-147926318D01*
X110159843Y-148202620D01*
X110056348Y-147952143D01*
X109900781Y-147796303D01*
X110531658Y-147796303D01*
X111430000Y-148694645D01*
X112328342Y-147796303D01*
X112233682Y-147581294D01*
X111732915Y-147361178D01*
X111186031Y-147349453D01*
X110676290Y-147547903D01*
X110626318Y-147581294D01*
X110531658Y-147796303D01*
X109900781Y-147796303D01*
X109669892Y-147565011D01*
X109164704Y-147355239D01*
X108617695Y-147354762D01*
X108112143Y-147563652D01*
X107725011Y-147950108D01*
X107620001Y-148203001D01*
X107516348Y-147952143D01*
X107129892Y-147565011D01*
X106624704Y-147355239D01*
X106077695Y-147354762D01*
X105572143Y-147563652D01*
X105185011Y-147950108D01*
X105080001Y-148203001D01*
X104976348Y-147952143D01*
X104589892Y-147565011D01*
X104084704Y-147355239D01*
X103537695Y-147354762D01*
X103452497Y-147389965D01*
X103817533Y-147024929D01*
X104063383Y-147025143D01*
X104366715Y-146899809D01*
X104598993Y-146667935D01*
X104724857Y-146364823D01*
X104725143Y-146036617D01*
X104599809Y-145733285D01*
X104367935Y-145501007D01*
X104064823Y-145375143D01*
X103736617Y-145374857D01*
X103433285Y-145500191D01*
X103201007Y-145732065D01*
X103075143Y-146035177D01*
X103074927Y-146282611D01*
X102188768Y-147168770D01*
X102074962Y-147339092D01*
X102034999Y-147540001D01*
X102034999Y-147558827D01*
X101544704Y-147355239D01*
X100997695Y-147354762D01*
X100492143Y-147563652D01*
X100105011Y-147950108D01*
X100000001Y-148203001D01*
X99896348Y-147952143D01*
X99509892Y-147565011D01*
X99004704Y-147355239D01*
X98457695Y-147354762D01*
X97952143Y-147563652D01*
X97565011Y-147950108D01*
X97460001Y-148203001D01*
X97356348Y-147952143D01*
X96969892Y-147565011D01*
X96464704Y-147355239D01*
X95917695Y-147354762D01*
X95412143Y-147563652D01*
X95025011Y-147950108D01*
X94920001Y-148203001D01*
X94816348Y-147952143D01*
X94429892Y-147565011D01*
X93924704Y-147355239D01*
X93377695Y-147354762D01*
X92872143Y-147563652D01*
X92485011Y-147950108D01*
X92380001Y-148203001D01*
X92276348Y-147952143D01*
X91889892Y-147565011D01*
X91384704Y-147355239D01*
X90837695Y-147354762D01*
X90332143Y-147563652D01*
X89945011Y-147950108D01*
X89840186Y-148202556D01*
X89752097Y-147976290D01*
X89718706Y-147926318D01*
X89503697Y-147831658D01*
X88605355Y-148730000D01*
X88619498Y-148744143D01*
X88584143Y-148779498D01*
X88570000Y-148765355D01*
X88555858Y-148779498D01*
X88520503Y-148744143D01*
X88534645Y-148730000D01*
X87636303Y-147831658D01*
X87421294Y-147926318D01*
X87299843Y-148202620D01*
X87196348Y-147952143D01*
X87040781Y-147796303D01*
X87671658Y-147796303D01*
X88570000Y-148694645D01*
X89468342Y-147796303D01*
X89373682Y-147581294D01*
X88872915Y-147361178D01*
X88326031Y-147349453D01*
X87816290Y-147547903D01*
X87766318Y-147581294D01*
X87671658Y-147796303D01*
X87040781Y-147796303D01*
X86809892Y-147565011D01*
X86304704Y-147355239D01*
X85757695Y-147354762D01*
X85252143Y-147563652D01*
X84865011Y-147950108D01*
X84760001Y-148203001D01*
X84656348Y-147952143D01*
X84269892Y-147565011D01*
X83764704Y-147355239D01*
X83217695Y-147354762D01*
X82712143Y-147563652D01*
X82325011Y-147950108D01*
X82220001Y-148203001D01*
X82116348Y-147952143D01*
X81729892Y-147565011D01*
X81224704Y-147355239D01*
X80677695Y-147354762D01*
X80172143Y-147563652D01*
X79785011Y-147950108D01*
X79680001Y-148203001D01*
X79576348Y-147952143D01*
X79189892Y-147565011D01*
X78684704Y-147355239D01*
X78137695Y-147354762D01*
X77632143Y-147563652D01*
X77245011Y-147950108D01*
X77140001Y-148203001D01*
X77036348Y-147952143D01*
X76649892Y-147565011D01*
X76144704Y-147355239D01*
X76125000Y-147355222D01*
X76125000Y-141772305D01*
X120924762Y-141772305D01*
X121133652Y-142277857D01*
X121520108Y-142664989D01*
X121773001Y-142769999D01*
X121522143Y-142873652D01*
X121135011Y-143260108D01*
X120925239Y-143765296D01*
X120924762Y-144312305D01*
X121133652Y-144817857D01*
X121520108Y-145204989D01*
X122025296Y-145414761D01*
X122572305Y-145415238D01*
X123077857Y-145206348D01*
X123464989Y-144819892D01*
X123674761Y-144314704D01*
X123675238Y-143767695D01*
X123466348Y-143262143D01*
X123079892Y-142875011D01*
X122826999Y-142770001D01*
X123077857Y-142666348D01*
X123464989Y-142279892D01*
X123674761Y-141774704D01*
X123675238Y-141227695D01*
X123466348Y-140722143D01*
X123079892Y-140335011D01*
X123079866Y-140335000D01*
X123334538Y-140335000D01*
X123490743Y-140270298D01*
X123610298Y-140150743D01*
X123675000Y-139994538D01*
X123675000Y-139091250D01*
X123568750Y-138985000D01*
X122325000Y-138985000D01*
X122325000Y-139005000D01*
X122275000Y-139005000D01*
X122275000Y-138985000D01*
X121031250Y-138985000D01*
X120925000Y-139091250D01*
X120925000Y-139994538D01*
X120989702Y-140150743D01*
X121109257Y-140270298D01*
X121265462Y-140335000D01*
X121520793Y-140335000D01*
X121135011Y-140720108D01*
X120925239Y-141225296D01*
X120924762Y-141772305D01*
X76125000Y-141772305D01*
X76125000Y-139375000D01*
X76368750Y-139375000D01*
X76475000Y-139268750D01*
X76475000Y-138025000D01*
X76525000Y-138025000D01*
X76525000Y-139268750D01*
X76631250Y-139375000D01*
X77534538Y-139375000D01*
X77690743Y-139310298D01*
X77810298Y-139190743D01*
X77875000Y-139034538D01*
X77875000Y-138131250D01*
X77768750Y-138025000D01*
X76525000Y-138025000D01*
X76475000Y-138025000D01*
X76455000Y-138025000D01*
X76455000Y-137975000D01*
X76475000Y-137975000D01*
X76475000Y-136731250D01*
X76525000Y-136731250D01*
X76525000Y-137975000D01*
X77768750Y-137975000D01*
X77875000Y-137868750D01*
X77875000Y-136965462D01*
X77810298Y-136809257D01*
X77690743Y-136689702D01*
X77534538Y-136625000D01*
X76631250Y-136625000D01*
X76525000Y-136731250D01*
X76475000Y-136731250D01*
X76368750Y-136625000D01*
X76125000Y-136625000D01*
X76125000Y-132031250D01*
X80485000Y-132031250D01*
X80485000Y-132934538D01*
X80549702Y-133090743D01*
X80669257Y-133210298D01*
X80825462Y-133275000D01*
X81728750Y-133275000D01*
X81835000Y-133168750D01*
X81835000Y-131925000D01*
X80591250Y-131925000D01*
X80485000Y-132031250D01*
X76125000Y-132031250D01*
X76125000Y-130865462D01*
X80485000Y-130865462D01*
X80485000Y-131768750D01*
X80591250Y-131875000D01*
X81835000Y-131875000D01*
X81835000Y-130631250D01*
X81885000Y-130631250D01*
X81885000Y-131875000D01*
X81905000Y-131875000D01*
X81905000Y-131925000D01*
X81885000Y-131925000D01*
X81885000Y-133168750D01*
X81991250Y-133275000D01*
X82894538Y-133275000D01*
X83050743Y-133210298D01*
X83170298Y-133090743D01*
X83235000Y-132934538D01*
X83235000Y-132679207D01*
X83620108Y-133064989D01*
X84125296Y-133274761D01*
X84672305Y-133275238D01*
X85177857Y-133066348D01*
X85564989Y-132679892D01*
X85669999Y-132426999D01*
X85773652Y-132677857D01*
X86160108Y-133064989D01*
X86665296Y-133274761D01*
X87212305Y-133275238D01*
X87417345Y-133190517D01*
X87725001Y-133498173D01*
X87725001Y-137408288D01*
X87601008Y-137532065D01*
X87475144Y-137835177D01*
X87474858Y-138163383D01*
X87600192Y-138466715D01*
X87832066Y-138698993D01*
X88135178Y-138824857D01*
X88463384Y-138825143D01*
X88766716Y-138699809D01*
X88891742Y-138575000D01*
X89158289Y-138575000D01*
X89282066Y-138698993D01*
X89585178Y-138824857D01*
X89913384Y-138825143D01*
X90216716Y-138699809D01*
X90448994Y-138467935D01*
X90574858Y-138164823D01*
X90575144Y-137836617D01*
X90449810Y-137533285D01*
X90217936Y-137301007D01*
X89914824Y-137175143D01*
X89586618Y-137174857D01*
X89283286Y-137300191D01*
X89158260Y-137425000D01*
X88891713Y-137425000D01*
X88875001Y-137408259D01*
X88875001Y-136363383D01*
X95874857Y-136363383D01*
X96000191Y-136666715D01*
X96125000Y-136791741D01*
X96125000Y-137908288D01*
X96001007Y-138032065D01*
X95875143Y-138335177D01*
X95874857Y-138663383D01*
X96000191Y-138966715D01*
X96232065Y-139198993D01*
X96535177Y-139324857D01*
X96863383Y-139325143D01*
X97166715Y-139199809D01*
X97398993Y-138967935D01*
X97524857Y-138664823D01*
X97525143Y-138336617D01*
X97399809Y-138033285D01*
X97292174Y-137925462D01*
X120925000Y-137925462D01*
X120925000Y-138828750D01*
X121031250Y-138935000D01*
X122275000Y-138935000D01*
X122275000Y-137691250D01*
X122325000Y-137691250D01*
X122325000Y-138935000D01*
X123568750Y-138935000D01*
X123675000Y-138828750D01*
X123675000Y-137925462D01*
X123610298Y-137769257D01*
X123490743Y-137649702D01*
X123334538Y-137585000D01*
X122431250Y-137585000D01*
X122325000Y-137691250D01*
X122275000Y-137691250D01*
X122168750Y-137585000D01*
X121265462Y-137585000D01*
X121109257Y-137649702D01*
X120989702Y-137769257D01*
X120925000Y-137925462D01*
X97292174Y-137925462D01*
X97275000Y-137908259D01*
X97275000Y-136791712D01*
X97398993Y-136667935D01*
X97524857Y-136364823D01*
X97525143Y-136036617D01*
X97399809Y-135733285D01*
X97167935Y-135501007D01*
X96864823Y-135375143D01*
X96536617Y-135374857D01*
X96233285Y-135500191D01*
X96001007Y-135732065D01*
X95875143Y-136035177D01*
X95874857Y-136363383D01*
X88875001Y-136363383D01*
X88875001Y-133260001D01*
X88831232Y-133039958D01*
X88706587Y-132853415D01*
X88230588Y-132377416D01*
X88314761Y-132174704D01*
X88315238Y-131627695D01*
X88106348Y-131122143D01*
X87719892Y-130735011D01*
X87214704Y-130525239D01*
X86667695Y-130524762D01*
X86162143Y-130733652D01*
X85775011Y-131120108D01*
X85670001Y-131373001D01*
X85566348Y-131122143D01*
X85179892Y-130735011D01*
X84674704Y-130525239D01*
X84127695Y-130524762D01*
X83622143Y-130733652D01*
X83235011Y-131120108D01*
X83235000Y-131120134D01*
X83235000Y-130865462D01*
X83170298Y-130709257D01*
X83050743Y-130589702D01*
X82894538Y-130525000D01*
X81991250Y-130525000D01*
X81885000Y-130631250D01*
X81835000Y-130631250D01*
X81728750Y-130525000D01*
X80825462Y-130525000D01*
X80669257Y-130589702D01*
X80549702Y-130709257D01*
X80485000Y-130865462D01*
X76125000Y-130865462D01*
X76125000Y-128931250D01*
X80485000Y-128931250D01*
X80485000Y-129834538D01*
X80549702Y-129990743D01*
X80669257Y-130110298D01*
X80825462Y-130175000D01*
X81728750Y-130175000D01*
X81835000Y-130068750D01*
X81835000Y-128825000D01*
X80591250Y-128825000D01*
X80485000Y-128931250D01*
X76125000Y-128931250D01*
X76125000Y-127765462D01*
X80485000Y-127765462D01*
X80485000Y-128668750D01*
X80591250Y-128775000D01*
X81835000Y-128775000D01*
X81835000Y-127531250D01*
X81885000Y-127531250D01*
X81885000Y-128775000D01*
X81905000Y-128775000D01*
X81905000Y-128825000D01*
X81885000Y-128825000D01*
X81885000Y-130068750D01*
X81991250Y-130175000D01*
X82894538Y-130175000D01*
X83050743Y-130110298D01*
X83170298Y-129990743D01*
X83235000Y-129834538D01*
X83235000Y-129579207D01*
X83620108Y-129964989D01*
X84125296Y-130174761D01*
X84672305Y-130175238D01*
X85177857Y-129966348D01*
X85564989Y-129579892D01*
X85669999Y-129326999D01*
X85773652Y-129577857D01*
X86160108Y-129964989D01*
X86665296Y-130174761D01*
X87212305Y-130175238D01*
X87717857Y-129966348D01*
X88104989Y-129579892D01*
X88314761Y-129074704D01*
X88315238Y-128527695D01*
X88106348Y-128022143D01*
X87719892Y-127635011D01*
X87214704Y-127425239D01*
X86667695Y-127424762D01*
X86162143Y-127633652D01*
X85775011Y-128020108D01*
X85670001Y-128273001D01*
X85566348Y-128022143D01*
X85179892Y-127635011D01*
X84674704Y-127425239D01*
X84127695Y-127424762D01*
X83622143Y-127633652D01*
X83235011Y-128020108D01*
X83235000Y-128020134D01*
X83235000Y-127765462D01*
X83170298Y-127609257D01*
X83050743Y-127489702D01*
X82894538Y-127425000D01*
X81991250Y-127425000D01*
X81885000Y-127531250D01*
X81835000Y-127531250D01*
X81728750Y-127425000D01*
X80825462Y-127425000D01*
X80669257Y-127489702D01*
X80549702Y-127609257D01*
X80485000Y-127765462D01*
X76125000Y-127765462D01*
X76125000Y-121572305D01*
X92724762Y-121572305D01*
X92933652Y-122077857D01*
X93320108Y-122464989D01*
X93573001Y-122569999D01*
X93322143Y-122673652D01*
X92935011Y-123060108D01*
X92725239Y-123565296D01*
X92724762Y-124112305D01*
X92933652Y-124617857D01*
X93320108Y-125004989D01*
X93825296Y-125214761D01*
X94372305Y-125215238D01*
X94877857Y-125006348D01*
X95264989Y-124619892D01*
X95474761Y-124114704D01*
X95475238Y-123567695D01*
X95266348Y-123062143D01*
X94879892Y-122675011D01*
X94626999Y-122570001D01*
X94877857Y-122466348D01*
X95264989Y-122079892D01*
X95474761Y-121574704D01*
X95475238Y-121027695D01*
X95266348Y-120522143D01*
X94879892Y-120135011D01*
X94879866Y-120135000D01*
X95134538Y-120135000D01*
X95290743Y-120070298D01*
X95410298Y-119950743D01*
X95475000Y-119794538D01*
X95475000Y-118891250D01*
X95368750Y-118785000D01*
X94125000Y-118785000D01*
X94125000Y-118805000D01*
X94075000Y-118805000D01*
X94075000Y-118785000D01*
X92831250Y-118785000D01*
X92725000Y-118891250D01*
X92725000Y-119794538D01*
X92789702Y-119950743D01*
X92909257Y-120070298D01*
X93065462Y-120135000D01*
X93320793Y-120135000D01*
X92935011Y-120520108D01*
X92725239Y-121025296D01*
X92724762Y-121572305D01*
X76125000Y-121572305D01*
X76125000Y-117725462D01*
X92725000Y-117725462D01*
X92725000Y-118628750D01*
X92831250Y-118735000D01*
X94075000Y-118735000D01*
X94075000Y-117491250D01*
X94125000Y-117491250D01*
X94125000Y-118735000D01*
X95368750Y-118735000D01*
X95475000Y-118628750D01*
X95475000Y-117725462D01*
X95410298Y-117569257D01*
X95290743Y-117449702D01*
X95134538Y-117385000D01*
X94231250Y-117385000D01*
X94125000Y-117491250D01*
X94075000Y-117491250D01*
X93968750Y-117385000D01*
X93065462Y-117385000D01*
X92909257Y-117449702D01*
X92789702Y-117569257D01*
X92725000Y-117725462D01*
X76125000Y-117725462D01*
X76125000Y-115202378D01*
X77332977Y-115202378D01*
X77506730Y-115484927D01*
X78242356Y-115813314D01*
X79047654Y-115835193D01*
X79800025Y-115547231D01*
X79893270Y-115484927D01*
X80067023Y-115202378D01*
X83932977Y-115202378D01*
X84106730Y-115484927D01*
X84842356Y-115813314D01*
X85647654Y-115835193D01*
X86400025Y-115547231D01*
X86493270Y-115484927D01*
X86667023Y-115202378D01*
X95332977Y-115202378D01*
X95506730Y-115484927D01*
X96242356Y-115813314D01*
X97047654Y-115835193D01*
X97800025Y-115547231D01*
X97893270Y-115484927D01*
X98067023Y-115202378D01*
X101932977Y-115202378D01*
X102106730Y-115484927D01*
X102842356Y-115813314D01*
X103647654Y-115835193D01*
X104400025Y-115547231D01*
X104493270Y-115484927D01*
X104667023Y-115202378D01*
X113332977Y-115202378D01*
X113506730Y-115484927D01*
X114242356Y-115813314D01*
X115047654Y-115835193D01*
X115800025Y-115547231D01*
X115893270Y-115484927D01*
X116067023Y-115202378D01*
X119932977Y-115202378D01*
X120106730Y-115484927D01*
X120842356Y-115813314D01*
X121647654Y-115835193D01*
X122400025Y-115547231D01*
X122493270Y-115484927D01*
X122667023Y-115202378D01*
X121300000Y-113835355D01*
X119932977Y-115202378D01*
X116067023Y-115202378D01*
X114700000Y-113835355D01*
X113332977Y-115202378D01*
X104667023Y-115202378D01*
X103300000Y-113835355D01*
X101932977Y-115202378D01*
X98067023Y-115202378D01*
X96700000Y-113835355D01*
X95332977Y-115202378D01*
X86667023Y-115202378D01*
X85300000Y-113835355D01*
X83932977Y-115202378D01*
X80067023Y-115202378D01*
X78700000Y-113835355D01*
X77332977Y-115202378D01*
X76125000Y-115202378D01*
X76125000Y-114147654D01*
X76664807Y-114147654D01*
X76952769Y-114900025D01*
X77015073Y-114993270D01*
X77297622Y-115167023D01*
X78664645Y-113800000D01*
X78735355Y-113800000D01*
X80102378Y-115167023D01*
X80384927Y-114993270D01*
X80713314Y-114257644D01*
X80716302Y-114147654D01*
X83264807Y-114147654D01*
X83552769Y-114900025D01*
X83615073Y-114993270D01*
X83897622Y-115167023D01*
X85264645Y-113800000D01*
X85335355Y-113800000D01*
X86702378Y-115167023D01*
X86984927Y-114993270D01*
X87313314Y-114257644D01*
X87316302Y-114147654D01*
X94664807Y-114147654D01*
X94952769Y-114900025D01*
X95015073Y-114993270D01*
X95297622Y-115167023D01*
X96664645Y-113800000D01*
X96735355Y-113800000D01*
X98102378Y-115167023D01*
X98384927Y-114993270D01*
X98713314Y-114257644D01*
X98716302Y-114147654D01*
X101264807Y-114147654D01*
X101552769Y-114900025D01*
X101615073Y-114993270D01*
X101897622Y-115167023D01*
X103264645Y-113800000D01*
X103335355Y-113800000D01*
X104702378Y-115167023D01*
X104984927Y-114993270D01*
X105313314Y-114257644D01*
X105316302Y-114147654D01*
X112664807Y-114147654D01*
X112952769Y-114900025D01*
X113015073Y-114993270D01*
X113297622Y-115167023D01*
X114664645Y-113800000D01*
X114735355Y-113800000D01*
X116102378Y-115167023D01*
X116384927Y-114993270D01*
X116713314Y-114257644D01*
X116716302Y-114147654D01*
X119264807Y-114147654D01*
X119552769Y-114900025D01*
X119615073Y-114993270D01*
X119897622Y-115167023D01*
X121264645Y-113800000D01*
X121335355Y-113800000D01*
X122702378Y-115167023D01*
X122984927Y-114993270D01*
X123313314Y-114257644D01*
X123335193Y-113452346D01*
X123047231Y-112699975D01*
X122984927Y-112606730D01*
X122702378Y-112432977D01*
X121335355Y-113800000D01*
X121264645Y-113800000D01*
X119897622Y-112432977D01*
X119615073Y-112606730D01*
X119286686Y-113342356D01*
X119264807Y-114147654D01*
X116716302Y-114147654D01*
X116735193Y-113452346D01*
X116447231Y-112699975D01*
X116384927Y-112606730D01*
X116102378Y-112432977D01*
X114735355Y-113800000D01*
X114664645Y-113800000D01*
X113297622Y-112432977D01*
X113015073Y-112606730D01*
X112686686Y-113342356D01*
X112664807Y-114147654D01*
X105316302Y-114147654D01*
X105335193Y-113452346D01*
X105047231Y-112699975D01*
X104984927Y-112606730D01*
X104702378Y-112432977D01*
X103335355Y-113800000D01*
X103264645Y-113800000D01*
X101897622Y-112432977D01*
X101615073Y-112606730D01*
X101286686Y-113342356D01*
X101264807Y-114147654D01*
X98716302Y-114147654D01*
X98735193Y-113452346D01*
X98447231Y-112699975D01*
X98384927Y-112606730D01*
X98102378Y-112432977D01*
X96735355Y-113800000D01*
X96664645Y-113800000D01*
X95297622Y-112432977D01*
X95015073Y-112606730D01*
X94686686Y-113342356D01*
X94664807Y-114147654D01*
X87316302Y-114147654D01*
X87335193Y-113452346D01*
X87047231Y-112699975D01*
X86984927Y-112606730D01*
X86702378Y-112432977D01*
X85335355Y-113800000D01*
X85264645Y-113800000D01*
X83897622Y-112432977D01*
X83615073Y-112606730D01*
X83286686Y-113342356D01*
X83264807Y-114147654D01*
X80716302Y-114147654D01*
X80735193Y-113452346D01*
X80447231Y-112699975D01*
X80384927Y-112606730D01*
X80102378Y-112432977D01*
X78735355Y-113800000D01*
X78664645Y-113800000D01*
X77297622Y-112432977D01*
X77015073Y-112606730D01*
X76686686Y-113342356D01*
X76664807Y-114147654D01*
X76125000Y-114147654D01*
X76125000Y-112397622D01*
X77332977Y-112397622D01*
X78700000Y-113764645D01*
X80067023Y-112397622D01*
X83932977Y-112397622D01*
X85300000Y-113764645D01*
X86667023Y-112397622D01*
X95332977Y-112397622D01*
X96700000Y-113764645D01*
X98067023Y-112397622D01*
X101932977Y-112397622D01*
X103300000Y-113764645D01*
X104667023Y-112397622D01*
X113332977Y-112397622D01*
X114700000Y-113764645D01*
X116067023Y-112397622D01*
X119932977Y-112397622D01*
X121300000Y-113764645D01*
X122667023Y-112397622D01*
X122493270Y-112115073D01*
X121757644Y-111786686D01*
X120952346Y-111764807D01*
X120199975Y-112052769D01*
X120106730Y-112115073D01*
X119932977Y-112397622D01*
X116067023Y-112397622D01*
X115893270Y-112115073D01*
X115157644Y-111786686D01*
X114352346Y-111764807D01*
X113599975Y-112052769D01*
X113506730Y-112115073D01*
X113332977Y-112397622D01*
X104667023Y-112397622D01*
X104493270Y-112115073D01*
X103757644Y-111786686D01*
X102952346Y-111764807D01*
X102199975Y-112052769D01*
X102106730Y-112115073D01*
X101932977Y-112397622D01*
X98067023Y-112397622D01*
X97893270Y-112115073D01*
X97157644Y-111786686D01*
X96352346Y-111764807D01*
X95599975Y-112052769D01*
X95506730Y-112115073D01*
X95332977Y-112397622D01*
X86667023Y-112397622D01*
X86493270Y-112115073D01*
X85757644Y-111786686D01*
X84952346Y-111764807D01*
X84199975Y-112052769D01*
X84106730Y-112115073D01*
X83932977Y-112397622D01*
X80067023Y-112397622D01*
X79893270Y-112115073D01*
X79157644Y-111786686D01*
X78352346Y-111764807D01*
X77599975Y-112052769D01*
X77506730Y-112115073D01*
X77332977Y-112397622D01*
X76125000Y-112397622D01*
X76125000Y-110782206D01*
X80574754Y-110782206D01*
X80791240Y-111306143D01*
X81191749Y-111707351D01*
X81715307Y-111924752D01*
X82282206Y-111925246D01*
X82806143Y-111708760D01*
X83207351Y-111308251D01*
X83424752Y-110784693D01*
X83424754Y-110782206D01*
X98574754Y-110782206D01*
X98791240Y-111306143D01*
X99191749Y-111707351D01*
X99715307Y-111924752D01*
X100282206Y-111925246D01*
X100806143Y-111708760D01*
X101207351Y-111308251D01*
X101424752Y-110784693D01*
X101424754Y-110782206D01*
X116574754Y-110782206D01*
X116791240Y-111306143D01*
X117191749Y-111707351D01*
X117715307Y-111924752D01*
X118282206Y-111925246D01*
X118806143Y-111708760D01*
X119207351Y-111308251D01*
X119424752Y-110784693D01*
X119425246Y-110217794D01*
X119208760Y-109693857D01*
X118808251Y-109292649D01*
X118284693Y-109075248D01*
X117717794Y-109074754D01*
X117193857Y-109291240D01*
X116792649Y-109691749D01*
X116575248Y-110215307D01*
X116574754Y-110782206D01*
X101424754Y-110782206D01*
X101425246Y-110217794D01*
X101208760Y-109693857D01*
X100808251Y-109292649D01*
X100284693Y-109075248D01*
X99717794Y-109074754D01*
X99193857Y-109291240D01*
X98792649Y-109691749D01*
X98575248Y-110215307D01*
X98574754Y-110782206D01*
X83424754Y-110782206D01*
X83425246Y-110217794D01*
X83208760Y-109693857D01*
X82808251Y-109292649D01*
X82284693Y-109075248D01*
X81717794Y-109074754D01*
X81193857Y-109291240D01*
X80792649Y-109691749D01*
X80575248Y-110215307D01*
X80574754Y-110782206D01*
X76125000Y-110782206D01*
X76125000Y-108602378D01*
X77332977Y-108602378D01*
X77506730Y-108884927D01*
X78242356Y-109213314D01*
X79047654Y-109235193D01*
X79800025Y-108947231D01*
X79893270Y-108884927D01*
X80067023Y-108602378D01*
X83932977Y-108602378D01*
X84106730Y-108884927D01*
X84842356Y-109213314D01*
X85647654Y-109235193D01*
X86400025Y-108947231D01*
X86493270Y-108884927D01*
X86667023Y-108602378D01*
X95332977Y-108602378D01*
X95506730Y-108884927D01*
X96242356Y-109213314D01*
X97047654Y-109235193D01*
X97800025Y-108947231D01*
X97893270Y-108884927D01*
X98067023Y-108602378D01*
X101932977Y-108602378D01*
X102106730Y-108884927D01*
X102842356Y-109213314D01*
X103647654Y-109235193D01*
X104400025Y-108947231D01*
X104493270Y-108884927D01*
X104667023Y-108602378D01*
X113332977Y-108602378D01*
X113506730Y-108884927D01*
X114242356Y-109213314D01*
X115047654Y-109235193D01*
X115800025Y-108947231D01*
X115893270Y-108884927D01*
X116067023Y-108602378D01*
X119932977Y-108602378D01*
X120106730Y-108884927D01*
X120842356Y-109213314D01*
X121647654Y-109235193D01*
X122400025Y-108947231D01*
X122493270Y-108884927D01*
X122667023Y-108602378D01*
X121300000Y-107235355D01*
X119932977Y-108602378D01*
X116067023Y-108602378D01*
X114700000Y-107235355D01*
X113332977Y-108602378D01*
X104667023Y-108602378D01*
X103300000Y-107235355D01*
X101932977Y-108602378D01*
X98067023Y-108602378D01*
X96700000Y-107235355D01*
X95332977Y-108602378D01*
X86667023Y-108602378D01*
X85300000Y-107235355D01*
X83932977Y-108602378D01*
X80067023Y-108602378D01*
X78700000Y-107235355D01*
X77332977Y-108602378D01*
X76125000Y-108602378D01*
X76125000Y-107547654D01*
X76664807Y-107547654D01*
X76952769Y-108300025D01*
X77015073Y-108393270D01*
X77297622Y-108567023D01*
X78664645Y-107200000D01*
X78735355Y-107200000D01*
X80102378Y-108567023D01*
X80384927Y-108393270D01*
X80713314Y-107657644D01*
X80716302Y-107547654D01*
X83264807Y-107547654D01*
X83552769Y-108300025D01*
X83615073Y-108393270D01*
X83897622Y-108567023D01*
X85264645Y-107200000D01*
X85335355Y-107200000D01*
X86702378Y-108567023D01*
X86984927Y-108393270D01*
X87313314Y-107657644D01*
X87316302Y-107547654D01*
X94664807Y-107547654D01*
X94952769Y-108300025D01*
X95015073Y-108393270D01*
X95297622Y-108567023D01*
X96664645Y-107200000D01*
X96735355Y-107200000D01*
X98102378Y-108567023D01*
X98384927Y-108393270D01*
X98713314Y-107657644D01*
X98716302Y-107547654D01*
X101264807Y-107547654D01*
X101552769Y-108300025D01*
X101615073Y-108393270D01*
X101897622Y-108567023D01*
X103264645Y-107200000D01*
X103335355Y-107200000D01*
X104702378Y-108567023D01*
X104984927Y-108393270D01*
X105313314Y-107657644D01*
X105316302Y-107547654D01*
X112664807Y-107547654D01*
X112952769Y-108300025D01*
X113015073Y-108393270D01*
X113297622Y-108567023D01*
X114664645Y-107200000D01*
X114735355Y-107200000D01*
X116102378Y-108567023D01*
X116384927Y-108393270D01*
X116713314Y-107657644D01*
X116716302Y-107547654D01*
X119264807Y-107547654D01*
X119552769Y-108300025D01*
X119615073Y-108393270D01*
X119897622Y-108567023D01*
X121264645Y-107200000D01*
X121335355Y-107200000D01*
X122702378Y-108567023D01*
X122984927Y-108393270D01*
X123313314Y-107657644D01*
X123335193Y-106852346D01*
X123047231Y-106099975D01*
X122984927Y-106006730D01*
X122702378Y-105832977D01*
X121335355Y-107200000D01*
X121264645Y-107200000D01*
X119897622Y-105832977D01*
X119615073Y-106006730D01*
X119286686Y-106742356D01*
X119264807Y-107547654D01*
X116716302Y-107547654D01*
X116735193Y-106852346D01*
X116447231Y-106099975D01*
X116384927Y-106006730D01*
X116102378Y-105832977D01*
X114735355Y-107200000D01*
X114664645Y-107200000D01*
X113297622Y-105832977D01*
X113015073Y-106006730D01*
X112686686Y-106742356D01*
X112664807Y-107547654D01*
X105316302Y-107547654D01*
X105335193Y-106852346D01*
X105047231Y-106099975D01*
X104984927Y-106006730D01*
X104702378Y-105832977D01*
X103335355Y-107200000D01*
X103264645Y-107200000D01*
X101897622Y-105832977D01*
X101615073Y-106006730D01*
X101286686Y-106742356D01*
X101264807Y-107547654D01*
X98716302Y-107547654D01*
X98735193Y-106852346D01*
X98447231Y-106099975D01*
X98384927Y-106006730D01*
X98102378Y-105832977D01*
X96735355Y-107200000D01*
X96664645Y-107200000D01*
X95297622Y-105832977D01*
X95015073Y-106006730D01*
X94686686Y-106742356D01*
X94664807Y-107547654D01*
X87316302Y-107547654D01*
X87335193Y-106852346D01*
X87047231Y-106099975D01*
X86984927Y-106006730D01*
X86702378Y-105832977D01*
X85335355Y-107200000D01*
X85264645Y-107200000D01*
X83897622Y-105832977D01*
X83615073Y-106006730D01*
X83286686Y-106742356D01*
X83264807Y-107547654D01*
X80716302Y-107547654D01*
X80735193Y-106852346D01*
X80447231Y-106099975D01*
X80384927Y-106006730D01*
X80102378Y-105832977D01*
X78735355Y-107200000D01*
X78664645Y-107200000D01*
X77297622Y-105832977D01*
X77015073Y-106006730D01*
X76686686Y-106742356D01*
X76664807Y-107547654D01*
X76125000Y-107547654D01*
X76125000Y-105797622D01*
X77332977Y-105797622D01*
X78700000Y-107164645D01*
X80067023Y-105797622D01*
X83932977Y-105797622D01*
X85300000Y-107164645D01*
X86667023Y-105797622D01*
X95332977Y-105797622D01*
X96700000Y-107164645D01*
X98067023Y-105797622D01*
X101932977Y-105797622D01*
X103300000Y-107164645D01*
X104667023Y-105797622D01*
X113332977Y-105797622D01*
X114700000Y-107164645D01*
X116067023Y-105797622D01*
X119932977Y-105797622D01*
X121300000Y-107164645D01*
X122667023Y-105797622D01*
X122493270Y-105515073D01*
X121757644Y-105186686D01*
X120952346Y-105164807D01*
X120199975Y-105452769D01*
X120106730Y-105515073D01*
X119932977Y-105797622D01*
X116067023Y-105797622D01*
X115893270Y-105515073D01*
X115157644Y-105186686D01*
X114352346Y-105164807D01*
X113599975Y-105452769D01*
X113506730Y-105515073D01*
X113332977Y-105797622D01*
X104667023Y-105797622D01*
X104493270Y-105515073D01*
X103757644Y-105186686D01*
X102952346Y-105164807D01*
X102199975Y-105452769D01*
X102106730Y-105515073D01*
X101932977Y-105797622D01*
X98067023Y-105797622D01*
X97893270Y-105515073D01*
X97157644Y-105186686D01*
X96352346Y-105164807D01*
X95599975Y-105452769D01*
X95506730Y-105515073D01*
X95332977Y-105797622D01*
X86667023Y-105797622D01*
X86493270Y-105515073D01*
X85757644Y-105186686D01*
X84952346Y-105164807D01*
X84199975Y-105452769D01*
X84106730Y-105515073D01*
X83932977Y-105797622D01*
X80067023Y-105797622D01*
X79893270Y-105515073D01*
X79157644Y-105186686D01*
X78352346Y-105164807D01*
X77599975Y-105452769D01*
X77506730Y-105515073D01*
X77332977Y-105797622D01*
X76125000Y-105797622D01*
X76125000Y-104125000D01*
X123875000Y-104125000D01*
X123875000Y-147354777D01*
X123875000Y-147354777D01*
G37*
X123875000Y-147354777D02*
X123857695Y-147354762D01*
X123352143Y-147563652D01*
X122965011Y-147950108D01*
X122860001Y-148203001D01*
X122756348Y-147952143D01*
X122369892Y-147565011D01*
X121864704Y-147355239D01*
X121317695Y-147354762D01*
X120812143Y-147563652D01*
X120425011Y-147950108D01*
X120320001Y-148203001D01*
X120216348Y-147952143D01*
X119829892Y-147565011D01*
X119324704Y-147355239D01*
X118777695Y-147354762D01*
X118272143Y-147563652D01*
X117885011Y-147950108D01*
X117780001Y-148203001D01*
X117676348Y-147952143D01*
X117289892Y-147565011D01*
X116784704Y-147355239D01*
X116237695Y-147354762D01*
X115732143Y-147563652D01*
X115345011Y-147950108D01*
X115240001Y-148203001D01*
X115136348Y-147952143D01*
X114749892Y-147565011D01*
X114244704Y-147355239D01*
X113697695Y-147354762D01*
X113192143Y-147563652D01*
X112805011Y-147950108D01*
X112700186Y-148202556D01*
X112612097Y-147976290D01*
X112578706Y-147926318D01*
X112363697Y-147831658D01*
X111465355Y-148730000D01*
X111479498Y-148744143D01*
X111444143Y-148779498D01*
X111430000Y-148765355D01*
X111415858Y-148779498D01*
X111380503Y-148744143D01*
X111394645Y-148730000D01*
X110496303Y-147831658D01*
X110281294Y-147926318D01*
X110159843Y-148202620D01*
X110056348Y-147952143D01*
X109900781Y-147796303D01*
X110531658Y-147796303D01*
X111430000Y-148694645D01*
X112328342Y-147796303D01*
X112233682Y-147581294D01*
X111732915Y-147361178D01*
X111186031Y-147349453D01*
X110676290Y-147547903D01*
X110626318Y-147581294D01*
X110531658Y-147796303D01*
X109900781Y-147796303D01*
X109669892Y-147565011D01*
X109164704Y-147355239D01*
X108617695Y-147354762D01*
X108112143Y-147563652D01*
X107725011Y-147950108D01*
X107620001Y-148203001D01*
X107516348Y-147952143D01*
X107129892Y-147565011D01*
X106624704Y-147355239D01*
X106077695Y-147354762D01*
X105572143Y-147563652D01*
X105185011Y-147950108D01*
X105080001Y-148203001D01*
X104976348Y-147952143D01*
X104589892Y-147565011D01*
X104084704Y-147355239D01*
X103537695Y-147354762D01*
X103452497Y-147389965D01*
X103817533Y-147024929D01*
X104063383Y-147025143D01*
X104366715Y-146899809D01*
X104598993Y-146667935D01*
X104724857Y-146364823D01*
X104725143Y-146036617D01*
X104599809Y-145733285D01*
X104367935Y-145501007D01*
X104064823Y-145375143D01*
X103736617Y-145374857D01*
X103433285Y-145500191D01*
X103201007Y-145732065D01*
X103075143Y-146035177D01*
X103074927Y-146282611D01*
X102188768Y-147168770D01*
X102074962Y-147339092D01*
X102034999Y-147540001D01*
X102034999Y-147558827D01*
X101544704Y-147355239D01*
X100997695Y-147354762D01*
X100492143Y-147563652D01*
X100105011Y-147950108D01*
X100000001Y-148203001D01*
X99896348Y-147952143D01*
X99509892Y-147565011D01*
X99004704Y-147355239D01*
X98457695Y-147354762D01*
X97952143Y-147563652D01*
X97565011Y-147950108D01*
X97460001Y-148203001D01*
X97356348Y-147952143D01*
X96969892Y-147565011D01*
X96464704Y-147355239D01*
X95917695Y-147354762D01*
X95412143Y-147563652D01*
X95025011Y-147950108D01*
X94920001Y-148203001D01*
X94816348Y-147952143D01*
X94429892Y-147565011D01*
X93924704Y-147355239D01*
X93377695Y-147354762D01*
X92872143Y-147563652D01*
X92485011Y-147950108D01*
X92380001Y-148203001D01*
X92276348Y-147952143D01*
X91889892Y-147565011D01*
X91384704Y-147355239D01*
X90837695Y-147354762D01*
X90332143Y-147563652D01*
X89945011Y-147950108D01*
X89840186Y-148202556D01*
X89752097Y-147976290D01*
X89718706Y-147926318D01*
X89503697Y-147831658D01*
X88605355Y-148730000D01*
X88619498Y-148744143D01*
X88584143Y-148779498D01*
X88570000Y-148765355D01*
X88555858Y-148779498D01*
X88520503Y-148744143D01*
X88534645Y-148730000D01*
X87636303Y-147831658D01*
X87421294Y-147926318D01*
X87299843Y-148202620D01*
X87196348Y-147952143D01*
X87040781Y-147796303D01*
X87671658Y-147796303D01*
X88570000Y-148694645D01*
X89468342Y-147796303D01*
X89373682Y-147581294D01*
X88872915Y-147361178D01*
X88326031Y-147349453D01*
X87816290Y-147547903D01*
X87766318Y-147581294D01*
X87671658Y-147796303D01*
X87040781Y-147796303D01*
X86809892Y-147565011D01*
X86304704Y-147355239D01*
X85757695Y-147354762D01*
X85252143Y-147563652D01*
X84865011Y-147950108D01*
X84760001Y-148203001D01*
X84656348Y-147952143D01*
X84269892Y-147565011D01*
X83764704Y-147355239D01*
X83217695Y-147354762D01*
X82712143Y-147563652D01*
X82325011Y-147950108D01*
X82220001Y-148203001D01*
X82116348Y-147952143D01*
X81729892Y-147565011D01*
X81224704Y-147355239D01*
X80677695Y-147354762D01*
X80172143Y-147563652D01*
X79785011Y-147950108D01*
X79680001Y-148203001D01*
X79576348Y-147952143D01*
X79189892Y-147565011D01*
X78684704Y-147355239D01*
X78137695Y-147354762D01*
X77632143Y-147563652D01*
X77245011Y-147950108D01*
X77140001Y-148203001D01*
X77036348Y-147952143D01*
X76649892Y-147565011D01*
X76144704Y-147355239D01*
X76125000Y-147355222D01*
X76125000Y-141772305D01*
X120924762Y-141772305D01*
X121133652Y-142277857D01*
X121520108Y-142664989D01*
X121773001Y-142769999D01*
X121522143Y-142873652D01*
X121135011Y-143260108D01*
X120925239Y-143765296D01*
X120924762Y-144312305D01*
X121133652Y-144817857D01*
X121520108Y-145204989D01*
X122025296Y-145414761D01*
X122572305Y-145415238D01*
X123077857Y-145206348D01*
X123464989Y-144819892D01*
X123674761Y-144314704D01*
X123675238Y-143767695D01*
X123466348Y-143262143D01*
X123079892Y-142875011D01*
X122826999Y-142770001D01*
X123077857Y-142666348D01*
X123464989Y-142279892D01*
X123674761Y-141774704D01*
X123675238Y-141227695D01*
X123466348Y-140722143D01*
X123079892Y-140335011D01*
X123079866Y-140335000D01*
X123334538Y-140335000D01*
X123490743Y-140270298D01*
X123610298Y-140150743D01*
X123675000Y-139994538D01*
X123675000Y-139091250D01*
X123568750Y-138985000D01*
X122325000Y-138985000D01*
X122325000Y-139005000D01*
X122275000Y-139005000D01*
X122275000Y-138985000D01*
X121031250Y-138985000D01*
X120925000Y-139091250D01*
X120925000Y-139994538D01*
X120989702Y-140150743D01*
X121109257Y-140270298D01*
X121265462Y-140335000D01*
X121520793Y-140335000D01*
X121135011Y-140720108D01*
X120925239Y-141225296D01*
X120924762Y-141772305D01*
X76125000Y-141772305D01*
X76125000Y-139375000D01*
X76368750Y-139375000D01*
X76475000Y-139268750D01*
X76475000Y-138025000D01*
X76525000Y-138025000D01*
X76525000Y-139268750D01*
X76631250Y-139375000D01*
X77534538Y-139375000D01*
X77690743Y-139310298D01*
X77810298Y-139190743D01*
X77875000Y-139034538D01*
X77875000Y-138131250D01*
X77768750Y-138025000D01*
X76525000Y-138025000D01*
X76475000Y-138025000D01*
X76455000Y-138025000D01*
X76455000Y-137975000D01*
X76475000Y-137975000D01*
X76475000Y-136731250D01*
X76525000Y-136731250D01*
X76525000Y-137975000D01*
X77768750Y-137975000D01*
X77875000Y-137868750D01*
X77875000Y-136965462D01*
X77810298Y-136809257D01*
X77690743Y-136689702D01*
X77534538Y-136625000D01*
X76631250Y-136625000D01*
X76525000Y-136731250D01*
X76475000Y-136731250D01*
X76368750Y-136625000D01*
X76125000Y-136625000D01*
X76125000Y-132031250D01*
X80485000Y-132031250D01*
X80485000Y-132934538D01*
X80549702Y-133090743D01*
X80669257Y-133210298D01*
X80825462Y-133275000D01*
X81728750Y-133275000D01*
X81835000Y-133168750D01*
X81835000Y-131925000D01*
X80591250Y-131925000D01*
X80485000Y-132031250D01*
X76125000Y-132031250D01*
X76125000Y-130865462D01*
X80485000Y-130865462D01*
X80485000Y-131768750D01*
X80591250Y-131875000D01*
X81835000Y-131875000D01*
X81835000Y-130631250D01*
X81885000Y-130631250D01*
X81885000Y-131875000D01*
X81905000Y-131875000D01*
X81905000Y-131925000D01*
X81885000Y-131925000D01*
X81885000Y-133168750D01*
X81991250Y-133275000D01*
X82894538Y-133275000D01*
X83050743Y-133210298D01*
X83170298Y-133090743D01*
X83235000Y-132934538D01*
X83235000Y-132679207D01*
X83620108Y-133064989D01*
X84125296Y-133274761D01*
X84672305Y-133275238D01*
X85177857Y-133066348D01*
X85564989Y-132679892D01*
X85669999Y-132426999D01*
X85773652Y-132677857D01*
X86160108Y-133064989D01*
X86665296Y-133274761D01*
X87212305Y-133275238D01*
X87417345Y-133190517D01*
X87725001Y-133498173D01*
X87725001Y-137408288D01*
X87601008Y-137532065D01*
X87475144Y-137835177D01*
X87474858Y-138163383D01*
X87600192Y-138466715D01*
X87832066Y-138698993D01*
X88135178Y-138824857D01*
X88463384Y-138825143D01*
X88766716Y-138699809D01*
X88891742Y-138575000D01*
X89158289Y-138575000D01*
X89282066Y-138698993D01*
X89585178Y-138824857D01*
X89913384Y-138825143D01*
X90216716Y-138699809D01*
X90448994Y-138467935D01*
X90574858Y-138164823D01*
X90575144Y-137836617D01*
X90449810Y-137533285D01*
X90217936Y-137301007D01*
X89914824Y-137175143D01*
X89586618Y-137174857D01*
X89283286Y-137300191D01*
X89158260Y-137425000D01*
X88891713Y-137425000D01*
X88875001Y-137408259D01*
X88875001Y-136363383D01*
X95874857Y-136363383D01*
X96000191Y-136666715D01*
X96125000Y-136791741D01*
X96125000Y-137908288D01*
X96001007Y-138032065D01*
X95875143Y-138335177D01*
X95874857Y-138663383D01*
X96000191Y-138966715D01*
X96232065Y-139198993D01*
X96535177Y-139324857D01*
X96863383Y-139325143D01*
X97166715Y-139199809D01*
X97398993Y-138967935D01*
X97524857Y-138664823D01*
X97525143Y-138336617D01*
X97399809Y-138033285D01*
X97292174Y-137925462D01*
X120925000Y-137925462D01*
X120925000Y-138828750D01*
X121031250Y-138935000D01*
X122275000Y-138935000D01*
X122275000Y-137691250D01*
X122325000Y-137691250D01*
X122325000Y-138935000D01*
X123568750Y-138935000D01*
X123675000Y-138828750D01*
X123675000Y-137925462D01*
X123610298Y-137769257D01*
X123490743Y-137649702D01*
X123334538Y-137585000D01*
X122431250Y-137585000D01*
X122325000Y-137691250D01*
X122275000Y-137691250D01*
X122168750Y-137585000D01*
X121265462Y-137585000D01*
X121109257Y-137649702D01*
X120989702Y-137769257D01*
X120925000Y-137925462D01*
X97292174Y-137925462D01*
X97275000Y-137908259D01*
X97275000Y-136791712D01*
X97398993Y-136667935D01*
X97524857Y-136364823D01*
X97525143Y-136036617D01*
X97399809Y-135733285D01*
X97167935Y-135501007D01*
X96864823Y-135375143D01*
X96536617Y-135374857D01*
X96233285Y-135500191D01*
X96001007Y-135732065D01*
X95875143Y-136035177D01*
X95874857Y-136363383D01*
X88875001Y-136363383D01*
X88875001Y-133260001D01*
X88831232Y-133039958D01*
X88706587Y-132853415D01*
X88230588Y-132377416D01*
X88314761Y-132174704D01*
X88315238Y-131627695D01*
X88106348Y-131122143D01*
X87719892Y-130735011D01*
X87214704Y-130525239D01*
X86667695Y-130524762D01*
X86162143Y-130733652D01*
X85775011Y-131120108D01*
X85670001Y-131373001D01*
X85566348Y-131122143D01*
X85179892Y-130735011D01*
X84674704Y-130525239D01*
X84127695Y-130524762D01*
X83622143Y-130733652D01*
X83235011Y-131120108D01*
X83235000Y-131120134D01*
X83235000Y-130865462D01*
X83170298Y-130709257D01*
X83050743Y-130589702D01*
X82894538Y-130525000D01*
X81991250Y-130525000D01*
X81885000Y-130631250D01*
X81835000Y-130631250D01*
X81728750Y-130525000D01*
X80825462Y-130525000D01*
X80669257Y-130589702D01*
X80549702Y-130709257D01*
X80485000Y-130865462D01*
X76125000Y-130865462D01*
X76125000Y-128931250D01*
X80485000Y-128931250D01*
X80485000Y-129834538D01*
X80549702Y-129990743D01*
X80669257Y-130110298D01*
X80825462Y-130175000D01*
X81728750Y-130175000D01*
X81835000Y-130068750D01*
X81835000Y-128825000D01*
X80591250Y-128825000D01*
X80485000Y-128931250D01*
X76125000Y-128931250D01*
X76125000Y-127765462D01*
X80485000Y-127765462D01*
X80485000Y-128668750D01*
X80591250Y-128775000D01*
X81835000Y-128775000D01*
X81835000Y-127531250D01*
X81885000Y-127531250D01*
X81885000Y-128775000D01*
X81905000Y-128775000D01*
X81905000Y-128825000D01*
X81885000Y-128825000D01*
X81885000Y-130068750D01*
X81991250Y-130175000D01*
X82894538Y-130175000D01*
X83050743Y-130110298D01*
X83170298Y-129990743D01*
X83235000Y-129834538D01*
X83235000Y-129579207D01*
X83620108Y-129964989D01*
X84125296Y-130174761D01*
X84672305Y-130175238D01*
X85177857Y-129966348D01*
X85564989Y-129579892D01*
X85669999Y-129326999D01*
X85773652Y-129577857D01*
X86160108Y-129964989D01*
X86665296Y-130174761D01*
X87212305Y-130175238D01*
X87717857Y-129966348D01*
X88104989Y-129579892D01*
X88314761Y-129074704D01*
X88315238Y-128527695D01*
X88106348Y-128022143D01*
X87719892Y-127635011D01*
X87214704Y-127425239D01*
X86667695Y-127424762D01*
X86162143Y-127633652D01*
X85775011Y-128020108D01*
X85670001Y-128273001D01*
X85566348Y-128022143D01*
X85179892Y-127635011D01*
X84674704Y-127425239D01*
X84127695Y-127424762D01*
X83622143Y-127633652D01*
X83235011Y-128020108D01*
X83235000Y-128020134D01*
X83235000Y-127765462D01*
X83170298Y-127609257D01*
X83050743Y-127489702D01*
X82894538Y-127425000D01*
X81991250Y-127425000D01*
X81885000Y-127531250D01*
X81835000Y-127531250D01*
X81728750Y-127425000D01*
X80825462Y-127425000D01*
X80669257Y-127489702D01*
X80549702Y-127609257D01*
X80485000Y-127765462D01*
X76125000Y-127765462D01*
X76125000Y-121572305D01*
X92724762Y-121572305D01*
X92933652Y-122077857D01*
X93320108Y-122464989D01*
X93573001Y-122569999D01*
X93322143Y-122673652D01*
X92935011Y-123060108D01*
X92725239Y-123565296D01*
X92724762Y-124112305D01*
X92933652Y-124617857D01*
X93320108Y-125004989D01*
X93825296Y-125214761D01*
X94372305Y-125215238D01*
X94877857Y-125006348D01*
X95264989Y-124619892D01*
X95474761Y-124114704D01*
X95475238Y-123567695D01*
X95266348Y-123062143D01*
X94879892Y-122675011D01*
X94626999Y-122570001D01*
X94877857Y-122466348D01*
X95264989Y-122079892D01*
X95474761Y-121574704D01*
X95475238Y-121027695D01*
X95266348Y-120522143D01*
X94879892Y-120135011D01*
X94879866Y-120135000D01*
X95134538Y-120135000D01*
X95290743Y-120070298D01*
X95410298Y-119950743D01*
X95475000Y-119794538D01*
X95475000Y-118891250D01*
X95368750Y-118785000D01*
X94125000Y-118785000D01*
X94125000Y-118805000D01*
X94075000Y-118805000D01*
X94075000Y-118785000D01*
X92831250Y-118785000D01*
X92725000Y-118891250D01*
X92725000Y-119794538D01*
X92789702Y-119950743D01*
X92909257Y-120070298D01*
X93065462Y-120135000D01*
X93320793Y-120135000D01*
X92935011Y-120520108D01*
X92725239Y-121025296D01*
X92724762Y-121572305D01*
X76125000Y-121572305D01*
X76125000Y-117725462D01*
X92725000Y-117725462D01*
X92725000Y-118628750D01*
X92831250Y-118735000D01*
X94075000Y-118735000D01*
X94075000Y-117491250D01*
X94125000Y-117491250D01*
X94125000Y-118735000D01*
X95368750Y-118735000D01*
X95475000Y-118628750D01*
X95475000Y-117725462D01*
X95410298Y-117569257D01*
X95290743Y-117449702D01*
X95134538Y-117385000D01*
X94231250Y-117385000D01*
X94125000Y-117491250D01*
X94075000Y-117491250D01*
X93968750Y-117385000D01*
X93065462Y-117385000D01*
X92909257Y-117449702D01*
X92789702Y-117569257D01*
X92725000Y-117725462D01*
X76125000Y-117725462D01*
X76125000Y-115202378D01*
X77332977Y-115202378D01*
X77506730Y-115484927D01*
X78242356Y-115813314D01*
X79047654Y-115835193D01*
X79800025Y-115547231D01*
X79893270Y-115484927D01*
X80067023Y-115202378D01*
X83932977Y-115202378D01*
X84106730Y-115484927D01*
X84842356Y-115813314D01*
X85647654Y-115835193D01*
X86400025Y-115547231D01*
X86493270Y-115484927D01*
X86667023Y-115202378D01*
X95332977Y-115202378D01*
X95506730Y-115484927D01*
X96242356Y-115813314D01*
X97047654Y-115835193D01*
X97800025Y-115547231D01*
X97893270Y-115484927D01*
X98067023Y-115202378D01*
X101932977Y-115202378D01*
X102106730Y-115484927D01*
X102842356Y-115813314D01*
X103647654Y-115835193D01*
X104400025Y-115547231D01*
X104493270Y-115484927D01*
X104667023Y-115202378D01*
X113332977Y-115202378D01*
X113506730Y-115484927D01*
X114242356Y-115813314D01*
X115047654Y-115835193D01*
X115800025Y-115547231D01*
X115893270Y-115484927D01*
X116067023Y-115202378D01*
X119932977Y-115202378D01*
X120106730Y-115484927D01*
X120842356Y-115813314D01*
X121647654Y-115835193D01*
X122400025Y-115547231D01*
X122493270Y-115484927D01*
X122667023Y-115202378D01*
X121300000Y-113835355D01*
X119932977Y-115202378D01*
X116067023Y-115202378D01*
X114700000Y-113835355D01*
X113332977Y-115202378D01*
X104667023Y-115202378D01*
X103300000Y-113835355D01*
X101932977Y-115202378D01*
X98067023Y-115202378D01*
X96700000Y-113835355D01*
X95332977Y-115202378D01*
X86667023Y-115202378D01*
X85300000Y-113835355D01*
X83932977Y-115202378D01*
X80067023Y-115202378D01*
X78700000Y-113835355D01*
X77332977Y-115202378D01*
X76125000Y-115202378D01*
X76125000Y-114147654D01*
X76664807Y-114147654D01*
X76952769Y-114900025D01*
X77015073Y-114993270D01*
X77297622Y-115167023D01*
X78664645Y-113800000D01*
X78735355Y-113800000D01*
X80102378Y-115167023D01*
X80384927Y-114993270D01*
X80713314Y-114257644D01*
X80716302Y-114147654D01*
X83264807Y-114147654D01*
X83552769Y-114900025D01*
X83615073Y-114993270D01*
X83897622Y-115167023D01*
X85264645Y-113800000D01*
X85335355Y-113800000D01*
X86702378Y-115167023D01*
X86984927Y-114993270D01*
X87313314Y-114257644D01*
X87316302Y-114147654D01*
X94664807Y-114147654D01*
X94952769Y-114900025D01*
X95015073Y-114993270D01*
X95297622Y-115167023D01*
X96664645Y-113800000D01*
X96735355Y-113800000D01*
X98102378Y-115167023D01*
X98384927Y-114993270D01*
X98713314Y-114257644D01*
X98716302Y-114147654D01*
X101264807Y-114147654D01*
X101552769Y-114900025D01*
X101615073Y-114993270D01*
X101897622Y-115167023D01*
X103264645Y-113800000D01*
X103335355Y-113800000D01*
X104702378Y-115167023D01*
X104984927Y-114993270D01*
X105313314Y-114257644D01*
X105316302Y-114147654D01*
X112664807Y-114147654D01*
X112952769Y-114900025D01*
X113015073Y-114993270D01*
X113297622Y-115167023D01*
X114664645Y-113800000D01*
X114735355Y-113800000D01*
X116102378Y-115167023D01*
X116384927Y-114993270D01*
X116713314Y-114257644D01*
X116716302Y-114147654D01*
X119264807Y-114147654D01*
X119552769Y-114900025D01*
X119615073Y-114993270D01*
X119897622Y-115167023D01*
X121264645Y-113800000D01*
X121335355Y-113800000D01*
X122702378Y-115167023D01*
X122984927Y-114993270D01*
X123313314Y-114257644D01*
X123335193Y-113452346D01*
X123047231Y-112699975D01*
X122984927Y-112606730D01*
X122702378Y-112432977D01*
X121335355Y-113800000D01*
X121264645Y-113800000D01*
X119897622Y-112432977D01*
X119615073Y-112606730D01*
X119286686Y-113342356D01*
X119264807Y-114147654D01*
X116716302Y-114147654D01*
X116735193Y-113452346D01*
X116447231Y-112699975D01*
X116384927Y-112606730D01*
X116102378Y-112432977D01*
X114735355Y-113800000D01*
X114664645Y-113800000D01*
X113297622Y-112432977D01*
X113015073Y-112606730D01*
X112686686Y-113342356D01*
X112664807Y-114147654D01*
X105316302Y-114147654D01*
X105335193Y-113452346D01*
X105047231Y-112699975D01*
X104984927Y-112606730D01*
X104702378Y-112432977D01*
X103335355Y-113800000D01*
X103264645Y-113800000D01*
X101897622Y-112432977D01*
X101615073Y-112606730D01*
X101286686Y-113342356D01*
X101264807Y-114147654D01*
X98716302Y-114147654D01*
X98735193Y-113452346D01*
X98447231Y-112699975D01*
X98384927Y-112606730D01*
X98102378Y-112432977D01*
X96735355Y-113800000D01*
X96664645Y-113800000D01*
X95297622Y-112432977D01*
X95015073Y-112606730D01*
X94686686Y-113342356D01*
X94664807Y-114147654D01*
X87316302Y-114147654D01*
X87335193Y-113452346D01*
X87047231Y-112699975D01*
X86984927Y-112606730D01*
X86702378Y-112432977D01*
X85335355Y-113800000D01*
X85264645Y-113800000D01*
X83897622Y-112432977D01*
X83615073Y-112606730D01*
X83286686Y-113342356D01*
X83264807Y-114147654D01*
X80716302Y-114147654D01*
X80735193Y-113452346D01*
X80447231Y-112699975D01*
X80384927Y-112606730D01*
X80102378Y-112432977D01*
X78735355Y-113800000D01*
X78664645Y-113800000D01*
X77297622Y-112432977D01*
X77015073Y-112606730D01*
X76686686Y-113342356D01*
X76664807Y-114147654D01*
X76125000Y-114147654D01*
X76125000Y-112397622D01*
X77332977Y-112397622D01*
X78700000Y-113764645D01*
X80067023Y-112397622D01*
X83932977Y-112397622D01*
X85300000Y-113764645D01*
X86667023Y-112397622D01*
X95332977Y-112397622D01*
X96700000Y-113764645D01*
X98067023Y-112397622D01*
X101932977Y-112397622D01*
X103300000Y-113764645D01*
X104667023Y-112397622D01*
X113332977Y-112397622D01*
X114700000Y-113764645D01*
X116067023Y-112397622D01*
X119932977Y-112397622D01*
X121300000Y-113764645D01*
X122667023Y-112397622D01*
X122493270Y-112115073D01*
X121757644Y-111786686D01*
X120952346Y-111764807D01*
X120199975Y-112052769D01*
X120106730Y-112115073D01*
X119932977Y-112397622D01*
X116067023Y-112397622D01*
X115893270Y-112115073D01*
X115157644Y-111786686D01*
X114352346Y-111764807D01*
X113599975Y-112052769D01*
X113506730Y-112115073D01*
X113332977Y-112397622D01*
X104667023Y-112397622D01*
X104493270Y-112115073D01*
X103757644Y-111786686D01*
X102952346Y-111764807D01*
X102199975Y-112052769D01*
X102106730Y-112115073D01*
X101932977Y-112397622D01*
X98067023Y-112397622D01*
X97893270Y-112115073D01*
X97157644Y-111786686D01*
X96352346Y-111764807D01*
X95599975Y-112052769D01*
X95506730Y-112115073D01*
X95332977Y-112397622D01*
X86667023Y-112397622D01*
X86493270Y-112115073D01*
X85757644Y-111786686D01*
X84952346Y-111764807D01*
X84199975Y-112052769D01*
X84106730Y-112115073D01*
X83932977Y-112397622D01*
X80067023Y-112397622D01*
X79893270Y-112115073D01*
X79157644Y-111786686D01*
X78352346Y-111764807D01*
X77599975Y-112052769D01*
X77506730Y-112115073D01*
X77332977Y-112397622D01*
X76125000Y-112397622D01*
X76125000Y-110782206D01*
X80574754Y-110782206D01*
X80791240Y-111306143D01*
X81191749Y-111707351D01*
X81715307Y-111924752D01*
X82282206Y-111925246D01*
X82806143Y-111708760D01*
X83207351Y-111308251D01*
X83424752Y-110784693D01*
X83424754Y-110782206D01*
X98574754Y-110782206D01*
X98791240Y-111306143D01*
X99191749Y-111707351D01*
X99715307Y-111924752D01*
X100282206Y-111925246D01*
X100806143Y-111708760D01*
X101207351Y-111308251D01*
X101424752Y-110784693D01*
X101424754Y-110782206D01*
X116574754Y-110782206D01*
X116791240Y-111306143D01*
X117191749Y-111707351D01*
X117715307Y-111924752D01*
X118282206Y-111925246D01*
X118806143Y-111708760D01*
X119207351Y-111308251D01*
X119424752Y-110784693D01*
X119425246Y-110217794D01*
X119208760Y-109693857D01*
X118808251Y-109292649D01*
X118284693Y-109075248D01*
X117717794Y-109074754D01*
X117193857Y-109291240D01*
X116792649Y-109691749D01*
X116575248Y-110215307D01*
X116574754Y-110782206D01*
X101424754Y-110782206D01*
X101425246Y-110217794D01*
X101208760Y-109693857D01*
X100808251Y-109292649D01*
X100284693Y-109075248D01*
X99717794Y-109074754D01*
X99193857Y-109291240D01*
X98792649Y-109691749D01*
X98575248Y-110215307D01*
X98574754Y-110782206D01*
X83424754Y-110782206D01*
X83425246Y-110217794D01*
X83208760Y-109693857D01*
X82808251Y-109292649D01*
X82284693Y-109075248D01*
X81717794Y-109074754D01*
X81193857Y-109291240D01*
X80792649Y-109691749D01*
X80575248Y-110215307D01*
X80574754Y-110782206D01*
X76125000Y-110782206D01*
X76125000Y-108602378D01*
X77332977Y-108602378D01*
X77506730Y-108884927D01*
X78242356Y-109213314D01*
X79047654Y-109235193D01*
X79800025Y-108947231D01*
X79893270Y-108884927D01*
X80067023Y-108602378D01*
X83932977Y-108602378D01*
X84106730Y-108884927D01*
X84842356Y-109213314D01*
X85647654Y-109235193D01*
X86400025Y-108947231D01*
X86493270Y-108884927D01*
X86667023Y-108602378D01*
X95332977Y-108602378D01*
X95506730Y-108884927D01*
X96242356Y-109213314D01*
X97047654Y-109235193D01*
X97800025Y-108947231D01*
X97893270Y-108884927D01*
X98067023Y-108602378D01*
X101932977Y-108602378D01*
X102106730Y-108884927D01*
X102842356Y-109213314D01*
X103647654Y-109235193D01*
X104400025Y-108947231D01*
X104493270Y-108884927D01*
X104667023Y-108602378D01*
X113332977Y-108602378D01*
X113506730Y-108884927D01*
X114242356Y-109213314D01*
X115047654Y-109235193D01*
X115800025Y-108947231D01*
X115893270Y-108884927D01*
X116067023Y-108602378D01*
X119932977Y-108602378D01*
X120106730Y-108884927D01*
X120842356Y-109213314D01*
X121647654Y-109235193D01*
X122400025Y-108947231D01*
X122493270Y-108884927D01*
X122667023Y-108602378D01*
X121300000Y-107235355D01*
X119932977Y-108602378D01*
X116067023Y-108602378D01*
X114700000Y-107235355D01*
X113332977Y-108602378D01*
X104667023Y-108602378D01*
X103300000Y-107235355D01*
X101932977Y-108602378D01*
X98067023Y-108602378D01*
X96700000Y-107235355D01*
X95332977Y-108602378D01*
X86667023Y-108602378D01*
X85300000Y-107235355D01*
X83932977Y-108602378D01*
X80067023Y-108602378D01*
X78700000Y-107235355D01*
X77332977Y-108602378D01*
X76125000Y-108602378D01*
X76125000Y-107547654D01*
X76664807Y-107547654D01*
X76952769Y-108300025D01*
X77015073Y-108393270D01*
X77297622Y-108567023D01*
X78664645Y-107200000D01*
X78735355Y-107200000D01*
X80102378Y-108567023D01*
X80384927Y-108393270D01*
X80713314Y-107657644D01*
X80716302Y-107547654D01*
X83264807Y-107547654D01*
X83552769Y-108300025D01*
X83615073Y-108393270D01*
X83897622Y-108567023D01*
X85264645Y-107200000D01*
X85335355Y-107200000D01*
X86702378Y-108567023D01*
X86984927Y-108393270D01*
X87313314Y-107657644D01*
X87316302Y-107547654D01*
X94664807Y-107547654D01*
X94952769Y-108300025D01*
X95015073Y-108393270D01*
X95297622Y-108567023D01*
X96664645Y-107200000D01*
X96735355Y-107200000D01*
X98102378Y-108567023D01*
X98384927Y-108393270D01*
X98713314Y-107657644D01*
X98716302Y-107547654D01*
X101264807Y-107547654D01*
X101552769Y-108300025D01*
X101615073Y-108393270D01*
X101897622Y-108567023D01*
X103264645Y-107200000D01*
X103335355Y-107200000D01*
X104702378Y-108567023D01*
X104984927Y-108393270D01*
X105313314Y-107657644D01*
X105316302Y-107547654D01*
X112664807Y-107547654D01*
X112952769Y-108300025D01*
X113015073Y-108393270D01*
X113297622Y-108567023D01*
X114664645Y-107200000D01*
X114735355Y-107200000D01*
X116102378Y-108567023D01*
X116384927Y-108393270D01*
X116713314Y-107657644D01*
X116716302Y-107547654D01*
X119264807Y-107547654D01*
X119552769Y-108300025D01*
X119615073Y-108393270D01*
X119897622Y-108567023D01*
X121264645Y-107200000D01*
X121335355Y-107200000D01*
X122702378Y-108567023D01*
X122984927Y-108393270D01*
X123313314Y-107657644D01*
X123335193Y-106852346D01*
X123047231Y-106099975D01*
X122984927Y-106006730D01*
X122702378Y-105832977D01*
X121335355Y-107200000D01*
X121264645Y-107200000D01*
X119897622Y-105832977D01*
X119615073Y-106006730D01*
X119286686Y-106742356D01*
X119264807Y-107547654D01*
X116716302Y-107547654D01*
X116735193Y-106852346D01*
X116447231Y-106099975D01*
X116384927Y-106006730D01*
X116102378Y-105832977D01*
X114735355Y-107200000D01*
X114664645Y-107200000D01*
X113297622Y-105832977D01*
X113015073Y-106006730D01*
X112686686Y-106742356D01*
X112664807Y-107547654D01*
X105316302Y-107547654D01*
X105335193Y-106852346D01*
X105047231Y-106099975D01*
X104984927Y-106006730D01*
X104702378Y-105832977D01*
X103335355Y-107200000D01*
X103264645Y-107200000D01*
X101897622Y-105832977D01*
X101615073Y-106006730D01*
X101286686Y-106742356D01*
X101264807Y-107547654D01*
X98716302Y-107547654D01*
X98735193Y-106852346D01*
X98447231Y-106099975D01*
X98384927Y-106006730D01*
X98102378Y-105832977D01*
X96735355Y-107200000D01*
X96664645Y-107200000D01*
X95297622Y-105832977D01*
X95015073Y-106006730D01*
X94686686Y-106742356D01*
X94664807Y-107547654D01*
X87316302Y-107547654D01*
X87335193Y-106852346D01*
X87047231Y-106099975D01*
X86984927Y-106006730D01*
X86702378Y-105832977D01*
X85335355Y-107200000D01*
X85264645Y-107200000D01*
X83897622Y-105832977D01*
X83615073Y-106006730D01*
X83286686Y-106742356D01*
X83264807Y-107547654D01*
X80716302Y-107547654D01*
X80735193Y-106852346D01*
X80447231Y-106099975D01*
X80384927Y-106006730D01*
X80102378Y-105832977D01*
X78735355Y-107200000D01*
X78664645Y-107200000D01*
X77297622Y-105832977D01*
X77015073Y-106006730D01*
X76686686Y-106742356D01*
X76664807Y-107547654D01*
X76125000Y-107547654D01*
X76125000Y-105797622D01*
X77332977Y-105797622D01*
X78700000Y-107164645D01*
X80067023Y-105797622D01*
X83932977Y-105797622D01*
X85300000Y-107164645D01*
X86667023Y-105797622D01*
X95332977Y-105797622D01*
X96700000Y-107164645D01*
X98067023Y-105797622D01*
X101932977Y-105797622D01*
X103300000Y-107164645D01*
X104667023Y-105797622D01*
X113332977Y-105797622D01*
X114700000Y-107164645D01*
X116067023Y-105797622D01*
X119932977Y-105797622D01*
X121300000Y-107164645D01*
X122667023Y-105797622D01*
X122493270Y-105515073D01*
X121757644Y-105186686D01*
X120952346Y-105164807D01*
X120199975Y-105452769D01*
X120106730Y-105515073D01*
X119932977Y-105797622D01*
X116067023Y-105797622D01*
X115893270Y-105515073D01*
X115157644Y-105186686D01*
X114352346Y-105164807D01*
X113599975Y-105452769D01*
X113506730Y-105515073D01*
X113332977Y-105797622D01*
X104667023Y-105797622D01*
X104493270Y-105515073D01*
X103757644Y-105186686D01*
X102952346Y-105164807D01*
X102199975Y-105452769D01*
X102106730Y-105515073D01*
X101932977Y-105797622D01*
X98067023Y-105797622D01*
X97893270Y-105515073D01*
X97157644Y-105186686D01*
X96352346Y-105164807D01*
X95599975Y-105452769D01*
X95506730Y-105515073D01*
X95332977Y-105797622D01*
X86667023Y-105797622D01*
X86493270Y-105515073D01*
X85757644Y-105186686D01*
X84952346Y-105164807D01*
X84199975Y-105452769D01*
X84106730Y-105515073D01*
X83932977Y-105797622D01*
X80067023Y-105797622D01*
X79893270Y-105515073D01*
X79157644Y-105186686D01*
X78352346Y-105164807D01*
X77599975Y-105452769D01*
X77506730Y-105515073D01*
X77332977Y-105797622D01*
X76125000Y-105797622D01*
X76125000Y-104125000D01*
X123875000Y-104125000D01*
X123875000Y-147354777D01*
%TD*%
M02*
