  0
SECTION
  2
HEADER
  9
$ANGBASE
  50
0.0
  9
$ANGDIR
  70
  1
  9
$MEASUREMENT
  70
0
  0
ENDSEC
  0
SECTION
  2
TABLES
  0
TABLE
  2
LTYPE
  70
1
  0
LTYPE
  2
CONTINUOUS
  70
0
  3
Solid line
  72
65
  73
0
  40
0.0
  0
ENDTAB
  0
TABLE
  2
STYLE
  70
4
  0
STYLE
  2
KICAD
  70
0
  40
0
  41
1
  42
1
  50
0
  71
0
  3
isocp.shx
  0
STYLE
  2
KICADB
  70
0
  40
0
  41
1
  42
1
  50
0
  71
0
  3
isocp.shx
  0
STYLE
  2
KICADI
  70
0
  40
0
  41
1
  42
1
  50
15
  71
0
  3
isocp.shx
  0
STYLE
  2
KICADBI
  70
0
  40
0
  41
1
  42
1
  50
15
  71
0
  3
isocp.shx
  0
ENDTAB
  0
TABLE
  2
LAYER
  70
30
  0
LAYER
  2
BLACK
  70
0
  62
7
  6
CONTINUOUS
  0
LAYER
  2
GRAY1
  70
0
  62
251
  6
CONTINUOUS
  0
LAYER
  2
GRAY2
  70
0
  62
8
  6
CONTINUOUS
  0
LAYER
  2
GRAY3
  70
0
  62
9
  6
CONTINUOUS
  0
LAYER
  2
WHITE
  70
0
  62
7
  6
CONTINUOUS
  0
LAYER
  2
LYELLOW
  70
0
  62
51
  6
CONTINUOUS
  0
LAYER
  2
BLUE1
  70
0
  62
178
  6
CONTINUOUS
  0
LAYER
  2
GREEN1
  70
0
  62
98
  6
CONTINUOUS
  0
LAYER
  2
CYAN1
  70
0
  62
138
  6
CONTINUOUS
  0
LAYER
  2
RED1
  70
0
  62
18
  6
CONTINUOUS
  0
LAYER
  2
MAGENTA1
  70
0
  62
228
  6
CONTINUOUS
  0
LAYER
  2
BROWN1
  70
0
  62
58
  6
CONTINUOUS
  0
LAYER
  2
BLUE2
  70
0
  62
5
  6
CONTINUOUS
  0
LAYER
  2
GREEN2
  70
0
  62
3
  6
CONTINUOUS
  0
LAYER
  2
CYAN2
  70
0
  62
4
  6
CONTINUOUS
  0
LAYER
  2
RED2
  70
0
  62
1
  6
CONTINUOUS
  0
LAYER
  2
MAGENTA2
  70
0
  62
6
  6
CONTINUOUS
  0
LAYER
  2
BROWN2
  70
0
  62
54
  6
CONTINUOUS
  0
LAYER
  2
BLUE3
  70
0
  62
171
  6
CONTINUOUS
  0
LAYER
  2
GREEN3
  70
0
  62
91
  6
CONTINUOUS
  0
LAYER
  2
CYAN3
  70
0
  62
131
  6
CONTINUOUS
  0
LAYER
  2
RED3
  70
0
  62
11
  6
CONTINUOUS
  0
LAYER
  2
MAGENTA3
  70
0
  62
221
  6
CONTINUOUS
  0
LAYER
  2
YELLOW3
  70
0
  62
2
  6
CONTINUOUS
  0
LAYER
  2
BLUE4
  70
0
  62
5
  6
CONTINUOUS
  0
LAYER
  2
GREEN4
  70
0
  62
3
  6
CONTINUOUS
  0
LAYER
  2
CYAN4
  70
0
  62
4
  6
CONTINUOUS
  0
LAYER
  2
RED4
  70
0
  62
1
  6
CONTINUOUS
  0
LAYER
  2
MAGENTA4
  70
0
  62
6
  6
CONTINUOUS
  0
LAYER
  2
YELLOW4
  70
0
  62
2
  6
CONTINUOUS
  0
ENDTAB
  0
ENDSEC
  0
SECTION
  2
ENTITIES
0
LINE
8
BLACK
10
88.9
20
-144.95
11
88.6
21
-144.95
0
LINE
8
BLACK
10
88.6
20
-144.95
11
88.6
21
-143.45
0
LINE
8
BLACK
10
88.6
20
-143.45
11
88.9
21
-143.45
0
LINE
8
BLACK
10
88.9
20
-143.45
11
88.9
21
-144.95
0
LINE
8
BLACK
10
88.4
20
-144.95
11
88.1
21
-144.95
0
LINE
8
BLACK
10
88.1
20
-144.95
11
88.1
21
-143.45
0
LINE
8
BLACK
10
88.1
20
-143.45
11
88.4
21
-143.45
0
LINE
8
BLACK
10
88.4
20
-143.45
11
88.4
21
-144.95
0
LINE
8
BLACK
10
91.9
20
-144.95
11
91.6
21
-144.95
0
LINE
8
BLACK
10
91.6
20
-144.95
11
91.6
21
-143.45
0
LINE
8
BLACK
10
91.6
20
-143.45
11
91.9
21
-143.45
0
LINE
8
BLACK
10
91.9
20
-143.45
11
91.9
21
-144.95
0
LINE
8
BLACK
10
91.4
20
-144.95
11
91.1
21
-144.95
0
LINE
8
BLACK
10
91.1
20
-144.95
11
91.1
21
-143.45
0
LINE
8
BLACK
10
91.1
20
-143.45
11
91.4
21
-143.45
0
LINE
8
BLACK
10
91.4
20
-143.45
11
91.4
21
-144.95
0
LINE
8
BLACK
10
90.9
20
-144.95
11
90.6
21
-144.95
0
LINE
8
BLACK
10
90.6
20
-144.95
11
90.6
21
-143.45
0
LINE
8
BLACK
10
90.6
20
-143.45
11
90.9
21
-143.45
0
LINE
8
BLACK
10
90.9
20
-143.45
11
90.9
21
-144.95
0
LINE
8
BLACK
10
90.4
20
-144.95
11
90.1
21
-144.95
0
LINE
8
BLACK
10
90.1
20
-144.95
11
90.1
21
-143.45
0
LINE
8
BLACK
10
90.1
20
-143.45
11
90.4
21
-143.45
0
LINE
8
BLACK
10
90.4
20
-143.45
11
90.4
21
-144.95
0
LINE
8
BLACK
10
89.9
20
-144.95
11
89.6
21
-144.95
0
LINE
8
BLACK
10
89.6
20
-144.95
11
89.6
21
-143.45
0
LINE
8
BLACK
10
89.6
20
-143.45
11
89.9
21
-143.45
0
LINE
8
BLACK
10
89.9
20
-143.45
11
89.9
21
-144.95
0
LINE
8
BLACK
10
89.4
20
-144.95
11
89.1
21
-144.95
0
LINE
8
BLACK
10
89.1
20
-144.95
11
89.1
21
-143.45
0
LINE
8
BLACK
10
89.1
20
-143.45
11
89.4
21
-143.45
0
LINE
8
BLACK
10
89.4
20
-143.45
11
89.4
21
-144.95
0
LINE
8
BLACK
10
86.4
20
-144.95
11
86.1
21
-144.95
0
LINE
8
BLACK
10
86.1
20
-144.95
11
86.1
21
-143.45
0
LINE
8
BLACK
10
86.1
20
-143.45
11
86.4
21
-143.45
0
LINE
8
BLACK
10
86.4
20
-143.45
11
86.4
21
-144.95
0
LINE
8
BLACK
10
86.9
20
-144.95
11
86.6
21
-144.95
0
LINE
8
BLACK
10
86.6
20
-144.95
11
86.6
21
-143.45
0
LINE
8
BLACK
10
86.6
20
-143.45
11
86.9
21
-143.45
0
LINE
8
BLACK
10
86.9
20
-143.45
11
86.9
21
-144.95
0
LINE
8
BLACK
10
87.4
20
-144.95
11
87.1
21
-144.95
0
LINE
8
BLACK
10
87.1
20
-144.95
11
87.1
21
-143.45
0
LINE
8
BLACK
10
87.1
20
-143.45
11
87.4
21
-143.45
0
LINE
8
BLACK
10
87.4
20
-143.45
11
87.4
21
-144.95
0
LINE
8
BLACK
10
87.9
20
-144.95
11
87.6
21
-144.95
0
LINE
8
BLACK
10
87.6
20
-144.95
11
87.6
21
-143.45
0
LINE
8
BLACK
10
87.6
20
-143.45
11
87.9
21
-143.45
0
LINE
8
BLACK
10
87.9
20
-143.45
11
87.9
21
-144.95
0
LINE
8
BLACK
10
104.2
20
-144.775
11
103.2
21
-144.775
0
LINE
8
BLACK
10
103.2
20
-144.775
11
103.2
21
-143.825
0
LINE
8
BLACK
10
103.2
20
-143.825
11
104.2
21
-143.825
0
LINE
8
BLACK
10
104.2
20
-143.825
11
104.2
21
-144.775
0
LINE
8
BLACK
10
114.9
20
-144.55
11
114.45
21
-144.55
0
LINE
8
BLACK
10
114.45
20
-144.55
11
114.45
21
-143.2
0
LINE
8
BLACK
10
114.45
20
-143.2
11
114.9
21
-143.2
0
LINE
8
BLACK
10
114.9
20
-143.2
11
114.9
21
-144.55
0
LINE
8
BLACK
10
118.8
20
-144.55
11
118.35
21
-144.55
0
LINE
8
BLACK
10
118.35
20
-144.55
11
118.35
21
-143.2
0
LINE
8
BLACK
10
118.35
20
-143.2
11
118.8
21
-143.2
0
LINE
8
BLACK
10
118.8
20
-143.2
11
118.8
21
-144.55
0
LINE
8
BLACK
10
115.55
20
-144.55
11
115.1
21
-144.55
0
LINE
8
BLACK
10
115.1
20
-144.55
11
115.1
21
-143.2
0
LINE
8
BLACK
10
115.1
20
-143.2
11
115.55
21
-143.2
0
LINE
8
BLACK
10
115.55
20
-143.2
11
115.55
21
-144.55
0
LINE
8
BLACK
10
116.2
20
-144.55
11
115.75
21
-144.55
0
LINE
8
BLACK
10
115.75
20
-144.55
11
115.75
21
-143.2
0
LINE
8
BLACK
10
115.75
20
-143.2
11
116.2
21
-143.2
0
LINE
8
BLACK
10
116.2
20
-143.2
11
116.2
21
-144.55
0
LINE
8
BLACK
10
116.85
20
-144.55
11
116.4
21
-144.55
0
LINE
8
BLACK
10
116.4
20
-144.55
11
116.4
21
-143.2
0
LINE
8
BLACK
10
116.4
20
-143.2
11
116.85
21
-143.2
0
LINE
8
BLACK
10
116.85
20
-143.2
11
116.85
21
-144.55
0
LINE
8
BLACK
10
119.45
20
-144.55
11
119
21
-144.55
0
LINE
8
BLACK
10
119
20
-144.55
11
119
21
-143.2
0
LINE
8
BLACK
10
119
20
-143.2
11
119.45
21
-143.2
0
LINE
8
BLACK
10
119.45
20
-143.2
11
119.45
21
-144.55
0
LINE
8
BLACK
10
117.5
20
-144.55
11
117.05
21
-144.55
0
LINE
8
BLACK
10
117.05
20
-144.55
11
117.05
21
-143.2
0
LINE
8
BLACK
10
117.05
20
-143.2
11
117.5
21
-143.2
0
LINE
8
BLACK
10
117.5
20
-143.2
11
117.5
21
-144.55
0
LINE
8
BLACK
10
118.15
20
-144.55
11
117.7
21
-144.55
0
LINE
8
BLACK
10
117.7
20
-144.55
11
117.7
21
-143.2
0
LINE
8
BLACK
10
117.7
20
-143.2
11
118.15
21
-143.2
0
LINE
8
BLACK
10
118.15
20
-143.2
11
118.15
21
-144.55
0
LINE
8
BLACK
10
114.25
20
-144.55
11
113.8
21
-144.55
0
LINE
8
BLACK
10
113.8
20
-144.55
11
113.8
21
-143.2
0
LINE
8
BLACK
10
113.8
20
-143.2
11
114.25
21
-143.2
0
LINE
8
BLACK
10
114.25
20
-143.2
11
114.25
21
-144.55
0
LINE
8
BLACK
10
113.6
20
-144.55
11
113.15
21
-144.55
0
LINE
8
BLACK
10
113.15
20
-144.55
11
113.15
21
-143.2
0
LINE
8
BLACK
10
113.15
20
-143.2
11
113.6
21
-143.2
0
LINE
8
BLACK
10
113.6
20
-143.2
11
113.6
21
-144.55
0
LINE
8
BLACK
10
112.95
20
-144.55
11
112.5
21
-144.55
0
LINE
8
BLACK
10
112.5
20
-144.55
11
112.5
21
-143.2
0
LINE
8
BLACK
10
112.5
20
-143.2
11
112.95
21
-143.2
0
LINE
8
BLACK
10
112.95
20
-143.2
11
112.95
21
-144.55
0
LINE
8
BLACK
10
112.3
20
-144.55
11
111.85
21
-144.55
0
LINE
8
BLACK
10
111.85
20
-144.55
11
111.85
21
-143.2
0
LINE
8
BLACK
10
111.85
20
-143.2
11
112.3
21
-143.2
0
LINE
8
BLACK
10
112.3
20
-143.2
11
112.3
21
-144.55
0
LINE
8
BLACK
10
111.65
20
-144.55
11
111.2
21
-144.55
0
LINE
8
BLACK
10
111.2
20
-144.55
11
111.2
21
-143.2
0
LINE
8
BLACK
10
111.2
20
-143.2
11
111.65
21
-143.2
0
LINE
8
BLACK
10
111.65
20
-143.2
11
111.65
21
-144.55
0
LINE
8
BLACK
10
111
20
-144.55
11
110.55
21
-144.55
0
LINE
8
BLACK
10
110.55
20
-144.55
11
110.55
21
-143.2
0
LINE
8
BLACK
10
110.55
20
-143.2
11
111
21
-143.2
0
LINE
8
BLACK
10
111
20
-143.2
11
111
21
-144.55
0
LINE
8
BLACK
10
107.875
20
-143.3
11
106.925
21
-143.3
0
LINE
8
BLACK
10
106.925
20
-143.3
11
106.925
21
-142.3
0
LINE
8
BLACK
10
106.925
20
-142.3
11
107.875
21
-142.3
0
LINE
8
BLACK
10
107.875
20
-142.3
11
107.875
21
-143.3
0
LINE
8
BLACK
10
106.275
20
-143.3
11
105.325
21
-143.3
0
LINE
8
BLACK
10
105.325
20
-143.3
11
105.325
21
-142.3
0
LINE
8
BLACK
10
105.325
20
-142.3
11
106.275
21
-142.3
0
LINE
8
BLACK
10
106.275
20
-142.3
11
106.275
21
-143.3
0
LINE
8
BLACK
10
104.2
20
-143.175
11
103.2
21
-143.175
0
LINE
8
BLACK
10
103.2
20
-143.175
11
103.2
21
-142.225
0
LINE
8
BLACK
10
103.2
20
-142.225
11
104.2
21
-142.225
0
LINE
8
BLACK
10
104.2
20
-142.225
11
104.2
21
-143.175
0
LINE
8
BLACK
10
85.55
20
-142.9
11
84.05
21
-142.9
0
LINE
8
BLACK
10
84.05
20
-142.9
11
84.05
21
-142.6
0
LINE
8
BLACK
10
84.05
20
-142.6
11
85.55
21
-142.6
0
LINE
8
BLACK
10
85.55
20
-142.6
11
85.55
21
-142.9
0
LINE
8
BLACK
10
93.95
20
-142.9
11
92.45
21
-142.9
0
LINE
8
BLACK
10
92.45
20
-142.9
11
92.45
21
-142.6
0
LINE
8
BLACK
10
92.45
20
-142.6
11
93.95
21
-142.6
0
LINE
8
BLACK
10
93.95
20
-142.6
11
93.95
21
-142.9
0
LINE
8
BLACK
10
85.55
20
-142.4
11
84.05
21
-142.4
0
LINE
8
BLACK
10
84.05
20
-142.4
11
84.05
21
-142.1
0
LINE
8
BLACK
10
84.05
20
-142.1
11
85.55
21
-142.1
0
LINE
8
BLACK
10
85.55
20
-142.1
11
85.55
21
-142.4
0
LINE
8
BLACK
10
93.95
20
-142.4
11
92.45
21
-142.4
0
LINE
8
BLACK
10
92.45
20
-142.4
11
92.45
21
-142.1
0
LINE
8
BLACK
10
92.45
20
-142.1
11
93.95
21
-142.1
0
LINE
8
BLACK
10
93.95
20
-142.1
11
93.95
21
-142.4
0
LINE
8
BLACK
10
93.95
20
-141.9
11
92.45
21
-141.9
0
LINE
8
BLACK
10
92.45
20
-141.9
11
92.45
21
-141.6
0
LINE
8
BLACK
10
92.45
20
-141.6
11
93.95
21
-141.6
0
LINE
8
BLACK
10
93.95
20
-141.6
11
93.95
21
-141.9
0
LINE
8
BLACK
10
85.55
20
-141.9
11
84.05
21
-141.9
0
LINE
8
BLACK
10
84.05
20
-141.9
11
84.05
21
-141.6
0
LINE
8
BLACK
10
84.05
20
-141.6
11
85.55
21
-141.6
0
LINE
8
BLACK
10
85.55
20
-141.6
11
85.55
21
-141.9
0
LINE
8
BLACK
10
107.8
20
-141.725
11
107.35
21
-141.725
0
LINE
8
BLACK
10
107.35
20
-141.725
11
107.35
21
-140.275
0
LINE
8
BLACK
10
107.35
20
-140.275
11
107.8
21
-140.275
0
LINE
8
BLACK
10
107.8
20
-140.275
11
107.8
21
-141.725
0
LINE
8
BLACK
10
101.9
20
-141.725
11
101.45
21
-141.725
0
LINE
8
BLACK
10
101.45
20
-141.725
11
101.45
21
-140.275
0
LINE
8
BLACK
10
101.45
20
-140.275
11
101.9
21
-140.275
0
LINE
8
BLACK
10
101.9
20
-140.275
11
101.9
21
-141.725
0
LINE
8
BLACK
10
101.25
20
-141.725
11
100.8
21
-141.725
0
LINE
8
BLACK
10
100.8
20
-141.725
11
100.8
21
-140.275
0
LINE
8
BLACK
10
100.8
20
-140.275
11
101.25
21
-140.275
0
LINE
8
BLACK
10
101.25
20
-140.275
11
101.25
21
-141.725
0
LINE
8
BLACK
10
100.6
20
-141.725
11
100.15
21
-141.725
0
LINE
8
BLACK
10
100.15
20
-141.725
11
100.15
21
-140.275
0
LINE
8
BLACK
10
100.15
20
-140.275
11
100.6
21
-140.275
0
LINE
8
BLACK
10
100.6
20
-140.275
11
100.6
21
-141.725
0
LINE
8
BLACK
10
99.95
20
-141.725
11
99.5
21
-141.725
0
LINE
8
BLACK
10
99.5
20
-141.725
11
99.5
21
-140.275
0
LINE
8
BLACK
10
99.5
20
-140.275
11
99.95
21
-140.275
0
LINE
8
BLACK
10
99.95
20
-140.275
11
99.95
21
-141.725
0
LINE
8
BLACK
10
107.15
20
-141.725
11
106.7
21
-141.725
0
LINE
8
BLACK
10
106.7
20
-141.725
11
106.7
21
-140.275
0
LINE
8
BLACK
10
106.7
20
-140.275
11
107.15
21
-140.275
0
LINE
8
BLACK
10
107.15
20
-140.275
11
107.15
21
-141.725
0
LINE
8
BLACK
10
106.5
20
-141.725
11
106.05
21
-141.725
0
LINE
8
BLACK
10
106.05
20
-141.725
11
106.05
21
-140.275
0
LINE
8
BLACK
10
106.05
20
-140.275
11
106.5
21
-140.275
0
LINE
8
BLACK
10
106.5
20
-140.275
11
106.5
21
-141.725
0
LINE
8
BLACK
10
105.85
20
-141.725
11
105.4
21
-141.725
0
LINE
8
BLACK
10
105.4
20
-141.725
11
105.4
21
-140.275
0
LINE
8
BLACK
10
105.4
20
-140.275
11
105.85
21
-140.275
0
LINE
8
BLACK
10
105.85
20
-140.275
11
105.85
21
-141.725
0
LINE
8
BLACK
10
104.2
20
-141.675
11
103.2
21
-141.675
0
LINE
8
BLACK
10
103.2
20
-141.675
11
103.2
21
-140.725
0
LINE
8
BLACK
10
103.2
20
-140.725
11
104.2
21
-140.725
0
LINE
8
BLACK
10
104.2
20
-140.725
11
104.2
21
-141.675
0
LINE
8
BLACK
10
109.65
20
-141.575
11
108.65
21
-141.575
0
LINE
8
BLACK
10
108.65
20
-141.575
11
108.65
21
-140.625
0
LINE
8
BLACK
10
108.65
20
-140.625
11
109.65
21
-140.625
0
LINE
8
BLACK
10
109.65
20
-140.625
11
109.65
21
-141.575
0
LINE
8
BLACK
10
85.55
20
-141.4
11
84.05
21
-141.4
0
LINE
8
BLACK
10
84.05
20
-141.4
11
84.05
21
-141.1
0
LINE
8
BLACK
10
84.05
20
-141.1
11
85.55
21
-141.1
0
LINE
8
BLACK
10
85.55
20
-141.1
11
85.55
21
-141.4
0
LINE
8
BLACK
10
93.95
20
-141.4
11
92.45
21
-141.4
0
LINE
8
BLACK
10
92.45
20
-141.4
11
92.45
21
-141.1
0
LINE
8
BLACK
10
92.45
20
-141.1
11
93.95
21
-141.1
0
LINE
8
BLACK
10
93.95
20
-141.1
11
93.95
21
-141.4
0
LINE
8
BLACK
10
97.8551
20
-140.548
11
97.148
21
-141.255
0
LINE
8
BLACK
10
97.148
20
-141.255
11
96.4763
21
-140.583
0
LINE
8
BLACK
10
96.4763
20
-140.583
11
97.1834
21
-139.876
0
LINE
8
BLACK
10
97.1834
20
-139.876
11
97.8551
21
-140.548
0
LINE
8
BLACK
10
85.55
20
-140.9
11
84.05
21
-140.9
0
LINE
8
BLACK
10
84.05
20
-140.9
11
84.05
21
-140.6
0
LINE
8
BLACK
10
84.05
20
-140.6
11
85.55
21
-140.6
0
LINE
8
BLACK
10
85.55
20
-140.6
11
85.55
21
-140.9
0
LINE
8
BLACK
10
93.95
20
-140.9
11
92.45
21
-140.9
0
LINE
8
BLACK
10
92.45
20
-140.9
11
92.45
21
-140.6
0
LINE
8
BLACK
10
92.45
20
-140.6
11
93.95
21
-140.6
0
LINE
8
BLACK
10
93.95
20
-140.6
11
93.95
21
-140.9
0
LINE
8
BLACK
10
85.55
20
-140.4
11
84.05
21
-140.4
0
LINE
8
BLACK
10
84.05
20
-140.4
11
84.05
21
-140.1
0
LINE
8
BLACK
10
84.05
20
-140.1
11
85.55
21
-140.1
0
LINE
8
BLACK
10
85.55
20
-140.1
11
85.55
21
-140.4
0
LINE
8
BLACK
10
93.95
20
-140.4
11
92.45
21
-140.4
0
LINE
8
BLACK
10
92.45
20
-140.4
11
92.45
21
-140.1
0
LINE
8
BLACK
10
92.45
20
-140.1
11
93.95
21
-140.1
0
LINE
8
BLACK
10
93.95
20
-140.1
11
93.95
21
-140.4
0
LINE
8
BLACK
10
96.7237
20
-139.417
11
96.0166
21
-140.124
0
LINE
8
BLACK
10
96.0166
20
-140.124
11
95.3449
21
-139.452
0
LINE
8
BLACK
10
95.3449
20
-139.452
11
96.052
21
-138.745
0
LINE
8
BLACK
10
96.052
20
-138.745
11
96.7237
21
-139.417
0
LINE
8
BLACK
10
104.2
20
-140.075
11
103.2
21
-140.075
0
LINE
8
BLACK
10
103.2
20
-140.075
11
103.2
21
-139.125
0
LINE
8
BLACK
10
103.2
20
-139.125
11
104.2
21
-139.125
0
LINE
8
BLACK
10
104.2
20
-139.125
11
104.2
21
-140.075
0
LINE
8
BLACK
10
109.65
20
-139.975
11
108.65
21
-139.975
0
LINE
8
BLACK
10
108.65
20
-139.975
11
108.65
21
-139.025
0
LINE
8
BLACK
10
108.65
20
-139.025
11
109.65
21
-139.025
0
LINE
8
BLACK
10
109.65
20
-139.025
11
109.65
21
-139.975
0
LINE
8
BLACK
10
85.55
20
-139.9
11
84.05
21
-139.9
0
LINE
8
BLACK
10
84.05
20
-139.9
11
84.05
21
-139.6
0
LINE
8
BLACK
10
84.05
20
-139.6
11
85.55
21
-139.6
0
LINE
8
BLACK
10
85.55
20
-139.6
11
85.55
21
-139.9
0
LINE
8
BLACK
10
93.95
20
-139.9
11
92.45
21
-139.9
0
LINE
8
BLACK
10
92.45
20
-139.9
11
92.45
21
-139.6
0
LINE
8
BLACK
10
92.45
20
-139.6
11
93.95
21
-139.6
0
LINE
8
BLACK
10
93.95
20
-139.6
11
93.95
21
-139.9
0
LINE
8
BLACK
10
101.531
20
-139.663
11
99.869
21
-139.663
0
LINE
8
BLACK
10
99.869
20
-139.663
11
99.869
21
-137.936
0
LINE
8
BLACK
10
99.869
20
-137.936
11
101.531
21
-137.936
0
LINE
8
BLACK
10
101.531
20
-137.936
11
101.531
21
-139.663
0
LINE
8
BLACK
10
93.95
20
-139.4
11
92.45
21
-139.4
0
LINE
8
BLACK
10
92.45
20
-139.4
11
92.45
21
-139.1
0
LINE
8
BLACK
10
92.45
20
-139.1
11
93.95
21
-139.1
0
LINE
8
BLACK
10
93.95
20
-139.1
11
93.95
21
-139.4
0
LINE
8
BLACK
10
85.55
20
-139.4
11
84.05
21
-139.4
0
LINE
8
BLACK
10
84.05
20
-139.4
11
84.05
21
-139.1
0
LINE
8
BLACK
10
84.05
20
-139.1
11
85.55
21
-139.1
0
LINE
8
BLACK
10
85.55
20
-139.1
11
85.55
21
-139.4
0
LINE
8
BLACK
10
82.875
20
-139.1
11
81.925
21
-139.1
0
LINE
8
BLACK
10
81.925
20
-139.1
11
81.925
21
-138.1
0
LINE
8
BLACK
10
81.925
20
-138.1
11
82.875
21
-138.1
0
LINE
8
BLACK
10
82.875
20
-138.1
11
82.875
21
-139.1
0
LINE
8
BLACK
10
81.275
20
-139.1
11
80.325
21
-139.1
0
LINE
8
BLACK
10
80.325
20
-139.1
11
80.325
21
-138.1
0
LINE
8
BLACK
10
80.325
20
-138.1
11
81.275
21
-138.1
0
LINE
8
BLACK
10
81.275
20
-138.1
11
81.275
21
-139.1
0
LINE
8
BLACK
10
85.55
20
-138.9
11
84.05
21
-138.9
0
LINE
8
BLACK
10
84.05
20
-138.9
11
84.05
21
-138.6
0
LINE
8
BLACK
10
84.05
20
-138.6
11
85.55
21
-138.6
0
LINE
8
BLACK
10
85.55
20
-138.6
11
85.55
21
-138.9
0
LINE
8
BLACK
10
93.95
20
-138.9
11
92.45
21
-138.9
0
LINE
8
BLACK
10
92.45
20
-138.9
11
92.45
21
-138.6
0
LINE
8
BLACK
10
92.45
20
-138.6
11
93.95
21
-138.6
0
LINE
8
BLACK
10
93.95
20
-138.6
11
93.95
21
-138.9
0
LINE
8
BLACK
10
111
20
-138.8
11
110.55
21
-138.8
0
LINE
8
BLACK
10
110.55
20
-138.8
11
110.55
21
-137.45
0
LINE
8
BLACK
10
110.55
20
-137.45
11
111
21
-137.45
0
LINE
8
BLACK
10
111
20
-137.45
11
111
21
-138.8
0
LINE
8
BLACK
10
119.45
20
-138.8
11
119
21
-138.8
0
LINE
8
BLACK
10
119
20
-138.8
11
119
21
-137.45
0
LINE
8
BLACK
10
119
20
-137.45
11
119.45
21
-137.45
0
LINE
8
BLACK
10
119.45
20
-137.45
11
119.45
21
-138.8
0
LINE
8
BLACK
10
118.8
20
-138.8
11
118.35
21
-138.8
0
LINE
8
BLACK
10
118.35
20
-138.8
11
118.35
21
-137.45
0
LINE
8
BLACK
10
118.35
20
-137.45
11
118.8
21
-137.45
0
LINE
8
BLACK
10
118.8
20
-137.45
11
118.8
21
-138.8
0
LINE
8
BLACK
10
118.15
20
-138.8
11
117.7
21
-138.8
0
LINE
8
BLACK
10
117.7
20
-138.8
11
117.7
21
-137.45
0
LINE
8
BLACK
10
117.7
20
-137.45
11
118.15
21
-137.45
0
LINE
8
BLACK
10
118.15
20
-137.45
11
118.15
21
-138.8
0
LINE
8
BLACK
10
117.5
20
-138.8
11
117.05
21
-138.8
0
LINE
8
BLACK
10
117.05
20
-138.8
11
117.05
21
-137.45
0
LINE
8
BLACK
10
117.05
20
-137.45
11
117.5
21
-137.45
0
LINE
8
BLACK
10
117.5
20
-137.45
11
117.5
21
-138.8
0
LINE
8
BLACK
10
116.85
20
-138.8
11
116.4
21
-138.8
0
LINE
8
BLACK
10
116.4
20
-138.8
11
116.4
21
-137.45
0
LINE
8
BLACK
10
116.4
20
-137.45
11
116.85
21
-137.45
0
LINE
8
BLACK
10
116.85
20
-137.45
11
116.85
21
-138.8
0
LINE
8
BLACK
10
116.2
20
-138.8
11
115.75
21
-138.8
0
LINE
8
BLACK
10
115.75
20
-138.8
11
115.75
21
-137.45
0
LINE
8
BLACK
10
115.75
20
-137.45
11
116.2
21
-137.45
0
LINE
8
BLACK
10
116.2
20
-137.45
11
116.2
21
-138.8
0
LINE
8
BLACK
10
115.55
20
-138.8
11
115.1
21
-138.8
0
LINE
8
BLACK
10
115.1
20
-138.8
11
115.1
21
-137.45
0
LINE
8
BLACK
10
115.1
20
-137.45
11
115.55
21
-137.45
0
LINE
8
BLACK
10
115.55
20
-137.45
11
115.55
21
-138.8
0
LINE
8
BLACK
10
111.65
20
-138.8
11
111.2
21
-138.8
0
LINE
8
BLACK
10
111.2
20
-138.8
11
111.2
21
-137.45
0
LINE
8
BLACK
10
111.2
20
-137.45
11
111.65
21
-137.45
0
LINE
8
BLACK
10
111.65
20
-137.45
11
111.65
21
-138.8
0
LINE
8
BLACK
10
112.3
20
-138.8
11
111.85
21
-138.8
0
LINE
8
BLACK
10
111.85
20
-138.8
11
111.85
21
-137.45
0
LINE
8
BLACK
10
111.85
20
-137.45
11
112.3
21
-137.45
0
LINE
8
BLACK
10
112.3
20
-137.45
11
112.3
21
-138.8
0
LINE
8
BLACK
10
114.9
20
-138.8
11
114.45
21
-138.8
0
LINE
8
BLACK
10
114.45
20
-138.8
11
114.45
21
-137.45
0
LINE
8
BLACK
10
114.45
20
-137.45
11
114.9
21
-137.45
0
LINE
8
BLACK
10
114.9
20
-137.45
11
114.9
21
-138.8
0
LINE
8
BLACK
10
114.25
20
-138.8
11
113.8
21
-138.8
0
LINE
8
BLACK
10
113.8
20
-138.8
11
113.8
21
-137.45
0
LINE
8
BLACK
10
113.8
20
-137.45
11
114.25
21
-137.45
0
LINE
8
BLACK
10
114.25
20
-137.45
11
114.25
21
-138.8
0
LINE
8
BLACK
10
113.6
20
-138.8
11
113.15
21
-138.8
0
LINE
8
BLACK
10
113.15
20
-138.8
11
113.15
21
-137.45
0
LINE
8
BLACK
10
113.15
20
-137.45
11
113.6
21
-137.45
0
LINE
8
BLACK
10
113.6
20
-137.45
11
113.6
21
-138.8
0
LINE
8
BLACK
10
112.95
20
-138.8
11
112.5
21
-138.8
0
LINE
8
BLACK
10
112.5
20
-138.8
11
112.5
21
-137.45
0
LINE
8
BLACK
10
112.5
20
-137.45
11
112.95
21
-137.45
0
LINE
8
BLACK
10
112.95
20
-137.45
11
112.95
21
-138.8
0
LINE
8
BLACK
10
104.2
20
-138.575
11
103.2
21
-138.575
0
LINE
8
BLACK
10
103.2
20
-138.575
11
103.2
21
-137.625
0
LINE
8
BLACK
10
103.2
20
-137.625
11
104.2
21
-137.625
0
LINE
8
BLACK
10
104.2
20
-137.625
11
104.2
21
-138.575
0
LINE
8
BLACK
10
85.55
20
-138.4
11
84.05
21
-138.4
0
LINE
8
BLACK
10
84.05
20
-138.4
11
84.05
21
-138.1
0
LINE
8
BLACK
10
84.05
20
-138.1
11
85.55
21
-138.1
0
LINE
8
BLACK
10
85.55
20
-138.1
11
85.55
21
-138.4
0
LINE
8
BLACK
10
93.95
20
-138.4
11
92.45
21
-138.4
0
LINE
8
BLACK
10
92.45
20
-138.4
11
92.45
21
-138.1
0
LINE
8
BLACK
10
92.45
20
-138.1
11
93.95
21
-138.1
0
LINE
8
BLACK
10
93.95
20
-138.1
11
93.95
21
-138.4
0
LINE
8
BLACK
10
85.55
20
-137.9
11
84.05
21
-137.9
0
LINE
8
BLACK
10
84.05
20
-137.9
11
84.05
21
-137.6
0
LINE
8
BLACK
10
84.05
20
-137.6
11
85.55
21
-137.6
0
LINE
8
BLACK
10
85.55
20
-137.6
11
85.55
21
-137.9
0
LINE
8
BLACK
10
93.95
20
-137.9
11
92.45
21
-137.9
0
LINE
8
BLACK
10
92.45
20
-137.9
11
92.45
21
-137.6
0
LINE
8
BLACK
10
92.45
20
-137.6
11
93.95
21
-137.6
0
LINE
8
BLACK
10
93.95
20
-137.6
11
93.95
21
-137.9
0
LINE
8
BLACK
10
82.875
20
-137.4
11
81.925
21
-137.4
0
LINE
8
BLACK
10
81.925
20
-137.4
11
81.925
21
-136.4
0
LINE
8
BLACK
10
81.925
20
-136.4
11
82.875
21
-136.4
0
LINE
8
BLACK
10
82.875
20
-136.4
11
82.875
21
-137.4
0
LINE
8
BLACK
10
93.95
20
-137.4
11
92.45
21
-137.4
0
LINE
8
BLACK
10
92.45
20
-137.4
11
92.45
21
-137.1
0
LINE
8
BLACK
10
92.45
20
-137.1
11
93.95
21
-137.1
0
LINE
8
BLACK
10
93.95
20
-137.1
11
93.95
21
-137.4
0
LINE
8
BLACK
10
81.275
20
-137.4
11
80.325
21
-137.4
0
LINE
8
BLACK
10
80.325
20
-137.4
11
80.325
21
-136.4
0
LINE
8
BLACK
10
80.325
20
-136.4
11
81.275
21
-136.4
0
LINE
8
BLACK
10
81.275
20
-136.4
11
81.275
21
-137.4
0
LINE
8
BLACK
10
85.55
20
-137.4
11
84.05
21
-137.4
0
LINE
8
BLACK
10
84.05
20
-137.4
11
84.05
21
-137.1
0
LINE
8
BLACK
10
84.05
20
-137.1
11
85.55
21
-137.1
0
LINE
8
BLACK
10
85.55
20
-137.1
11
85.55
21
-137.4
0
LINE
8
BLACK
10
105.85
20
-137.325
11
105.4
21
-137.325
0
LINE
8
BLACK
10
105.4
20
-137.325
11
105.4
21
-135.875
0
LINE
8
BLACK
10
105.4
20
-135.875
11
105.85
21
-135.875
0
LINE
8
BLACK
10
105.85
20
-135.875
11
105.85
21
-137.325
0
LINE
8
BLACK
10
106.5
20
-137.325
11
106.05
21
-137.325
0
LINE
8
BLACK
10
106.05
20
-137.325
11
106.05
21
-135.875
0
LINE
8
BLACK
10
106.05
20
-135.875
11
106.5
21
-135.875
0
LINE
8
BLACK
10
106.5
20
-135.875
11
106.5
21
-137.325
0
LINE
8
BLACK
10
101.9
20
-137.325
11
101.45
21
-137.325
0
LINE
8
BLACK
10
101.45
20
-137.325
11
101.45
21
-135.875
0
LINE
8
BLACK
10
101.45
20
-135.875
11
101.9
21
-135.875
0
LINE
8
BLACK
10
101.9
20
-135.875
11
101.9
21
-137.325
0
LINE
8
BLACK
10
107.15
20
-137.325
11
106.7
21
-137.325
0
LINE
8
BLACK
10
106.7
20
-137.325
11
106.7
21
-135.875
0
LINE
8
BLACK
10
106.7
20
-135.875
11
107.15
21
-135.875
0
LINE
8
BLACK
10
107.15
20
-135.875
11
107.15
21
-137.325
0
LINE
8
BLACK
10
107.8
20
-137.325
11
107.35
21
-137.325
0
LINE
8
BLACK
10
107.35
20
-137.325
11
107.35
21
-135.875
0
LINE
8
BLACK
10
107.35
20
-135.875
11
107.8
21
-135.875
0
LINE
8
BLACK
10
107.8
20
-135.875
11
107.8
21
-137.325
0
LINE
8
BLACK
10
101.25
20
-137.325
11
100.8
21
-137.325
0
LINE
8
BLACK
10
100.8
20
-137.325
11
100.8
21
-135.875
0
LINE
8
BLACK
10
100.8
20
-135.875
11
101.25
21
-135.875
0
LINE
8
BLACK
10
101.25
20
-135.875
11
101.25
21
-137.325
0
LINE
8
BLACK
10
99.95
20
-137.325
11
99.5
21
-137.325
0
LINE
8
BLACK
10
99.5
20
-137.325
11
99.5
21
-135.875
0
LINE
8
BLACK
10
99.5
20
-135.875
11
99.95
21
-135.875
0
LINE
8
BLACK
10
99.95
20
-135.875
11
99.95
21
-137.325
0
LINE
8
BLACK
10
100.6
20
-137.325
11
100.15
21
-137.325
0
LINE
8
BLACK
10
100.15
20
-137.325
11
100.15
21
-135.875
0
LINE
8
BLACK
10
100.15
20
-135.875
11
100.6
21
-135.875
0
LINE
8
BLACK
10
100.6
20
-135.875
11
100.6
21
-137.325
0
LINE
8
BLACK
10
104.2
20
-136.975
11
103.2
21
-136.975
0
LINE
8
BLACK
10
103.2
20
-136.975
11
103.2
21
-136.025
0
LINE
8
BLACK
10
103.2
20
-136.025
11
104.2
21
-136.025
0
LINE
8
BLACK
10
104.2
20
-136.025
11
104.2
21
-136.975
0
LINE
8
BLACK
10
118.225
20
-136.95
11
117.275
21
-136.95
0
LINE
8
BLACK
10
117.275
20
-136.95
11
117.275
21
-135.95
0
LINE
8
BLACK
10
117.275
20
-135.95
11
118.225
21
-135.95
0
LINE
8
BLACK
10
118.225
20
-135.95
11
118.225
21
-136.95
0
LINE
8
BLACK
10
119.825
20
-136.95
11
118.875
21
-136.95
0
LINE
8
BLACK
10
118.875
20
-136.95
11
118.875
21
-135.95
0
LINE
8
BLACK
10
118.875
20
-135.95
11
119.825
21
-135.95
0
LINE
8
BLACK
10
119.825
20
-135.95
11
119.825
21
-136.95
0
LINE
8
BLACK
10
109.875
20
-136.9
11
108.925
21
-136.9
0
LINE
8
BLACK
10
108.925
20
-136.9
11
108.925
21
-135.9
0
LINE
8
BLACK
10
108.925
20
-135.9
11
109.875
21
-135.9
0
LINE
8
BLACK
10
109.875
20
-135.9
11
109.875
21
-136.9
0
LINE
8
BLACK
10
111.475
20
-136.9
11
110.525
21
-136.9
0
LINE
8
BLACK
10
110.525
20
-136.9
11
110.525
21
-135.9
0
LINE
8
BLACK
10
110.525
20
-135.9
11
111.475
21
-135.9
0
LINE
8
BLACK
10
111.475
20
-135.9
11
111.475
21
-136.9
0
LINE
8
BLACK
10
121.325
20
-136.65
11
120.375
21
-136.65
0
LINE
8
BLACK
10
120.375
20
-136.65
11
120.375
21
-135.65
0
LINE
8
BLACK
10
120.375
20
-135.65
11
121.325
21
-135.65
0
LINE
8
BLACK
10
121.325
20
-135.65
11
121.325
21
-136.65
0
LINE
8
BLACK
10
122.925
20
-136.65
11
121.975
21
-136.65
0
LINE
8
BLACK
10
121.975
20
-136.65
11
121.975
21
-135.65
0
LINE
8
BLACK
10
121.975
20
-135.65
11
122.925
21
-135.65
0
LINE
8
BLACK
10
122.925
20
-135.65
11
122.925
21
-136.65
0
LINE
8
BLACK
10
90.9
20
-136.55
11
90.6
21
-136.55
0
LINE
8
BLACK
10
90.6
20
-136.55
11
90.6
21
-135.05
0
LINE
8
BLACK
10
90.6
20
-135.05
11
90.9
21
-135.05
0
LINE
8
BLACK
10
90.9
20
-135.05
11
90.9
21
-136.55
0
LINE
8
BLACK
10
91.4
20
-136.55
11
91.1
21
-136.55
0
LINE
8
BLACK
10
91.1
20
-136.55
11
91.1
21
-135.05
0
LINE
8
BLACK
10
91.1
20
-135.05
11
91.4
21
-135.05
0
LINE
8
BLACK
10
91.4
20
-135.05
11
91.4
21
-136.55
0
LINE
8
BLACK
10
90.4
20
-136.55
11
90.1
21
-136.55
0
LINE
8
BLACK
10
90.1
20
-136.55
11
90.1
21
-135.05
0
LINE
8
BLACK
10
90.1
20
-135.05
11
90.4
21
-135.05
0
LINE
8
BLACK
10
90.4
20
-135.05
11
90.4
21
-136.55
0
LINE
8
BLACK
10
89.9
20
-136.55
11
89.6
21
-136.55
0
LINE
8
BLACK
10
89.6
20
-136.55
11
89.6
21
-135.05
0
LINE
8
BLACK
10
89.6
20
-135.05
11
89.9
21
-135.05
0
LINE
8
BLACK
10
89.9
20
-135.05
11
89.9
21
-136.55
0
LINE
8
BLACK
10
89.4
20
-136.55
11
89.1
21
-136.55
0
LINE
8
BLACK
10
89.1
20
-136.55
11
89.1
21
-135.05
0
LINE
8
BLACK
10
89.1
20
-135.05
11
89.4
21
-135.05
0
LINE
8
BLACK
10
89.4
20
-135.05
11
89.4
21
-136.55
0
LINE
8
BLACK
10
88.9
20
-136.55
11
88.6
21
-136.55
0
LINE
8
BLACK
10
88.6
20
-136.55
11
88.6
21
-135.05
0
LINE
8
BLACK
10
88.6
20
-135.05
11
88.9
21
-135.05
0
LINE
8
BLACK
10
88.9
20
-135.05
11
88.9
21
-136.55
0
LINE
8
BLACK
10
88.4
20
-136.55
11
88.1
21
-136.55
0
LINE
8
BLACK
10
88.1
20
-136.55
11
88.1
21
-135.05
0
LINE
8
BLACK
10
88.1
20
-135.05
11
88.4
21
-135.05
0
LINE
8
BLACK
10
88.4
20
-135.05
11
88.4
21
-136.55
0
LINE
8
BLACK
10
87.9
20
-136.55
11
87.6
21
-136.55
0
LINE
8
BLACK
10
87.6
20
-136.55
11
87.6
21
-135.05
0
LINE
8
BLACK
10
87.6
20
-135.05
11
87.9
21
-135.05
0
LINE
8
BLACK
10
87.9
20
-135.05
11
87.9
21
-136.55
0
LINE
8
BLACK
10
87.4
20
-136.55
11
87.1
21
-136.55
0
LINE
8
BLACK
10
87.1
20
-136.55
11
87.1
21
-135.05
0
LINE
8
BLACK
10
87.1
20
-135.05
11
87.4
21
-135.05
0
LINE
8
BLACK
10
87.4
20
-135.05
11
87.4
21
-136.55
0
LINE
8
BLACK
10
86.9
20
-136.55
11
86.6
21
-136.55
0
LINE
8
BLACK
10
86.6
20
-136.55
11
86.6
21
-135.05
0
LINE
8
BLACK
10
86.6
20
-135.05
11
86.9
21
-135.05
0
LINE
8
BLACK
10
86.9
20
-135.05
11
86.9
21
-136.55
0
LINE
8
BLACK
10
86.4
20
-136.55
11
86.1
21
-136.55
0
LINE
8
BLACK
10
86.1
20
-136.55
11
86.1
21
-135.05
0
LINE
8
BLACK
10
86.1
20
-135.05
11
86.4
21
-135.05
0
LINE
8
BLACK
10
86.4
20
-135.05
11
86.4
21
-136.55
0
LINE
8
BLACK
10
91.9
20
-136.55
11
91.6
21
-136.55
0
LINE
8
BLACK
10
91.6
20
-136.55
11
91.6
21
-135.05
0
LINE
8
BLACK
10
91.6
20
-135.05
11
91.9
21
-135.05
0
LINE
8
BLACK
10
91.9
20
-135.05
11
91.9
21
-136.55
0
LINE
8
BLACK
10
94.4
20
-136.375
11
93.4
21
-136.375
0
LINE
8
BLACK
10
93.4
20
-136.375
11
93.4
21
-135.425
0
LINE
8
BLACK
10
93.4
20
-135.425
11
94.4
21
-135.425
0
LINE
8
BLACK
10
94.4
20
-135.425
11
94.4
21
-136.375
0
LINE
8
BLACK
10
109.875
20
-135.3
11
108.925
21
-135.3
0
LINE
8
BLACK
10
108.925
20
-135.3
11
108.925
21
-134.3
0
LINE
8
BLACK
10
108.925
20
-134.3
11
109.875
21
-134.3
0
LINE
8
BLACK
10
109.875
20
-134.3
11
109.875
21
-135.3
0
LINE
8
BLACK
10
111.475
20
-135.3
11
110.525
21
-135.3
0
LINE
8
BLACK
10
110.525
20
-135.3
11
110.525
21
-134.3
0
LINE
8
BLACK
10
110.525
20
-134.3
11
111.475
21
-134.3
0
LINE
8
BLACK
10
111.475
20
-134.3
11
111.475
21
-135.3
0
LINE
8
BLACK
10
114.725
20
-135.25
11
113.775
21
-135.25
0
LINE
8
BLACK
10
113.775
20
-135.25
11
113.775
21
-134.25
0
LINE
8
BLACK
10
113.775
20
-134.25
11
114.725
21
-134.25
0
LINE
8
BLACK
10
114.725
20
-134.25
11
114.725
21
-135.25
0
LINE
8
BLACK
10
117.825
20
-135.25
11
116.875
21
-135.25
0
LINE
8
BLACK
10
116.875
20
-135.25
11
116.875
21
-134.25
0
LINE
8
BLACK
10
116.875
20
-134.25
11
117.825
21
-134.25
0
LINE
8
BLACK
10
117.825
20
-134.25
11
117.825
21
-135.25
0
LINE
8
BLACK
10
116.225
20
-135.25
11
115.275
21
-135.25
0
LINE
8
BLACK
10
115.275
20
-135.25
11
115.275
21
-134.25
0
LINE
8
BLACK
10
115.275
20
-134.25
11
116.225
21
-134.25
0
LINE
8
BLACK
10
116.225
20
-134.25
11
116.225
21
-135.25
0
LINE
8
BLACK
10
113.125
20
-135.25
11
112.175
21
-135.25
0
LINE
8
BLACK
10
112.175
20
-135.25
11
112.175
21
-134.25
0
LINE
8
BLACK
10
112.175
20
-134.25
11
113.125
21
-134.25
0
LINE
8
BLACK
10
113.125
20
-134.25
11
113.125
21
-135.25
0
LINE
8
BLACK
10
121.325
20
-135.15
11
120.375
21
-135.15
0
LINE
8
BLACK
10
120.375
20
-135.15
11
120.375
21
-134.15
0
LINE
8
BLACK
10
120.375
20
-134.15
11
121.325
21
-134.15
0
LINE
8
BLACK
10
121.325
20
-134.15
11
121.325
21
-135.15
0
LINE
8
BLACK
10
122.925
20
-135.15
11
121.975
21
-135.15
0
LINE
8
BLACK
10
121.975
20
-135.15
11
121.975
21
-134.15
0
LINE
8
BLACK
10
121.975
20
-134.15
11
122.925
21
-134.15
0
LINE
8
BLACK
10
122.925
20
-134.15
11
122.925
21
-135.15
0
LINE
8
BLACK
10
94.4
20
-134.775
11
93.4
21
-134.775
0
LINE
8
BLACK
10
93.4
20
-134.775
11
93.4
21
-133.825
0
LINE
8
BLACK
10
93.4
20
-133.825
11
94.4
21
-133.825
0
LINE
8
BLACK
10
94.4
20
-133.825
11
94.4
21
-134.775
0
LINE
8
BLACK
10
78.425
20
-134.7
11
77.475
21
-134.7
0
LINE
8
BLACK
10
77.475
20
-134.7
11
77.475
21
-133.7
0
LINE
8
BLACK
10
77.475
20
-133.7
11
78.425
21
-133.7
0
LINE
8
BLACK
10
78.425
20
-133.7
11
78.425
21
-134.7
0
LINE
8
BLACK
10
80.025
20
-134.7
11
79.075
21
-134.7
0
LINE
8
BLACK
10
79.075
20
-134.7
11
79.075
21
-133.7
0
LINE
8
BLACK
10
79.075
20
-133.7
11
80.025
21
-133.7
0
LINE
8
BLACK
10
80.025
20
-133.7
11
80.025
21
-134.7
0
LINE
8
BLACK
10
105.85
20
-134.425
11
105.4
21
-134.425
0
LINE
8
BLACK
10
105.4
20
-134.425
11
105.4
21
-132.975
0
LINE
8
BLACK
10
105.4
20
-132.975
11
105.85
21
-132.975
0
LINE
8
BLACK
10
105.85
20
-132.975
11
105.85
21
-134.425
0
LINE
8
BLACK
10
101.25
20
-134.425
11
100.8
21
-134.425
0
LINE
8
BLACK
10
100.8
20
-134.425
11
100.8
21
-132.975
0
LINE
8
BLACK
10
100.8
20
-132.975
11
101.25
21
-132.975
0
LINE
8
BLACK
10
101.25
20
-132.975
11
101.25
21
-134.425
0
LINE
8
BLACK
10
100.6
20
-134.425
11
100.15
21
-134.425
0
LINE
8
BLACK
10
100.15
20
-134.425
11
100.15
21
-132.975
0
LINE
8
BLACK
10
100.15
20
-132.975
11
100.6
21
-132.975
0
LINE
8
BLACK
10
100.6
20
-132.975
11
100.6
21
-134.425
0
LINE
8
BLACK
10
99.95
20
-134.425
11
99.5
21
-134.425
0
LINE
8
BLACK
10
99.5
20
-134.425
11
99.5
21
-132.975
0
LINE
8
BLACK
10
99.5
20
-132.975
11
99.95
21
-132.975
0
LINE
8
BLACK
10
99.95
20
-132.975
11
99.95
21
-134.425
0
LINE
8
BLACK
10
101.9
20
-134.425
11
101.45
21
-134.425
0
LINE
8
BLACK
10
101.45
20
-134.425
11
101.45
21
-132.975
0
LINE
8
BLACK
10
101.45
20
-132.975
11
101.9
21
-132.975
0
LINE
8
BLACK
10
101.9
20
-132.975
11
101.9
21
-134.425
0
LINE
8
BLACK
10
106.5
20
-134.425
11
106.05
21
-134.425
0
LINE
8
BLACK
10
106.05
20
-134.425
11
106.05
21
-132.975
0
LINE
8
BLACK
10
106.05
20
-132.975
11
106.5
21
-132.975
0
LINE
8
BLACK
10
106.5
20
-132.975
11
106.5
21
-134.425
0
LINE
8
BLACK
10
107.15
20
-134.425
11
106.7
21
-134.425
0
LINE
8
BLACK
10
106.7
20
-134.425
11
106.7
21
-132.975
0
LINE
8
BLACK
10
106.7
20
-132.975
11
107.15
21
-132.975
0
LINE
8
BLACK
10
107.15
20
-132.975
11
107.15
21
-134.425
0
LINE
8
BLACK
10
107.8
20
-134.425
11
107.35
21
-134.425
0
LINE
8
BLACK
10
107.35
20
-134.425
11
107.35
21
-132.975
0
LINE
8
BLACK
10
107.35
20
-132.975
11
107.8
21
-132.975
0
LINE
8
BLACK
10
107.8
20
-132.975
11
107.8
21
-134.425
0
LINE
8
BLACK
10
104.2
20
-134.375
11
103.2
21
-134.375
0
LINE
8
BLACK
10
103.2
20
-134.375
11
103.2
21
-133.425
0
LINE
8
BLACK
10
103.2
20
-133.425
11
104.2
21
-133.425
0
LINE
8
BLACK
10
104.2
20
-133.425
11
104.2
21
-134.375
0
LINE
8
BLACK
10
98.6
20
-134.375
11
97.6
21
-134.375
0
LINE
8
BLACK
10
97.6
20
-134.375
11
97.6
21
-133.425
0
LINE
8
BLACK
10
97.6
20
-133.425
11
98.6
21
-133.425
0
LINE
8
BLACK
10
98.6
20
-133.425
11
98.6
21
-134.375
0
LINE
8
BLACK
10
89.75
20
-133.825
11
88.75
21
-133.825
0
LINE
8
BLACK
10
88.75
20
-133.825
11
88.75
21
-132.875
0
LINE
8
BLACK
10
88.75
20
-132.875
11
89.75
21
-132.875
0
LINE
8
BLACK
10
89.75
20
-132.875
11
89.75
21
-133.825
0
LINE
8
BLACK
10
111.475
20
-133.8
11
110.525
21
-133.8
0
LINE
8
BLACK
10
110.525
20
-133.8
11
110.525
21
-132.8
0
LINE
8
BLACK
10
110.525
20
-132.8
11
111.475
21
-132.8
0
LINE
8
BLACK
10
111.475
20
-132.8
11
111.475
21
-133.8
0
LINE
8
BLACK
10
109.875
20
-133.8
11
108.925
21
-133.8
0
LINE
8
BLACK
10
108.925
20
-133.8
11
108.925
21
-132.8
0
LINE
8
BLACK
10
108.925
20
-132.8
11
109.875
21
-132.8
0
LINE
8
BLACK
10
109.875
20
-132.8
11
109.875
21
-133.8
0
LINE
8
BLACK
10
114.675
20
-133.75
11
113.725
21
-133.75
0
LINE
8
BLACK
10
113.725
20
-133.75
11
113.725
21
-132.75
0
LINE
8
BLACK
10
113.725
20
-132.75
11
114.675
21
-132.75
0
LINE
8
BLACK
10
114.675
20
-132.75
11
114.675
21
-133.75
0
LINE
8
BLACK
10
116.275
20
-133.75
11
115.325
21
-133.75
0
LINE
8
BLACK
10
115.325
20
-133.75
11
115.325
21
-132.75
0
LINE
8
BLACK
10
115.325
20
-132.75
11
116.275
21
-132.75
0
LINE
8
BLACK
10
116.275
20
-132.75
11
116.275
21
-133.75
0
LINE
8
BLACK
10
122.925
20
-133.65
11
121.975
21
-133.65
0
LINE
8
BLACK
10
121.975
20
-133.65
11
121.975
21
-132.65
0
LINE
8
BLACK
10
121.975
20
-132.65
11
122.925
21
-132.65
0
LINE
8
BLACK
10
122.925
20
-132.65
11
122.925
21
-133.65
0
LINE
8
BLACK
10
121.325
20
-133.65
11
120.375
21
-133.65
0
LINE
8
BLACK
10
120.375
20
-133.65
11
120.375
21
-132.65
0
LINE
8
BLACK
10
120.375
20
-132.65
11
121.325
21
-132.65
0
LINE
8
BLACK
10
121.325
20
-132.65
11
121.325
21
-133.65
0
LINE
8
BLACK
10
80.025
20
-133.2
11
79.075
21
-133.2
0
LINE
8
BLACK
10
79.075
20
-133.2
11
79.075
21
-132.2
0
LINE
8
BLACK
10
79.075
20
-132.2
11
80.025
21
-132.2
0
LINE
8
BLACK
10
80.025
20
-132.2
11
80.025
21
-133.2
0
LINE
8
BLACK
10
78.425
20
-133.2
11
77.475
21
-133.2
0
LINE
8
BLACK
10
77.475
20
-133.2
11
77.475
21
-132.2
0
LINE
8
BLACK
10
77.475
20
-132.2
11
78.425
21
-132.2
0
LINE
8
BLACK
10
78.425
20
-132.2
11
78.425
21
-133.2
0
LINE
8
BLACK
10
98.6
20
-132.775
11
97.6
21
-132.775
0
LINE
8
BLACK
10
97.6
20
-132.775
11
97.6
21
-131.825
0
LINE
8
BLACK
10
97.6
20
-131.825
11
98.6
21
-131.825
0
LINE
8
BLACK
10
98.6
20
-131.825
11
98.6
21
-132.775
0
LINE
8
BLACK
10
104.2
20
-132.775
11
103.2
21
-132.775
0
LINE
8
BLACK
10
103.2
20
-132.775
11
103.2
21
-131.825
0
LINE
8
BLACK
10
103.2
20
-131.825
11
104.2
21
-131.825
0
LINE
8
BLACK
10
104.2
20
-131.825
11
104.2
21
-132.775
0
LINE
8
BLACK
10
109.9
20
-132.275
11
108.9
21
-132.275
0
LINE
8
BLACK
10
108.9
20
-132.275
11
108.9
21
-131.325
0
LINE
8
BLACK
10
108.9
20
-131.325
11
109.9
21
-131.325
0
LINE
8
BLACK
10
109.9
20
-131.325
11
109.9
21
-132.275
0
LINE
8
BLACK
10
89.75
20
-132.225
11
88.75
21
-132.225
0
LINE
8
BLACK
10
88.75
20
-132.225
11
88.75
21
-131.275
0
LINE
8
BLACK
10
88.75
20
-131.275
11
89.75
21
-131.275
0
LINE
8
BLACK
10
89.75
20
-131.275
11
89.75
21
-132.225
0
LINE
8
BLACK
10
114.7
20
-132.225
11
113.7
21
-132.225
0
LINE
8
BLACK
10
113.7
20
-132.225
11
113.7
21
-131.275
0
LINE
8
BLACK
10
113.7
20
-131.275
11
114.7
21
-131.275
0
LINE
8
BLACK
10
114.7
20
-131.275
11
114.7
21
-132.225
0
LINE
8
BLACK
10
116.3
20
-132.225
11
115.3
21
-132.225
0
LINE
8
BLACK
10
115.3
20
-132.225
11
115.3
21
-131.275
0
LINE
8
BLACK
10
115.3
20
-131.275
11
116.3
21
-131.275
0
LINE
8
BLACK
10
116.3
20
-131.275
11
116.3
21
-132.225
0
LINE
8
BLACK
10
122.925
20
-132.15
11
121.975
21
-132.15
0
LINE
8
BLACK
10
121.975
20
-132.15
11
121.975
21
-131.15
0
LINE
8
BLACK
10
121.975
20
-131.15
11
122.925
21
-131.15
0
LINE
8
BLACK
10
122.925
20
-131.15
11
122.925
21
-132.15
0
LINE
8
BLACK
10
121.325
20
-132.15
11
120.375
21
-132.15
0
LINE
8
BLACK
10
120.375
20
-132.15
11
120.375
21
-131.15
0
LINE
8
BLACK
10
120.375
20
-131.15
11
121.325
21
-131.15
0
LINE
8
BLACK
10
121.325
20
-131.15
11
121.325
21
-132.15
0
LINE
8
BLACK
10
80.025
20
-131.7
11
79.075
21
-131.7
0
LINE
8
BLACK
10
79.075
20
-131.7
11
79.075
21
-130.7
0
LINE
8
BLACK
10
79.075
20
-130.7
11
80.025
21
-130.7
0
LINE
8
BLACK
10
80.025
20
-130.7
11
80.025
21
-131.7
0
LINE
8
BLACK
10
78.425
20
-131.7
11
77.475
21
-131.7
0
LINE
8
BLACK
10
77.475
20
-131.7
11
77.475
21
-130.7
0
LINE
8
BLACK
10
77.475
20
-130.7
11
78.425
21
-130.7
0
LINE
8
BLACK
10
78.425
20
-130.7
11
78.425
21
-131.7
0
LINE
8
BLACK
10
98.6
20
-131.275
11
97.6
21
-131.275
0
LINE
8
BLACK
10
97.6
20
-131.275
11
97.6
21
-130.325
0
LINE
8
BLACK
10
97.6
20
-130.325
11
98.6
21
-130.325
0
LINE
8
BLACK
10
98.6
20
-130.325
11
98.6
21
-131.275
0
LINE
8
BLACK
10
104.2
20
-131.275
11
103.2
21
-131.275
0
LINE
8
BLACK
10
103.2
20
-131.275
11
103.2
21
-130.325
0
LINE
8
BLACK
10
103.2
20
-130.325
11
104.2
21
-130.325
0
LINE
8
BLACK
10
104.2
20
-130.325
11
104.2
21
-131.275
0
LINE
8
BLACK
10
109.9
20
-130.675
11
108.9
21
-130.675
0
LINE
8
BLACK
10
108.9
20
-130.675
11
108.9
21
-129.725
0
LINE
8
BLACK
10
108.9
20
-129.725
11
109.9
21
-129.725
0
LINE
8
BLACK
10
109.9
20
-129.725
11
109.9
21
-130.675
0
LINE
8
BLACK
10
116.3
20
-130.625
11
115.3
21
-130.625
0
LINE
8
BLACK
10
115.3
20
-130.625
11
115.3
21
-129.675
0
LINE
8
BLACK
10
115.3
20
-129.675
11
116.3
21
-129.675
0
LINE
8
BLACK
10
116.3
20
-129.675
11
116.3
21
-130.625
0
LINE
8
BLACK
10
114.7
20
-130.625
11
113.7
21
-130.625
0
LINE
8
BLACK
10
113.7
20
-130.625
11
113.7
21
-129.675
0
LINE
8
BLACK
10
113.7
20
-129.675
11
114.7
21
-129.675
0
LINE
8
BLACK
10
114.7
20
-129.675
11
114.7
21
-130.625
0
LINE
8
BLACK
10
107.15
20
-130.025
11
106.7
21
-130.025
0
LINE
8
BLACK
10
106.7
20
-130.025
11
106.7
21
-128.575
0
LINE
8
BLACK
10
106.7
20
-128.575
11
107.15
21
-128.575
0
LINE
8
BLACK
10
107.15
20
-128.575
11
107.15
21
-130.025
0
LINE
8
BLACK
10
106.5
20
-130.025
11
106.05
21
-130.025
0
LINE
8
BLACK
10
106.05
20
-130.025
11
106.05
21
-128.575
0
LINE
8
BLACK
10
106.05
20
-128.575
11
106.5
21
-128.575
0
LINE
8
BLACK
10
106.5
20
-128.575
11
106.5
21
-130.025
0
LINE
8
BLACK
10
105.85
20
-130.025
11
105.4
21
-130.025
0
LINE
8
BLACK
10
105.4
20
-130.025
11
105.4
21
-128.575
0
LINE
8
BLACK
10
105.4
20
-128.575
11
105.85
21
-128.575
0
LINE
8
BLACK
10
105.85
20
-128.575
11
105.85
21
-130.025
0
LINE
8
BLACK
10
107.8
20
-130.025
11
107.35
21
-130.025
0
LINE
8
BLACK
10
107.35
20
-130.025
11
107.35
21
-128.575
0
LINE
8
BLACK
10
107.35
20
-128.575
11
107.8
21
-128.575
0
LINE
8
BLACK
10
107.8
20
-128.575
11
107.8
21
-130.025
0
LINE
8
BLACK
10
101.9
20
-130.025
11
101.45
21
-130.025
0
LINE
8
BLACK
10
101.45
20
-130.025
11
101.45
21
-128.575
0
LINE
8
BLACK
10
101.45
20
-128.575
11
101.9
21
-128.575
0
LINE
8
BLACK
10
101.9
20
-128.575
11
101.9
21
-130.025
0
LINE
8
BLACK
10
101.25
20
-130.025
11
100.8
21
-130.025
0
LINE
8
BLACK
10
100.8
20
-130.025
11
100.8
21
-128.575
0
LINE
8
BLACK
10
100.8
20
-128.575
11
101.25
21
-128.575
0
LINE
8
BLACK
10
101.25
20
-128.575
11
101.25
21
-130.025
0
LINE
8
BLACK
10
100.6
20
-130.025
11
100.15
21
-130.025
0
LINE
8
BLACK
10
100.15
20
-130.025
11
100.15
21
-128.575
0
LINE
8
BLACK
10
100.15
20
-128.575
11
100.6
21
-128.575
0
LINE
8
BLACK
10
100.6
20
-128.575
11
100.6
21
-130.025
0
LINE
8
BLACK
10
99.95
20
-130.025
11
99.5
21
-130.025
0
LINE
8
BLACK
10
99.5
20
-130.025
11
99.5
21
-128.575
0
LINE
8
BLACK
10
99.5
20
-128.575
11
99.95
21
-128.575
0
LINE
8
BLACK
10
99.95
20
-128.575
11
99.95
21
-130.025
0
LINE
8
BLACK
10
104.2
20
-129.675
11
103.2
21
-129.675
0
LINE
8
BLACK
10
103.2
20
-129.675
11
103.2
21
-128.725
0
LINE
8
BLACK
10
103.2
20
-128.725
11
104.2
21
-128.725
0
LINE
8
BLACK
10
104.2
20
-128.725
11
104.2
21
-129.675
0
LINE
8
BLACK
10
98.6
20
-129.675
11
97.6
21
-129.675
0
LINE
8
BLACK
10
97.6
20
-129.675
11
97.6
21
-128.725
0
LINE
8
BLACK
10
97.6
20
-128.725
11
98.6
21
-128.725
0
LINE
8
BLACK
10
98.6
20
-128.725
11
98.6
21
-129.675
0
LINE
8
BLACK
10
94.2
20
-128.225
11
93.2
21
-128.225
0
LINE
8
BLACK
10
93.2
20
-128.225
11
93.2
21
-127.275
0
LINE
8
BLACK
10
93.2
20
-127.275
11
94.2
21
-127.275
0
LINE
8
BLACK
10
94.2
20
-127.275
11
94.2
21
-128.225
0
LINE
8
BLACK
10
97.275
20
-128.2
11
96.325
21
-128.2
0
LINE
8
BLACK
10
96.325
20
-128.2
11
96.325
21
-127.2
0
LINE
8
BLACK
10
96.325
20
-127.2
11
97.275
21
-127.2
0
LINE
8
BLACK
10
97.275
20
-127.2
11
97.275
21
-128.2
0
LINE
8
BLACK
10
95.675
20
-128.2
11
94.725
21
-128.2
0
LINE
8
BLACK
10
94.725
20
-128.2
11
94.725
21
-127.2
0
LINE
8
BLACK
10
94.725
20
-127.2
11
95.675
21
-127.2
0
LINE
8
BLACK
10
95.675
20
-127.2
11
95.675
21
-128.2
0
LINE
8
BLACK
10
95.675
20
-126.7
11
94.725
21
-126.7
0
LINE
8
BLACK
10
94.725
20
-126.7
11
94.725
21
-125.7
0
LINE
8
BLACK
10
94.725
20
-125.7
11
95.675
21
-125.7
0
LINE
8
BLACK
10
95.675
20
-125.7
11
95.675
21
-126.7
0
LINE
8
BLACK
10
97.275
20
-126.7
11
96.325
21
-126.7
0
LINE
8
BLACK
10
96.325
20
-126.7
11
96.325
21
-125.7
0
LINE
8
BLACK
10
96.325
20
-125.7
11
97.275
21
-125.7
0
LINE
8
BLACK
10
97.275
20
-125.7
11
97.275
21
-126.7
0
LINE
8
BLACK
10
94.2
20
-126.625
11
93.2
21
-126.625
0
LINE
8
BLACK
10
93.2
20
-126.625
11
93.2
21
-125.675
0
LINE
8
BLACK
10
93.2
20
-125.675
11
94.2
21
-125.675
0
LINE
8
BLACK
10
94.2
20
-125.675
11
94.2
21
-126.625
0
LINE
8
BLACK
10
121.575
20
-125.455
11
120.025
21
-125.455
0
LINE
8
BLACK
10
120.025
20
-125.455
11
120.025
21
-124.855
0
LINE
8
BLACK
10
120.025
20
-124.855
11
121.575
21
-124.855
0
LINE
8
BLACK
10
121.575
20
-124.855
11
121.575
21
-125.455
0
LINE
8
BLACK
10
116.175
20
-125.455
11
114.625
21
-125.455
0
LINE
8
BLACK
10
114.625
20
-125.455
11
114.625
21
-124.855
0
LINE
8
BLACK
10
114.625
20
-124.855
11
116.175
21
-124.855
0
LINE
8
BLACK
10
116.175
20
-124.855
11
116.175
21
-125.455
0
LINE
8
BLACK
10
83.075
20
-125.455
11
81.525
21
-125.455
0
LINE
8
BLACK
10
81.525
20
-125.455
11
81.525
21
-124.855
0
LINE
8
BLACK
10
81.525
20
-124.855
11
83.075
21
-124.855
0
LINE
8
BLACK
10
83.075
20
-124.855
11
83.075
21
-125.455
0
LINE
8
BLACK
10
88.475
20
-125.455
11
86.925
21
-125.455
0
LINE
8
BLACK
10
86.925
20
-125.455
11
86.925
21
-124.855
0
LINE
8
BLACK
10
86.925
20
-124.855
11
88.475
21
-124.855
0
LINE
8
BLACK
10
88.475
20
-124.855
11
88.475
21
-125.455
0
LINE
8
BLACK
10
101.975
20
-125.455
11
100.425
21
-125.455
0
LINE
8
BLACK
10
100.425
20
-125.455
11
100.425
21
-124.855
0
LINE
8
BLACK
10
100.425
20
-124.855
11
101.975
21
-124.855
0
LINE
8
BLACK
10
101.975
20
-124.855
11
101.975
21
-125.455
0
LINE
8
BLACK
10
107.375
20
-125.455
11
105.825
21
-125.455
0
LINE
8
BLACK
10
105.825
20
-125.455
11
105.825
21
-124.855
0
LINE
8
BLACK
10
105.825
20
-124.855
11
107.375
21
-124.855
0
LINE
8
BLACK
10
107.375
20
-124.855
11
107.375
21
-125.455
0
LINE
8
BLACK
10
99.9
20
-125.175
11
98.9
21
-125.175
0
LINE
8
BLACK
10
98.9
20
-125.175
11
98.9
21
-124.225
0
LINE
8
BLACK
10
98.9
20
-124.225
11
99.9
21
-124.225
0
LINE
8
BLACK
10
99.9
20
-124.225
11
99.9
21
-125.175
0
LINE
8
BLACK
10
78
20
-125.175
11
77
21
-125.175
0
LINE
8
BLACK
10
77
20
-125.175
11
77
21
-124.225
0
LINE
8
BLACK
10
77
20
-124.225
11
78
21
-124.225
0
LINE
8
BLACK
10
78
20
-124.225
11
78
21
-125.175
0
LINE
8
BLACK
10
79.5
20
-125.175
11
78.5
21
-125.175
0
LINE
8
BLACK
10
78.5
20
-125.175
11
78.5
21
-124.225
0
LINE
8
BLACK
10
78.5
20
-124.225
11
79.5
21
-124.225
0
LINE
8
BLACK
10
79.5
20
-124.225
11
79.5
21
-125.175
0
LINE
8
BLACK
10
96.9
20
-125.175
11
95.9
21
-125.175
0
LINE
8
BLACK
10
95.9
20
-125.175
11
95.9
21
-124.225
0
LINE
8
BLACK
10
95.9
20
-124.225
11
96.9
21
-124.225
0
LINE
8
BLACK
10
96.9
20
-124.225
11
96.9
21
-125.175
0
LINE
8
BLACK
10
81
20
-125.175
11
80
21
-125.175
0
LINE
8
BLACK
10
80
20
-125.175
11
80
21
-124.225
0
LINE
8
BLACK
10
80
20
-124.225
11
81
21
-124.225
0
LINE
8
BLACK
10
81
20
-124.225
11
81
21
-125.175
0
LINE
8
BLACK
10
98.4
20
-125.175
11
97.4
21
-125.175
0
LINE
8
BLACK
10
97.4
20
-125.175
11
97.4
21
-124.225
0
LINE
8
BLACK
10
97.4
20
-124.225
11
98.4
21
-124.225
0
LINE
8
BLACK
10
98.4
20
-124.225
11
98.4
21
-125.175
0
LINE
8
BLACK
10
123.1
20
-124.525
11
122.1
21
-124.525
0
LINE
8
BLACK
10
122.1
20
-124.525
11
122.1
21
-123.575
0
LINE
8
BLACK
10
122.1
20
-123.575
11
123.1
21
-123.575
0
LINE
8
BLACK
10
123.1
20
-123.575
11
123.1
21
-124.525
0
LINE
8
BLACK
10
108.9
20
-124.525
11
107.9
21
-124.525
0
LINE
8
BLACK
10
107.9
20
-124.525
11
107.9
21
-123.575
0
LINE
8
BLACK
10
107.9
20
-123.575
11
108.9
21
-123.575
0
LINE
8
BLACK
10
108.9
20
-123.575
11
108.9
21
-124.525
0
LINE
8
BLACK
10
90
20
-124.525
11
89
21
-124.525
0
LINE
8
BLACK
10
89
20
-124.525
11
89
21
-123.575
0
LINE
8
BLACK
10
89
20
-123.575
11
90
21
-123.575
0
LINE
8
BLACK
10
90
20
-123.575
11
90
21
-124.525
0
LINE
8
BLACK
10
83.075
20
-124.185
11
81.525
21
-124.185
0
LINE
8
BLACK
10
81.525
20
-124.185
11
81.525
21
-123.585
0
LINE
8
BLACK
10
81.525
20
-123.585
11
83.075
21
-123.585
0
LINE
8
BLACK
10
83.075
20
-123.585
11
83.075
21
-124.185
0
LINE
8
BLACK
10
116.175
20
-124.185
11
114.625
21
-124.185
0
LINE
8
BLACK
10
114.625
20
-124.185
11
114.625
21
-123.585
0
LINE
8
BLACK
10
114.625
20
-123.585
11
116.175
21
-123.585
0
LINE
8
BLACK
10
116.175
20
-123.585
11
116.175
21
-124.185
0
LINE
8
BLACK
10
121.575
20
-124.185
11
120.025
21
-124.185
0
LINE
8
BLACK
10
120.025
20
-124.185
11
120.025
21
-123.585
0
LINE
8
BLACK
10
120.025
20
-123.585
11
121.575
21
-123.585
0
LINE
8
BLACK
10
121.575
20
-123.585
11
121.575
21
-124.185
0
LINE
8
BLACK
10
88.475
20
-124.185
11
86.925
21
-124.185
0
LINE
8
BLACK
10
86.925
20
-124.185
11
86.925
21
-123.585
0
LINE
8
BLACK
10
86.925
20
-123.585
11
88.475
21
-123.585
0
LINE
8
BLACK
10
88.475
20
-123.585
11
88.475
21
-124.185
0
LINE
8
BLACK
10
107.375
20
-124.185
11
105.825
21
-124.185
0
LINE
8
BLACK
10
105.825
20
-124.185
11
105.825
21
-123.585
0
LINE
8
BLACK
10
105.825
20
-123.585
11
107.375
21
-123.585
0
LINE
8
BLACK
10
107.375
20
-123.585
11
107.375
21
-124.185
0
LINE
8
BLACK
10
101.975
20
-124.185
11
100.425
21
-124.185
0
LINE
8
BLACK
10
100.425
20
-124.185
11
100.425
21
-123.585
0
LINE
8
BLACK
10
100.425
20
-123.585
11
101.975
21
-123.585
0
LINE
8
BLACK
10
101.975
20
-123.585
11
101.975
21
-124.185
0
LINE
8
BLACK
10
78
20
-123.575
11
77
21
-123.575
0
LINE
8
BLACK
10
77
20
-123.575
11
77
21
-122.625
0
LINE
8
BLACK
10
77
20
-122.625
11
78
21
-122.625
0
LINE
8
BLACK
10
78
20
-122.625
11
78
21
-123.575
0
LINE
8
BLACK
10
81
20
-123.575
11
80
21
-123.575
0
LINE
8
BLACK
10
80
20
-123.575
11
80
21
-122.625
0
LINE
8
BLACK
10
80
20
-122.625
11
81
21
-122.625
0
LINE
8
BLACK
10
81
20
-122.625
11
81
21
-123.575
0
LINE
8
BLACK
10
96.9
20
-123.575
11
95.9
21
-123.575
0
LINE
8
BLACK
10
95.9
20
-123.575
11
95.9
21
-122.625
0
LINE
8
BLACK
10
95.9
20
-122.625
11
96.9
21
-122.625
0
LINE
8
BLACK
10
96.9
20
-122.625
11
96.9
21
-123.575
0
LINE
8
BLACK
10
79.5
20
-123.575
11
78.5
21
-123.575
0
LINE
8
BLACK
10
78.5
20
-123.575
11
78.5
21
-122.625
0
LINE
8
BLACK
10
78.5
20
-122.625
11
79.5
21
-122.625
0
LINE
8
BLACK
10
79.5
20
-122.625
11
79.5
21
-123.575
0
LINE
8
BLACK
10
98.4
20
-123.575
11
97.4
21
-123.575
0
LINE
8
BLACK
10
97.4
20
-123.575
11
97.4
21
-122.625
0
LINE
8
BLACK
10
97.4
20
-122.625
11
98.4
21
-122.625
0
LINE
8
BLACK
10
98.4
20
-122.625
11
98.4
21
-123.575
0
LINE
8
BLACK
10
99.9
20
-123.575
11
98.9
21
-123.575
0
LINE
8
BLACK
10
98.9
20
-123.575
11
98.9
21
-122.625
0
LINE
8
BLACK
10
98.9
20
-122.625
11
99.9
21
-122.625
0
LINE
8
BLACK
10
99.9
20
-122.625
11
99.9
21
-123.575
0
LINE
8
BLACK
10
114.1
20
-123.375
11
113.1
21
-123.375
0
LINE
8
BLACK
10
113.1
20
-123.375
11
113.1
21
-122.425
0
LINE
8
BLACK
10
113.1
20
-122.425
11
114.1
21
-122.425
0
LINE
8
BLACK
10
114.1
20
-122.425
11
114.1
21
-123.375
0
LINE
8
BLACK
10
108.9
20
-122.925
11
107.9
21
-122.925
0
LINE
8
BLACK
10
107.9
20
-122.925
11
107.9
21
-121.975
0
LINE
8
BLACK
10
107.9
20
-121.975
11
108.9
21
-121.975
0
LINE
8
BLACK
10
108.9
20
-121.975
11
108.9
21
-122.925
0
LINE
8
BLACK
10
123.1
20
-122.925
11
122.1
21
-122.925
0
LINE
8
BLACK
10
122.1
20
-122.925
11
122.1
21
-121.975
0
LINE
8
BLACK
10
122.1
20
-121.975
11
123.1
21
-121.975
0
LINE
8
BLACK
10
123.1
20
-121.975
11
123.1
21
-122.925
0
LINE
8
BLACK
10
90
20
-122.925
11
89
21
-122.925
0
LINE
8
BLACK
10
89
20
-122.925
11
89
21
-121.975
0
LINE
8
BLACK
10
89
20
-121.975
11
90
21
-121.975
0
LINE
8
BLACK
10
90
20
-121.975
11
90
21
-122.925
0
LINE
8
BLACK
10
107.375
20
-122.915
11
105.825
21
-122.915
0
LINE
8
BLACK
10
105.825
20
-122.915
11
105.825
21
-122.315
0
LINE
8
BLACK
10
105.825
20
-122.315
11
107.375
21
-122.315
0
LINE
8
BLACK
10
107.375
20
-122.315
11
107.375
21
-122.915
0
LINE
8
BLACK
10
121.575
20
-122.915
11
120.025
21
-122.915
0
LINE
8
BLACK
10
120.025
20
-122.915
11
120.025
21
-122.315
0
LINE
8
BLACK
10
120.025
20
-122.315
11
121.575
21
-122.315
0
LINE
8
BLACK
10
121.575
20
-122.315
11
121.575
21
-122.915
0
LINE
8
BLACK
10
116.175
20
-122.915
11
114.625
21
-122.915
0
LINE
8
BLACK
10
114.625
20
-122.915
11
114.625
21
-122.315
0
LINE
8
BLACK
10
114.625
20
-122.315
11
116.175
21
-122.315
0
LINE
8
BLACK
10
116.175
20
-122.315
11
116.175
21
-122.915
0
LINE
8
BLACK
10
83.075
20
-122.915
11
81.525
21
-122.915
0
LINE
8
BLACK
10
81.525
20
-122.915
11
81.525
21
-122.315
0
LINE
8
BLACK
10
81.525
20
-122.315
11
83.075
21
-122.315
0
LINE
8
BLACK
10
83.075
20
-122.315
11
83.075
21
-122.915
0
LINE
8
BLACK
10
101.975
20
-122.915
11
100.425
21
-122.915
0
LINE
8
BLACK
10
100.425
20
-122.915
11
100.425
21
-122.315
0
LINE
8
BLACK
10
100.425
20
-122.315
11
101.975
21
-122.315
0
LINE
8
BLACK
10
101.975
20
-122.315
11
101.975
21
-122.915
0
LINE
8
BLACK
10
88.475
20
-122.915
11
86.925
21
-122.915
0
LINE
8
BLACK
10
86.925
20
-122.915
11
86.925
21
-122.315
0
LINE
8
BLACK
10
86.925
20
-122.315
11
88.475
21
-122.315
0
LINE
8
BLACK
10
88.475
20
-122.315
11
88.475
21
-122.915
0
LINE
8
BLACK
10
78
20
-122.075
11
77
21
-122.075
0
LINE
8
BLACK
10
77
20
-122.075
11
77
21
-121.125
0
LINE
8
BLACK
10
77
20
-121.125
11
78
21
-121.125
0
LINE
8
BLACK
10
78
20
-121.125
11
78
21
-122.075
0
LINE
8
BLACK
10
79.5
20
-122.075
11
78.5
21
-122.075
0
LINE
8
BLACK
10
78.5
20
-122.075
11
78.5
21
-121.125
0
LINE
8
BLACK
10
78.5
20
-121.125
11
79.5
21
-121.125
0
LINE
8
BLACK
10
79.5
20
-121.125
11
79.5
21
-122.075
0
LINE
8
BLACK
10
81
20
-122.075
11
80
21
-122.075
0
LINE
8
BLACK
10
80
20
-122.075
11
80
21
-121.125
0
LINE
8
BLACK
10
80
20
-121.125
11
81
21
-121.125
0
LINE
8
BLACK
10
81
20
-121.125
11
81
21
-122.075
0
LINE
8
BLACK
10
98.4
20
-122.075
11
97.4
21
-122.075
0
LINE
8
BLACK
10
97.4
20
-122.075
11
97.4
21
-121.125
0
LINE
8
BLACK
10
97.4
20
-121.125
11
98.4
21
-121.125
0
LINE
8
BLACK
10
98.4
20
-121.125
11
98.4
21
-122.075
0
LINE
8
BLACK
10
96.9
20
-122.075
11
95.9
21
-122.075
0
LINE
8
BLACK
10
95.9
20
-122.075
11
95.9
21
-121.125
0
LINE
8
BLACK
10
95.9
20
-121.125
11
96.9
21
-121.125
0
LINE
8
BLACK
10
96.9
20
-121.125
11
96.9
21
-122.075
0
LINE
8
BLACK
10
99.9
20
-122.075
11
98.9
21
-122.075
0
LINE
8
BLACK
10
98.9
20
-122.075
11
98.9
21
-121.125
0
LINE
8
BLACK
10
98.9
20
-121.125
11
99.9
21
-121.125
0
LINE
8
BLACK
10
99.9
20
-121.125
11
99.9
21
-122.075
0
LINE
8
BLACK
10
114.1
20
-121.775
11
113.1
21
-121.775
0
LINE
8
BLACK
10
113.1
20
-121.775
11
113.1
21
-120.825
0
LINE
8
BLACK
10
113.1
20
-120.825
11
114.1
21
-120.825
0
LINE
8
BLACK
10
114.1
20
-120.825
11
114.1
21
-121.775
0
LINE
8
BLACK
10
83.075
20
-121.645
11
81.525
21
-121.645
0
LINE
8
BLACK
10
81.525
20
-121.645
11
81.525
21
-121.045
0
LINE
8
BLACK
10
81.525
20
-121.045
11
83.075
21
-121.045
0
LINE
8
BLACK
10
83.075
20
-121.045
11
83.075
21
-121.645
0
LINE
8
BLACK
10
107.375
20
-121.645
11
105.825
21
-121.645
0
LINE
8
BLACK
10
105.825
20
-121.645
11
105.825
21
-121.045
0
LINE
8
BLACK
10
105.825
20
-121.045
11
107.375
21
-121.045
0
LINE
8
BLACK
10
107.375
20
-121.045
11
107.375
21
-121.645
0
LINE
8
BLACK
10
88.475
20
-121.645
11
86.925
21
-121.645
0
LINE
8
BLACK
10
86.925
20
-121.645
11
86.925
21
-121.045
0
LINE
8
BLACK
10
86.925
20
-121.045
11
88.475
21
-121.045
0
LINE
8
BLACK
10
88.475
20
-121.045
11
88.475
21
-121.645
0
LINE
8
BLACK
10
101.975
20
-121.645
11
100.425
21
-121.645
0
LINE
8
BLACK
10
100.425
20
-121.645
11
100.425
21
-121.045
0
LINE
8
BLACK
10
100.425
20
-121.045
11
101.975
21
-121.045
0
LINE
8
BLACK
10
101.975
20
-121.045
11
101.975
21
-121.645
0
LINE
8
BLACK
10
121.575
20
-121.645
11
120.025
21
-121.645
0
LINE
8
BLACK
10
120.025
20
-121.645
11
120.025
21
-121.045
0
LINE
8
BLACK
10
120.025
20
-121.045
11
121.575
21
-121.045
0
LINE
8
BLACK
10
121.575
20
-121.045
11
121.575
21
-121.645
0
LINE
8
BLACK
10
116.175
20
-121.645
11
114.625
21
-121.645
0
LINE
8
BLACK
10
114.625
20
-121.645
11
114.625
21
-121.045
0
LINE
8
BLACK
10
114.625
20
-121.045
11
116.175
21
-121.045
0
LINE
8
BLACK
10
116.175
20
-121.045
11
116.175
21
-121.645
0
LINE
8
BLACK
10
79.5
20
-120.475
11
78.5
21
-120.475
0
LINE
8
BLACK
10
78.5
20
-120.475
11
78.5
21
-119.525
0
LINE
8
BLACK
10
78.5
20
-119.525
11
79.5
21
-119.525
0
LINE
8
BLACK
10
79.5
20
-119.525
11
79.5
21
-120.475
0
LINE
8
BLACK
10
96.9
20
-120.475
11
95.9
21
-120.475
0
LINE
8
BLACK
10
95.9
20
-120.475
11
95.9
21
-119.525
0
LINE
8
BLACK
10
95.9
20
-119.525
11
96.9
21
-119.525
0
LINE
8
BLACK
10
96.9
20
-119.525
11
96.9
21
-120.475
0
LINE
8
BLACK
10
81
20
-120.475
11
80
21
-120.475
0
LINE
8
BLACK
10
80
20
-120.475
11
80
21
-119.525
0
LINE
8
BLACK
10
80
20
-119.525
11
81
21
-119.525
0
LINE
8
BLACK
10
81
20
-119.525
11
81
21
-120.475
0
LINE
8
BLACK
10
98.4
20
-120.475
11
97.4
21
-120.475
0
LINE
8
BLACK
10
97.4
20
-120.475
11
97.4
21
-119.525
0
LINE
8
BLACK
10
97.4
20
-119.525
11
98.4
21
-119.525
0
LINE
8
BLACK
10
98.4
20
-119.525
11
98.4
21
-120.475
0
LINE
8
BLACK
10
78
20
-120.475
11
77
21
-120.475
0
LINE
8
BLACK
10
77
20
-120.475
11
77
21
-119.525
0
LINE
8
BLACK
10
77
20
-119.525
11
78
21
-119.525
0
LINE
8
BLACK
10
78
20
-119.525
11
78
21
-120.475
0
LINE
8
BLACK
10
99.9
20
-120.475
11
98.9
21
-120.475
0
LINE
8
BLACK
10
98.9
20
-120.475
11
98.9
21
-119.525
0
LINE
8
BLACK
10
98.9
20
-119.525
11
99.9
21
-119.525
0
LINE
8
BLACK
10
99.9
20
-119.525
11
99.9
21
-120.475
0
LINE
8
BLACK
10
84.075
20
-120.25
11
83.125
21
-120.25
0
LINE
8
BLACK
10
83.125
20
-120.25
11
83.125
21
-119.25
0
LINE
8
BLACK
10
83.125
20
-119.25
11
84.075
21
-119.25
0
LINE
8
BLACK
10
84.075
20
-119.25
11
84.075
21
-120.25
0
LINE
8
BLACK
10
82.475
20
-120.25
11
81.525
21
-120.25
0
LINE
8
BLACK
10
81.525
20
-120.25
11
81.525
21
-119.25
0
LINE
8
BLACK
10
81.525
20
-119.25
11
82.475
21
-119.25
0
LINE
8
BLACK
10
82.475
20
-119.25
11
82.475
21
-120.25
0
LINE
8
BLACK
10
102.975
20
-120.25
11
102.025
21
-120.25
0
LINE
8
BLACK
10
102.025
20
-120.25
11
102.025
21
-119.25
0
LINE
8
BLACK
10
102.025
20
-119.25
11
102.975
21
-119.25
0
LINE
8
BLACK
10
102.975
20
-119.25
11
102.975
21
-120.25
0
LINE
8
BLACK
10
101.375
20
-120.25
11
100.425
21
-120.25
0
LINE
8
BLACK
10
100.425
20
-120.25
11
100.425
21
-119.25
0
LINE
8
BLACK
10
100.425
20
-119.25
11
101.375
21
-119.25
0
LINE
8
BLACK
10
101.375
20
-119.25
11
101.375
21
-120.25
0
LINE
8
BLACK
10
102.975
20
-118.75
11
102.025
21
-118.75
0
LINE
8
BLACK
10
102.025
20
-118.75
11
102.025
21
-117.75
0
LINE
8
BLACK
10
102.025
20
-117.75
11
102.975
21
-117.75
0
LINE
8
BLACK
10
102.975
20
-117.75
11
102.975
21
-118.75
0
LINE
8
BLACK
10
101.375
20
-118.75
11
100.425
21
-118.75
0
LINE
8
BLACK
10
100.425
20
-118.75
11
100.425
21
-117.75
0
LINE
8
BLACK
10
100.425
20
-117.75
11
101.375
21
-117.75
0
LINE
8
BLACK
10
101.375
20
-117.75
11
101.375
21
-118.75
0
LINE
8
BLACK
10
82.475
20
-118.75
11
81.525
21
-118.75
0
LINE
8
BLACK
10
81.525
20
-118.75
11
81.525
21
-117.75
0
LINE
8
BLACK
10
81.525
20
-117.75
11
82.475
21
-117.75
0
LINE
8
BLACK
10
82.475
20
-117.75
11
82.475
21
-118.75
0
LINE
8
BLACK
10
84.075
20
-118.75
11
83.125
21
-118.75
0
LINE
8
BLACK
10
83.125
20
-118.75
11
83.125
21
-117.75
0
LINE
8
BLACK
10
83.125
20
-117.75
11
84.075
21
-117.75
0
LINE
8
BLACK
10
84.075
20
-117.75
11
84.075
21
-118.75
0
LINE
8
BLACK
10
100.46
20
-117.21
11
99.84
21
-117.21
0
LINE
8
BLACK
10
99.84
20
-117.21
11
99.84
21
-116.59
0
LINE
8
BLACK
10
99.84
20
-116.59
11
100.46
21
-116.59
0
LINE
8
BLACK
10
100.46
20
-116.59
11
100.46
21
-117.21
0
LINE
8
BLACK
10
82.26
20
-117.21
11
81.64
21
-117.21
0
LINE
8
BLACK
10
81.64
20
-117.21
11
81.64
21
-116.59
0
LINE
8
BLACK
10
81.64
20
-116.59
11
82.26
21
-116.59
0
LINE
8
BLACK
10
82.26
20
-116.59
11
82.26
21
-117.21
0
LINE
8
BLACK
10
81.36
20
-117.21
11
80.74
21
-117.21
0
LINE
8
BLACK
10
80.74
20
-117.21
11
80.74
21
-116.59
0
LINE
8
BLACK
10
80.74
20
-116.59
11
81.36
21
-116.59
0
LINE
8
BLACK
10
81.36
20
-116.59
11
81.36
21
-117.21
0
LINE
8
BLACK
10
117.41
20
-117.21
11
116.79
21
-117.21
0
LINE
8
BLACK
10
116.79
20
-117.21
11
116.79
21
-116.59
0
LINE
8
BLACK
10
116.79
20
-116.59
11
117.41
21
-116.59
0
LINE
8
BLACK
10
117.41
20
-116.59
11
117.41
21
-117.21
0
LINE
8
BLACK
10
118.31
20
-117.21
11
117.69
21
-117.21
0
LINE
8
BLACK
10
117.69
20
-117.21
11
117.69
21
-116.59
0
LINE
8
BLACK
10
117.69
20
-116.59
11
118.31
21
-116.59
0
LINE
8
BLACK
10
118.31
20
-116.59
11
118.31
21
-117.21
0
LINE
8
BLACK
10
99.56
20
-117.21
11
98.94
21
-117.21
0
LINE
8
BLACK
10
98.94
20
-117.21
11
98.94
21
-116.59
0
LINE
8
BLACK
10
98.94
20
-116.59
11
99.56
21
-116.59
0
LINE
8
BLACK
10
99.56
20
-116.59
11
99.56
21
-117.21
  0
ENDSEC
  0
EOF
