%TF.GenerationSoftware,KiCad,Pcbnew,no-vcs-found-0b1eb56~60~ubuntu16.04.1*%
%TF.CreationDate,2017-11-02T03:22:39+00:00*%
%TF.ProjectId,adcdac,6164636461632E6B696361645F706362,rev?*%
%TF.SameCoordinates,Original*%
%TF.FileFunction,Legend,Top*%
%TF.FilePolarity,Positive*%
%FSLAX46Y46*%
G04 Gerber Fmt 4.6, Leading zero omitted, Abs format (unit mm)*
G04 Created by KiCad (PCBNEW no-vcs-found-0b1eb56~60~ubuntu16.04.1) date Thu Nov  2 03:22:39 2017*
%MOMM*%
%LPD*%
G01*
G04 APERTURE LIST*
%ADD10C,0.275000*%
%ADD11C,0.250000*%
%ADD12C,0.300000*%
%ADD13C,0.150000*%
%ADD14R,1.900000X1.900000*%
%ADD15C,1.000000*%
%ADD16C,1.900000*%
%ADD17R,0.950000X1.000000*%
%ADD18C,0.950000*%
%ADD19C,0.100000*%
%ADD20R,1.000000X0.950000*%
%ADD21R,0.450000X1.450000*%
%ADD22R,1.662000X1.727000*%
%ADD23C,3.200000*%
%ADD24C,2.000000*%
%ADD25R,0.620000X0.620000*%
%ADD26R,0.300000X1.500000*%
%ADD27R,1.500000X0.300000*%
%ADD28R,1.550000X0.600000*%
%ADD29R,0.450000X1.350000*%
G04 APERTURE END LIST*
D10*
X114550000Y-128197619D02*
X114550000Y-127621428D01*
X114497619Y-127516666D01*
X114392857Y-127464285D01*
X114183333Y-127464285D01*
X114078571Y-127516666D01*
X114550000Y-128145238D02*
X114445238Y-128197619D01*
X114183333Y-128197619D01*
X114078571Y-128145238D01*
X114026190Y-128040476D01*
X114026190Y-127935714D01*
X114078571Y-127830952D01*
X114183333Y-127778571D01*
X114445238Y-127778571D01*
X114550000Y-127726190D01*
X115545238Y-127464285D02*
X115545238Y-128354761D01*
X115492857Y-128459523D01*
X115440476Y-128511904D01*
X115335714Y-128564285D01*
X115178571Y-128564285D01*
X115073809Y-128511904D01*
X115545238Y-128145238D02*
X115440476Y-128197619D01*
X115230952Y-128197619D01*
X115126190Y-128145238D01*
X115073809Y-128092857D01*
X115021428Y-127988095D01*
X115021428Y-127673809D01*
X115073809Y-127569047D01*
X115126190Y-127516666D01*
X115230952Y-127464285D01*
X115440476Y-127464285D01*
X115545238Y-127516666D01*
X116540476Y-127464285D02*
X116540476Y-128354761D01*
X116488095Y-128459523D01*
X116435714Y-128511904D01*
X116330952Y-128564285D01*
X116173809Y-128564285D01*
X116069047Y-128511904D01*
X116540476Y-128145238D02*
X116435714Y-128197619D01*
X116226190Y-128197619D01*
X116121428Y-128145238D01*
X116069047Y-128092857D01*
X116016666Y-127988095D01*
X116016666Y-127673809D01*
X116069047Y-127569047D01*
X116121428Y-127516666D01*
X116226190Y-127464285D01*
X116435714Y-127464285D01*
X116540476Y-127516666D01*
X117064285Y-128092857D02*
X117116666Y-128145238D01*
X117064285Y-128197619D01*
X117011904Y-128145238D01*
X117064285Y-128092857D01*
X117064285Y-128197619D01*
X117588095Y-128197619D02*
X117588095Y-127464285D01*
X117588095Y-127097619D02*
X117535714Y-127150000D01*
X117588095Y-127202380D01*
X117640476Y-127150000D01*
X117588095Y-127097619D01*
X117588095Y-127202380D01*
X118269047Y-128197619D02*
X118164285Y-128145238D01*
X118111904Y-128092857D01*
X118059523Y-127988095D01*
X118059523Y-127673809D01*
X118111904Y-127569047D01*
X118164285Y-127516666D01*
X118269047Y-127464285D01*
X118426190Y-127464285D01*
X118530952Y-127516666D01*
X118583333Y-127569047D01*
X118635714Y-127673809D01*
X118635714Y-127988095D01*
X118583333Y-128092857D01*
X118530952Y-128145238D01*
X118426190Y-128197619D01*
X118269047Y-128197619D01*
X119892857Y-127045238D02*
X118950000Y-128459523D01*
X120259523Y-128197619D02*
X120259523Y-127097619D01*
X120259523Y-127516666D02*
X120364285Y-127464285D01*
X120573809Y-127464285D01*
X120678571Y-127516666D01*
X120730952Y-127569047D01*
X120783333Y-127673809D01*
X120783333Y-127988095D01*
X120730952Y-128092857D01*
X120678571Y-128145238D01*
X120573809Y-128197619D01*
X120364285Y-128197619D01*
X120259523Y-128145238D01*
X121254761Y-128197619D02*
X121254761Y-127097619D01*
X121254761Y-127516666D02*
X121359523Y-127464285D01*
X121569047Y-127464285D01*
X121673809Y-127516666D01*
X121726190Y-127569047D01*
X121778571Y-127673809D01*
X121778571Y-127988095D01*
X121726190Y-128092857D01*
X121673809Y-128145238D01*
X121569047Y-128197619D01*
X121359523Y-128197619D01*
X121254761Y-128145238D01*
X122250000Y-128197619D02*
X122250000Y-127097619D01*
X122250000Y-127516666D02*
X122354761Y-127464285D01*
X122564285Y-127464285D01*
X122669047Y-127516666D01*
X122721428Y-127569047D01*
X122773809Y-127673809D01*
X122773809Y-127988095D01*
X122721428Y-128092857D01*
X122669047Y-128145238D01*
X122564285Y-128197619D01*
X122354761Y-128197619D01*
X122250000Y-128145238D01*
D11*
X109152380Y-145990476D02*
X108152380Y-145990476D01*
X108152380Y-145752380D01*
X108200000Y-145609523D01*
X108295238Y-145514285D01*
X108390476Y-145466666D01*
X108580952Y-145419047D01*
X108723809Y-145419047D01*
X108914285Y-145466666D01*
X109009523Y-145514285D01*
X109104761Y-145609523D01*
X109152380Y-145752380D01*
X109152380Y-145990476D01*
X108152380Y-145133333D02*
X109152380Y-144800000D01*
X108152380Y-144466666D01*
X109152380Y-144133333D02*
X108152380Y-144133333D01*
X108152380Y-143895238D01*
X108200000Y-143752380D01*
X108295238Y-143657142D01*
X108390476Y-143609523D01*
X108580952Y-143561904D01*
X108723809Y-143561904D01*
X108914285Y-143609523D01*
X109009523Y-143657142D01*
X109104761Y-143752380D01*
X109152380Y-143895238D01*
X109152380Y-144133333D01*
X109152380Y-143133333D02*
X108152380Y-143133333D01*
X108152380Y-142895238D01*
X108200000Y-142752380D01*
X108295238Y-142657142D01*
X108390476Y-142609523D01*
X108580952Y-142561904D01*
X108723809Y-142561904D01*
X108914285Y-142609523D01*
X109009523Y-142657142D01*
X109104761Y-142752380D01*
X109152380Y-142895238D01*
X109152380Y-143133333D01*
X107733333Y-127866666D02*
X108209523Y-127866666D01*
X107638095Y-128152380D02*
X107971428Y-127152380D01*
X108304761Y-128152380D01*
X108495238Y-127152380D02*
X108828571Y-128152380D01*
X109161904Y-127152380D01*
X109495238Y-128152380D02*
X109495238Y-127152380D01*
X109733333Y-127152380D01*
X109876190Y-127200000D01*
X109971428Y-127295238D01*
X110019047Y-127390476D01*
X110066666Y-127580952D01*
X110066666Y-127723809D01*
X110019047Y-127914285D01*
X109971428Y-128009523D01*
X109876190Y-128104761D01*
X109733333Y-128152380D01*
X109495238Y-128152380D01*
X110495238Y-128152380D02*
X110495238Y-127152380D01*
X110733333Y-127152380D01*
X110876190Y-127200000D01*
X110971428Y-127295238D01*
X111019047Y-127390476D01*
X111066666Y-127580952D01*
X111066666Y-127723809D01*
X111019047Y-127914285D01*
X110971428Y-128009523D01*
X110876190Y-128104761D01*
X110733333Y-128152380D01*
X110495238Y-128152380D01*
X98866666Y-126952380D02*
X99200000Y-127952380D01*
X99533333Y-126952380D01*
X99866666Y-127952380D02*
X99866666Y-126952380D01*
X100104761Y-126952380D01*
X100247619Y-127000000D01*
X100342857Y-127095238D01*
X100390476Y-127190476D01*
X100438095Y-127380952D01*
X100438095Y-127523809D01*
X100390476Y-127714285D01*
X100342857Y-127809523D01*
X100247619Y-127904761D01*
X100104761Y-127952380D01*
X99866666Y-127952380D01*
X100866666Y-127952380D02*
X100866666Y-126952380D01*
X101104761Y-126952380D01*
X101247619Y-127000000D01*
X101342857Y-127095238D01*
X101390476Y-127190476D01*
X101438095Y-127380952D01*
X101438095Y-127523809D01*
X101390476Y-127714285D01*
X101342857Y-127809523D01*
X101247619Y-127904761D01*
X101104761Y-127952380D01*
X100866666Y-127952380D01*
X104909523Y-143952380D02*
X104433333Y-143952380D01*
X104385714Y-144428571D01*
X104433333Y-144380952D01*
X104528571Y-144333333D01*
X104766666Y-144333333D01*
X104861904Y-144380952D01*
X104909523Y-144428571D01*
X104957142Y-144523809D01*
X104957142Y-144761904D01*
X104909523Y-144857142D01*
X104861904Y-144904761D01*
X104766666Y-144952380D01*
X104528571Y-144952380D01*
X104433333Y-144904761D01*
X104385714Y-144857142D01*
X105242857Y-143952380D02*
X105576190Y-144952380D01*
X105909523Y-143952380D01*
X97366666Y-136152380D02*
X97700000Y-137152380D01*
X98033333Y-136152380D01*
X98366666Y-137152380D02*
X98366666Y-136152380D01*
X98604761Y-136152380D01*
X98747619Y-136200000D01*
X98842857Y-136295238D01*
X98890476Y-136390476D01*
X98938095Y-136580952D01*
X98938095Y-136723809D01*
X98890476Y-136914285D01*
X98842857Y-137009523D01*
X98747619Y-137104761D01*
X98604761Y-137152380D01*
X98366666Y-137152380D01*
X75738095Y-139700000D02*
X75642857Y-139652380D01*
X75500000Y-139652380D01*
X75357142Y-139700000D01*
X75261904Y-139795238D01*
X75214285Y-139890476D01*
X75166666Y-140080952D01*
X75166666Y-140223809D01*
X75214285Y-140414285D01*
X75261904Y-140509523D01*
X75357142Y-140604761D01*
X75500000Y-140652380D01*
X75595238Y-140652380D01*
X75738095Y-140604761D01*
X75785714Y-140557142D01*
X75785714Y-140223809D01*
X75595238Y-140223809D01*
X76214285Y-140652380D02*
X76214285Y-139652380D01*
X76785714Y-140652380D01*
X76785714Y-139652380D01*
X77261904Y-140652380D02*
X77261904Y-139652380D01*
X77500000Y-139652380D01*
X77642857Y-139700000D01*
X77738095Y-139795238D01*
X77785714Y-139890476D01*
X77833333Y-140080952D01*
X77833333Y-140223809D01*
X77785714Y-140414285D01*
X77738095Y-140509523D01*
X77642857Y-140604761D01*
X77500000Y-140652380D01*
X77261904Y-140652380D01*
X118971428Y-117977380D02*
X118971428Y-116977380D01*
X119209523Y-116977380D01*
X119352380Y-117025000D01*
X119447619Y-117120238D01*
X119495238Y-117215476D01*
X119542857Y-117405952D01*
X119542857Y-117548809D01*
X119495238Y-117739285D01*
X119447619Y-117834523D01*
X119352380Y-117929761D01*
X119209523Y-117977380D01*
X118971428Y-117977380D01*
X119923809Y-117691666D02*
X120400000Y-117691666D01*
X119828571Y-117977380D02*
X120161904Y-116977380D01*
X120495238Y-117977380D01*
X121400000Y-117882142D02*
X121352380Y-117929761D01*
X121209523Y-117977380D01*
X121114285Y-117977380D01*
X120971428Y-117929761D01*
X120876190Y-117834523D01*
X120828571Y-117739285D01*
X120780952Y-117548809D01*
X120780952Y-117405952D01*
X120828571Y-117215476D01*
X120876190Y-117120238D01*
X120971428Y-117025000D01*
X121114285Y-116977380D01*
X121209523Y-116977380D01*
X121352380Y-117025000D01*
X121400000Y-117072619D01*
X121828571Y-117882142D02*
X121876190Y-117929761D01*
X121828571Y-117977380D01*
X121780952Y-117929761D01*
X121828571Y-117882142D01*
X121828571Y-117977380D01*
X121828571Y-117358333D02*
X121876190Y-117405952D01*
X121828571Y-117453571D01*
X121780952Y-117405952D01*
X121828571Y-117358333D01*
X121828571Y-117453571D01*
X116447619Y-118727380D02*
X116542857Y-118727380D01*
X116638095Y-118775000D01*
X116685714Y-118822619D01*
X116733333Y-118917857D01*
X116780952Y-119108333D01*
X116780952Y-119346428D01*
X116733333Y-119536904D01*
X116685714Y-119632142D01*
X116638095Y-119679761D01*
X116542857Y-119727380D01*
X116447619Y-119727380D01*
X116352380Y-119679761D01*
X116304761Y-119632142D01*
X116257142Y-119536904D01*
X116209523Y-119346428D01*
X116209523Y-119108333D01*
X116257142Y-118917857D01*
X116304761Y-118822619D01*
X116352380Y-118775000D01*
X116447619Y-118727380D01*
X117209523Y-119632142D02*
X117257142Y-119679761D01*
X117209523Y-119727380D01*
X117161904Y-119679761D01*
X117209523Y-119632142D01*
X117209523Y-119727380D01*
X118114285Y-118727380D02*
X117923809Y-118727380D01*
X117828571Y-118775000D01*
X117780952Y-118822619D01*
X117685714Y-118965476D01*
X117638095Y-119155952D01*
X117638095Y-119536904D01*
X117685714Y-119632142D01*
X117733333Y-119679761D01*
X117828571Y-119727380D01*
X118019047Y-119727380D01*
X118114285Y-119679761D01*
X118161904Y-119632142D01*
X118209523Y-119536904D01*
X118209523Y-119298809D01*
X118161904Y-119203571D01*
X118114285Y-119155952D01*
X118019047Y-119108333D01*
X117828571Y-119108333D01*
X117733333Y-119155952D01*
X117685714Y-119203571D01*
X117638095Y-119298809D01*
X119114285Y-118727380D02*
X118638095Y-118727380D01*
X118590476Y-119203571D01*
X118638095Y-119155952D01*
X118733333Y-119108333D01*
X118971428Y-119108333D01*
X119066666Y-119155952D01*
X119114285Y-119203571D01*
X119161904Y-119298809D01*
X119161904Y-119536904D01*
X119114285Y-119632142D01*
X119066666Y-119679761D01*
X118971428Y-119727380D01*
X118733333Y-119727380D01*
X118638095Y-119679761D01*
X118590476Y-119632142D01*
X119590476Y-119346428D02*
X120352380Y-119346428D01*
X120780952Y-118822619D02*
X120828571Y-118775000D01*
X120923809Y-118727380D01*
X121161904Y-118727380D01*
X121257142Y-118775000D01*
X121304761Y-118822619D01*
X121352380Y-118917857D01*
X121352380Y-119013095D01*
X121304761Y-119155952D01*
X120733333Y-119727380D01*
X121352380Y-119727380D01*
X121780952Y-119632142D02*
X121828571Y-119679761D01*
X121780952Y-119727380D01*
X121733333Y-119679761D01*
X121780952Y-119632142D01*
X121780952Y-119727380D01*
X122685714Y-118727380D02*
X122495238Y-118727380D01*
X122399999Y-118775000D01*
X122352380Y-118822619D01*
X122257142Y-118965476D01*
X122209523Y-119155952D01*
X122209523Y-119536904D01*
X122257142Y-119632142D01*
X122304761Y-119679761D01*
X122399999Y-119727380D01*
X122590476Y-119727380D01*
X122685714Y-119679761D01*
X122733333Y-119632142D01*
X122780952Y-119536904D01*
X122780952Y-119298809D01*
X122733333Y-119203571D01*
X122685714Y-119155952D01*
X122590476Y-119108333D01*
X122399999Y-119108333D01*
X122304761Y-119155952D01*
X122257142Y-119203571D01*
X122209523Y-119298809D01*
X123685714Y-118727380D02*
X123209523Y-118727380D01*
X123161904Y-119203571D01*
X123209523Y-119155952D01*
X123304761Y-119108333D01*
X123542857Y-119108333D01*
X123638095Y-119155952D01*
X123685714Y-119203571D01*
X123733333Y-119298809D01*
X123733333Y-119536904D01*
X123685714Y-119632142D01*
X123638095Y-119679761D01*
X123542857Y-119727380D01*
X123304761Y-119727380D01*
X123209523Y-119679761D01*
X123161904Y-119632142D01*
X124019047Y-118727380D02*
X124352380Y-119727380D01*
X124685714Y-118727380D01*
X86923809Y-116791666D02*
X87400000Y-116791666D01*
X86828571Y-117077380D02*
X87161904Y-116077380D01*
X87495238Y-117077380D01*
X87828571Y-117077380D02*
X87828571Y-116077380D01*
X88066666Y-116077380D01*
X88209523Y-116125000D01*
X88304761Y-116220238D01*
X88352380Y-116315476D01*
X88400000Y-116505952D01*
X88400000Y-116648809D01*
X88352380Y-116839285D01*
X88304761Y-116934523D01*
X88209523Y-117029761D01*
X88066666Y-117077380D01*
X87828571Y-117077380D01*
X89400000Y-116982142D02*
X89352380Y-117029761D01*
X89209523Y-117077380D01*
X89114285Y-117077380D01*
X88971428Y-117029761D01*
X88876190Y-116934523D01*
X88828571Y-116839285D01*
X88780952Y-116648809D01*
X88780952Y-116505952D01*
X88828571Y-116315476D01*
X88876190Y-116220238D01*
X88971428Y-116125000D01*
X89114285Y-116077380D01*
X89209523Y-116077380D01*
X89352380Y-116125000D01*
X89400000Y-116172619D01*
X89828571Y-116982142D02*
X89876190Y-117029761D01*
X89828571Y-117077380D01*
X89780952Y-117029761D01*
X89828571Y-116982142D01*
X89828571Y-117077380D01*
X89828571Y-116458333D02*
X89876190Y-116505952D01*
X89828571Y-116553571D01*
X89780952Y-116505952D01*
X89828571Y-116458333D01*
X89828571Y-116553571D01*
X86209523Y-118255952D02*
X86971428Y-118255952D01*
X86590476Y-118636904D02*
X86590476Y-117875000D01*
X86971428Y-118827380D02*
X86209523Y-118827380D01*
X87971428Y-118827380D02*
X87400000Y-118827380D01*
X87685714Y-118827380D02*
X87685714Y-117827380D01*
X87590476Y-117970238D01*
X87495238Y-118065476D01*
X87400000Y-118113095D01*
X88257142Y-117827380D02*
X88590476Y-118827380D01*
X88923809Y-117827380D01*
X89257142Y-118160714D02*
X89257142Y-119160714D01*
X89257142Y-118208333D02*
X89352380Y-118160714D01*
X89542857Y-118160714D01*
X89638095Y-118208333D01*
X89685714Y-118255952D01*
X89733333Y-118351190D01*
X89733333Y-118636904D01*
X89685714Y-118732142D01*
X89638095Y-118779761D01*
X89542857Y-118827380D01*
X89352380Y-118827380D01*
X89257142Y-118779761D01*
X90161904Y-118160714D02*
X90161904Y-119160714D01*
X90161904Y-118208333D02*
X90257142Y-118160714D01*
X90447619Y-118160714D01*
X90542857Y-118208333D01*
X90590476Y-118255952D01*
X90638095Y-118351190D01*
X90638095Y-118636904D01*
X90590476Y-118732142D01*
X90542857Y-118779761D01*
X90447619Y-118827380D01*
X90257142Y-118827380D01*
X90161904Y-118779761D01*
X123814285Y-146385714D02*
X123814285Y-147052380D01*
X123576190Y-146004761D02*
X123338095Y-146719047D01*
X123957142Y-146719047D01*
X124528571Y-146052380D02*
X124623809Y-146052380D01*
X124719047Y-146100000D01*
X124766666Y-146147619D01*
X124814285Y-146242857D01*
X124861904Y-146433333D01*
X124861904Y-146671428D01*
X124814285Y-146861904D01*
X124766666Y-146957142D01*
X124719047Y-147004761D01*
X124623809Y-147052380D01*
X124528571Y-147052380D01*
X124433333Y-147004761D01*
X124385714Y-146957142D01*
X124338095Y-146861904D01*
X124290476Y-146671428D01*
X124290476Y-146433333D01*
X124338095Y-146242857D01*
X124385714Y-146147619D01*
X124433333Y-146100000D01*
X124528571Y-146052380D01*
X75614285Y-146147619D02*
X75661904Y-146100000D01*
X75757142Y-146052380D01*
X75995238Y-146052380D01*
X76090476Y-146100000D01*
X76138095Y-146147619D01*
X76185714Y-146242857D01*
X76185714Y-146338095D01*
X76138095Y-146480952D01*
X75566666Y-147052380D01*
X76185714Y-147052380D01*
D10*
X103840476Y-115996428D02*
X103997619Y-116048809D01*
X104050000Y-116101190D01*
X104102380Y-116205952D01*
X104102380Y-116363095D01*
X104050000Y-116467857D01*
X103997619Y-116520238D01*
X103892857Y-116572619D01*
X103473809Y-116572619D01*
X103473809Y-115472619D01*
X103840476Y-115472619D01*
X103945238Y-115525000D01*
X103997619Y-115577380D01*
X104050000Y-115682142D01*
X104050000Y-115786904D01*
X103997619Y-115891666D01*
X103945238Y-115944047D01*
X103840476Y-115996428D01*
X103473809Y-115996428D01*
X104940476Y-115996428D02*
X105097619Y-116048809D01*
X105150000Y-116101190D01*
X105202380Y-116205952D01*
X105202380Y-116363095D01*
X105150000Y-116467857D01*
X105097619Y-116520238D01*
X104992857Y-116572619D01*
X104573809Y-116572619D01*
X104573809Y-115472619D01*
X104940476Y-115472619D01*
X105045238Y-115525000D01*
X105097619Y-115577380D01*
X105150000Y-115682142D01*
X105150000Y-115786904D01*
X105097619Y-115891666D01*
X105045238Y-115944047D01*
X104940476Y-115996428D01*
X104573809Y-115996428D01*
X106040476Y-115996428D02*
X106197619Y-116048809D01*
X106250000Y-116101190D01*
X106302380Y-116205952D01*
X106302380Y-116363095D01*
X106250000Y-116467857D01*
X106197619Y-116520238D01*
X106092857Y-116572619D01*
X105673809Y-116572619D01*
X105673809Y-115472619D01*
X106040476Y-115472619D01*
X106145238Y-115525000D01*
X106197619Y-115577380D01*
X106250000Y-115682142D01*
X106250000Y-115786904D01*
X106197619Y-115891666D01*
X106145238Y-115944047D01*
X106040476Y-115996428D01*
X105673809Y-115996428D01*
X107559523Y-116258333D02*
X108083333Y-116258333D01*
X107454761Y-116572619D02*
X107821428Y-115472619D01*
X108188095Y-116572619D01*
X108554761Y-116572619D02*
X108554761Y-115472619D01*
X108816666Y-115472619D01*
X108973809Y-115525000D01*
X109078571Y-115629761D01*
X109130952Y-115734523D01*
X109183333Y-115944047D01*
X109183333Y-116101190D01*
X109130952Y-116310714D01*
X109078571Y-116415476D01*
X108973809Y-116520238D01*
X108816666Y-116572619D01*
X108554761Y-116572619D01*
X110283333Y-116467857D02*
X110230952Y-116520238D01*
X110073809Y-116572619D01*
X109969047Y-116572619D01*
X109811904Y-116520238D01*
X109707142Y-116415476D01*
X109654761Y-116310714D01*
X109602380Y-116101190D01*
X109602380Y-115944047D01*
X109654761Y-115734523D01*
X109707142Y-115629761D01*
X109811904Y-115525000D01*
X109969047Y-115472619D01*
X110073809Y-115472619D01*
X110230952Y-115525000D01*
X110283333Y-115577380D01*
X111540476Y-115420238D02*
X110597619Y-116834523D01*
X111907142Y-116572619D02*
X111907142Y-115472619D01*
X112169047Y-115472619D01*
X112326190Y-115525000D01*
X112430952Y-115629761D01*
X112483333Y-115734523D01*
X112535714Y-115944047D01*
X112535714Y-116101190D01*
X112483333Y-116310714D01*
X112430952Y-116415476D01*
X112326190Y-116520238D01*
X112169047Y-116572619D01*
X111907142Y-116572619D01*
X112954761Y-116258333D02*
X113478571Y-116258333D01*
X112850000Y-116572619D02*
X113216666Y-115472619D01*
X113583333Y-116572619D01*
X114578571Y-116467857D02*
X114526190Y-116520238D01*
X114369047Y-116572619D01*
X114264285Y-116572619D01*
X114107142Y-116520238D01*
X114002380Y-116415476D01*
X113950000Y-116310714D01*
X113897619Y-116101190D01*
X113897619Y-115944047D01*
X113950000Y-115734523D01*
X114002380Y-115629761D01*
X114107142Y-115525000D01*
X114264285Y-115472619D01*
X114369047Y-115472619D01*
X114526190Y-115525000D01*
X114578571Y-115577380D01*
X103657142Y-117502380D02*
X103709523Y-117450000D01*
X103814285Y-117397619D01*
X104076190Y-117397619D01*
X104180952Y-117450000D01*
X104233333Y-117502380D01*
X104285714Y-117607142D01*
X104285714Y-117711904D01*
X104233333Y-117869047D01*
X103604761Y-118497619D01*
X104285714Y-118497619D01*
X104966666Y-117397619D02*
X105071428Y-117397619D01*
X105176190Y-117450000D01*
X105228571Y-117502380D01*
X105280952Y-117607142D01*
X105333333Y-117816666D01*
X105333333Y-118078571D01*
X105280952Y-118288095D01*
X105228571Y-118392857D01*
X105176190Y-118445238D01*
X105071428Y-118497619D01*
X104966666Y-118497619D01*
X104861904Y-118445238D01*
X104809523Y-118392857D01*
X104757142Y-118288095D01*
X104704761Y-118078571D01*
X104704761Y-117816666D01*
X104757142Y-117607142D01*
X104809523Y-117502380D01*
X104861904Y-117450000D01*
X104966666Y-117397619D01*
X106380952Y-118497619D02*
X105752380Y-118497619D01*
X106066666Y-118497619D02*
X106066666Y-117397619D01*
X105961904Y-117554761D01*
X105857142Y-117659523D01*
X105752380Y-117711904D01*
X106747619Y-117397619D02*
X107480952Y-117397619D01*
X107009523Y-118497619D01*
X107900000Y-118078571D02*
X108738095Y-118078571D01*
X109838095Y-118497619D02*
X109209523Y-118497619D01*
X109523809Y-118497619D02*
X109523809Y-117397619D01*
X109419047Y-117554761D01*
X109314285Y-117659523D01*
X109209523Y-117711904D01*
X110885714Y-118497619D02*
X110257142Y-118497619D01*
X110571428Y-118497619D02*
X110571428Y-117397619D01*
X110466666Y-117554761D01*
X110361904Y-117659523D01*
X110257142Y-117711904D01*
X111357142Y-118078571D02*
X112195238Y-118078571D01*
X112928571Y-117397619D02*
X113033333Y-117397619D01*
X113138095Y-117450000D01*
X113190476Y-117502380D01*
X113242857Y-117607142D01*
X113295238Y-117816666D01*
X113295238Y-118078571D01*
X113242857Y-118288095D01*
X113190476Y-118392857D01*
X113138095Y-118445238D01*
X113033333Y-118497619D01*
X112928571Y-118497619D01*
X112823809Y-118445238D01*
X112771428Y-118392857D01*
X112719047Y-118288095D01*
X112666666Y-118078571D01*
X112666666Y-117816666D01*
X112719047Y-117607142D01*
X112771428Y-117502380D01*
X112823809Y-117450000D01*
X112928571Y-117397619D01*
X113714285Y-117502380D02*
X113766666Y-117450000D01*
X113871428Y-117397619D01*
X114133333Y-117397619D01*
X114238095Y-117450000D01*
X114290476Y-117502380D01*
X114342857Y-117607142D01*
X114342857Y-117711904D01*
X114290476Y-117869047D01*
X113661904Y-118497619D01*
X114342857Y-118497619D01*
X106957142Y-120422619D02*
X106957142Y-119689285D01*
X106957142Y-119898809D02*
X107009523Y-119794047D01*
X107061904Y-119741666D01*
X107166666Y-119689285D01*
X107271428Y-119689285D01*
X108214285Y-120422619D02*
X107585714Y-120422619D01*
X107900000Y-120422619D02*
X107900000Y-119322619D01*
X107795238Y-119479761D01*
X107690476Y-119584523D01*
X107585714Y-119636904D01*
X109471428Y-120108333D02*
X109995238Y-120108333D01*
X109366666Y-120422619D02*
X109733333Y-119322619D01*
X110100000Y-120422619D01*
X111042857Y-119375000D02*
X110938095Y-119322619D01*
X110780952Y-119322619D01*
X110623809Y-119375000D01*
X110519047Y-119479761D01*
X110466666Y-119584523D01*
X110414285Y-119794047D01*
X110414285Y-119951190D01*
X110466666Y-120160714D01*
X110519047Y-120265476D01*
X110623809Y-120370238D01*
X110780952Y-120422619D01*
X110885714Y-120422619D01*
X111042857Y-120370238D01*
X111095238Y-120317857D01*
X111095238Y-119951190D01*
X110885714Y-119951190D01*
D12*
X111678571Y-112285714D02*
X110178571Y-112285714D01*
X110178571Y-111928571D01*
X110250000Y-111714285D01*
X110392857Y-111571428D01*
X110535714Y-111500000D01*
X110821428Y-111428571D01*
X111035714Y-111428571D01*
X111321428Y-111500000D01*
X111464285Y-111571428D01*
X111607142Y-111714285D01*
X111678571Y-111928571D01*
X111678571Y-112285714D01*
X111250000Y-110857142D02*
X111250000Y-110142857D01*
X111678571Y-111000000D02*
X110178571Y-110500000D01*
X111678571Y-110000000D01*
X111535714Y-108642857D02*
X111607142Y-108714285D01*
X111678571Y-108928571D01*
X111678571Y-109071428D01*
X111607142Y-109285714D01*
X111464285Y-109428571D01*
X111321428Y-109500000D01*
X111035714Y-109571428D01*
X110821428Y-109571428D01*
X110535714Y-109500000D01*
X110392857Y-109428571D01*
X110250000Y-109285714D01*
X110178571Y-109071428D01*
X110178571Y-108928571D01*
X110250000Y-108714285D01*
X110321428Y-108642857D01*
X93250000Y-113571428D02*
X93250000Y-112857142D01*
X93678571Y-113714285D02*
X92178571Y-113214285D01*
X93678571Y-112714285D01*
X93678571Y-112214285D02*
X92178571Y-112214285D01*
X92178571Y-111857142D01*
X92250000Y-111642857D01*
X92392857Y-111500000D01*
X92535714Y-111428571D01*
X92821428Y-111357142D01*
X93035714Y-111357142D01*
X93321428Y-111428571D01*
X93464285Y-111500000D01*
X93607142Y-111642857D01*
X93678571Y-111857142D01*
X93678571Y-112214285D01*
X93535714Y-109857142D02*
X93607142Y-109928571D01*
X93678571Y-110142857D01*
X93678571Y-110285714D01*
X93607142Y-110500000D01*
X93464285Y-110642857D01*
X93321428Y-110714285D01*
X93035714Y-110785714D01*
X92821428Y-110785714D01*
X92535714Y-110714285D01*
X92392857Y-110642857D01*
X92250000Y-110500000D01*
X92178571Y-110285714D01*
X92178571Y-110142857D01*
X92250000Y-109928571D01*
X92321428Y-109857142D01*
X93250000Y-108142857D02*
X93250000Y-107428571D01*
X93678571Y-108285714D02*
X92178571Y-107785714D01*
X93678571Y-107285714D01*
X89250000Y-113678571D02*
X89250000Y-112964285D01*
X89678571Y-113821428D02*
X88178571Y-113321428D01*
X89678571Y-112821428D01*
X89678571Y-112321428D02*
X88178571Y-112321428D01*
X88178571Y-111964285D01*
X88250000Y-111750000D01*
X88392857Y-111607142D01*
X88535714Y-111535714D01*
X88821428Y-111464285D01*
X89035714Y-111464285D01*
X89321428Y-111535714D01*
X89464285Y-111607142D01*
X89607142Y-111750000D01*
X89678571Y-111964285D01*
X89678571Y-112321428D01*
X89535714Y-109964285D02*
X89607142Y-110035714D01*
X89678571Y-110250000D01*
X89678571Y-110392857D01*
X89607142Y-110607142D01*
X89464285Y-110750000D01*
X89321428Y-110821428D01*
X89035714Y-110892857D01*
X88821428Y-110892857D01*
X88535714Y-110821428D01*
X88392857Y-110750000D01*
X88250000Y-110607142D01*
X88178571Y-110392857D01*
X88178571Y-110250000D01*
X88250000Y-110035714D01*
X88321428Y-109964285D01*
X88892857Y-107678571D02*
X88964285Y-107464285D01*
X89035714Y-107392857D01*
X89178571Y-107321428D01*
X89392857Y-107321428D01*
X89535714Y-107392857D01*
X89607142Y-107464285D01*
X89678571Y-107607142D01*
X89678571Y-108178571D01*
X88178571Y-108178571D01*
X88178571Y-107678571D01*
X88250000Y-107535714D01*
X88321428Y-107464285D01*
X88464285Y-107392857D01*
X88607142Y-107392857D01*
X88750000Y-107464285D01*
X88821428Y-107535714D01*
X88892857Y-107678571D01*
X88892857Y-108178571D01*
D11*
X124752380Y-144400000D02*
X124752380Y-144971428D01*
X124752380Y-144685714D02*
X123752380Y-144685714D01*
X123895238Y-144780952D01*
X123990476Y-144876190D01*
X124038095Y-144971428D01*
X124752380Y-143209523D02*
X123752380Y-143209523D01*
X124466666Y-142876190D01*
X123752380Y-142542857D01*
X124752380Y-142542857D01*
X123752380Y-141876190D02*
X123752380Y-141685714D01*
X123800000Y-141590476D01*
X123895238Y-141495238D01*
X124085714Y-141447619D01*
X124419047Y-141447619D01*
X124609523Y-141495238D01*
X124704761Y-141590476D01*
X124752380Y-141685714D01*
X124752380Y-141876190D01*
X124704761Y-141971428D01*
X124609523Y-142066666D01*
X124419047Y-142114285D01*
X124085714Y-142114285D01*
X123895238Y-142066666D01*
X123800000Y-141971428D01*
X123752380Y-141876190D01*
X124752380Y-141019047D02*
X123752380Y-141019047D01*
X123752380Y-140780952D01*
X123800000Y-140638095D01*
X123895238Y-140542857D01*
X123990476Y-140495238D01*
X124180952Y-140447619D01*
X124323809Y-140447619D01*
X124514285Y-140495238D01*
X124609523Y-140542857D01*
X124704761Y-140638095D01*
X124752380Y-140780952D01*
X124752380Y-141019047D01*
X124228571Y-140019047D02*
X124228571Y-139685714D01*
X124752380Y-139542857D02*
X124752380Y-140019047D01*
X123752380Y-140019047D01*
X123752380Y-139542857D01*
X123752380Y-138161904D02*
X123752380Y-138066666D01*
X123800000Y-137971428D01*
X123847619Y-137923809D01*
X123942857Y-137876190D01*
X124133333Y-137828571D01*
X124371428Y-137828571D01*
X124561904Y-137876190D01*
X124657142Y-137923809D01*
X124704761Y-137971428D01*
X124752380Y-138066666D01*
X124752380Y-138161904D01*
X124704761Y-138257142D01*
X124657142Y-138304761D01*
X124561904Y-138352380D01*
X124371428Y-138400000D01*
X124133333Y-138400000D01*
X123942857Y-138352380D01*
X123847619Y-138304761D01*
X123800000Y-138257142D01*
X123752380Y-138161904D01*
X92352380Y-123657142D02*
X92352380Y-124228571D01*
X92352380Y-123942857D02*
X91352380Y-123942857D01*
X91495238Y-124038095D01*
X91590476Y-124133333D01*
X91638095Y-124228571D01*
X92352380Y-122466666D02*
X91352380Y-122466666D01*
X91352380Y-122228571D01*
X91400000Y-122085714D01*
X91495238Y-121990476D01*
X91590476Y-121942857D01*
X91780952Y-121895238D01*
X91923809Y-121895238D01*
X92114285Y-121942857D01*
X92209523Y-121990476D01*
X92304761Y-122085714D01*
X92352380Y-122228571D01*
X92352380Y-122466666D01*
X91828571Y-121133333D02*
X91828571Y-121466666D01*
X92352380Y-121466666D02*
X91352380Y-121466666D01*
X91352380Y-120990476D01*
X92304761Y-120657142D02*
X92352380Y-120514285D01*
X92352380Y-120276190D01*
X92304761Y-120180952D01*
X92257142Y-120133333D01*
X92161904Y-120085714D01*
X92066666Y-120085714D01*
X91971428Y-120133333D01*
X91923809Y-120180952D01*
X91876190Y-120276190D01*
X91828571Y-120466666D01*
X91780952Y-120561904D01*
X91733333Y-120609523D01*
X91638095Y-120657142D01*
X91542857Y-120657142D01*
X91447619Y-120609523D01*
X91400000Y-120561904D01*
X91352380Y-120466666D01*
X91352380Y-120228571D01*
X91400000Y-120085714D01*
X91352380Y-118704761D02*
X91352380Y-118609523D01*
X91400000Y-118514285D01*
X91447619Y-118466666D01*
X91542857Y-118419047D01*
X91733333Y-118371428D01*
X91971428Y-118371428D01*
X92161904Y-118419047D01*
X92257142Y-118466666D01*
X92304761Y-118514285D01*
X92352380Y-118609523D01*
X92352380Y-118704761D01*
X92304761Y-118800000D01*
X92257142Y-118847619D01*
X92161904Y-118895238D01*
X91971428Y-118942857D01*
X91733333Y-118942857D01*
X91542857Y-118895238D01*
X91447619Y-118847619D01*
X91400000Y-118800000D01*
X91352380Y-118704761D01*
X82161904Y-133652380D02*
X82257142Y-133652380D01*
X82352380Y-133700000D01*
X82400000Y-133747619D01*
X82447619Y-133842857D01*
X82495238Y-134033333D01*
X82495238Y-134271428D01*
X82447619Y-134461904D01*
X82400000Y-134557142D01*
X82352380Y-134604761D01*
X82257142Y-134652380D01*
X82161904Y-134652380D01*
X82066666Y-134604761D01*
X82019047Y-134557142D01*
X81971428Y-134461904D01*
X81923809Y-134271428D01*
X81923809Y-134033333D01*
X81971428Y-133842857D01*
X82019047Y-133747619D01*
X82066666Y-133700000D01*
X82161904Y-133652380D01*
X83638095Y-134604761D02*
X83780952Y-134652380D01*
X84019047Y-134652380D01*
X84114285Y-134604761D01*
X84161904Y-134557142D01*
X84209523Y-134461904D01*
X84209523Y-134366666D01*
X84161904Y-134271428D01*
X84114285Y-134223809D01*
X84019047Y-134176190D01*
X83828571Y-134128571D01*
X83733333Y-134080952D01*
X83685714Y-134033333D01*
X83638095Y-133938095D01*
X83638095Y-133842857D01*
X83685714Y-133747619D01*
X83733333Y-133700000D01*
X83828571Y-133652380D01*
X84066666Y-133652380D01*
X84209523Y-133700000D01*
X84590476Y-133747619D02*
X84638095Y-133700000D01*
X84733333Y-133652380D01*
X84971428Y-133652380D01*
X85066666Y-133700000D01*
X85114285Y-133747619D01*
X85161904Y-133842857D01*
X85161904Y-133938095D01*
X85114285Y-134080952D01*
X84542857Y-134652380D01*
X85161904Y-134652380D01*
X86876190Y-134652380D02*
X86304761Y-134652380D01*
X86590476Y-134652380D02*
X86590476Y-133652380D01*
X86495238Y-133795238D01*
X86400000Y-133890476D01*
X86304761Y-133938095D01*
X82161904Y-126152380D02*
X82257142Y-126152380D01*
X82352380Y-126200000D01*
X82400000Y-126247619D01*
X82447619Y-126342857D01*
X82495238Y-126533333D01*
X82495238Y-126771428D01*
X82447619Y-126961904D01*
X82400000Y-127057142D01*
X82352380Y-127104761D01*
X82257142Y-127152380D01*
X82161904Y-127152380D01*
X82066666Y-127104761D01*
X82019047Y-127057142D01*
X81971428Y-126961904D01*
X81923809Y-126771428D01*
X81923809Y-126533333D01*
X81971428Y-126342857D01*
X82019047Y-126247619D01*
X82066666Y-126200000D01*
X82161904Y-126152380D01*
X83638095Y-127104761D02*
X83780952Y-127152380D01*
X84019047Y-127152380D01*
X84114285Y-127104761D01*
X84161904Y-127057142D01*
X84209523Y-126961904D01*
X84209523Y-126866666D01*
X84161904Y-126771428D01*
X84114285Y-126723809D01*
X84019047Y-126676190D01*
X83828571Y-126628571D01*
X83733333Y-126580952D01*
X83685714Y-126533333D01*
X83638095Y-126438095D01*
X83638095Y-126342857D01*
X83685714Y-126247619D01*
X83733333Y-126200000D01*
X83828571Y-126152380D01*
X84066666Y-126152380D01*
X84209523Y-126200000D01*
X85161904Y-127152380D02*
X84590476Y-127152380D01*
X84876190Y-127152380D02*
X84876190Y-126152380D01*
X84780952Y-126295238D01*
X84685714Y-126390476D01*
X84590476Y-126438095D01*
X86876190Y-127152380D02*
X86304761Y-127152380D01*
X86590476Y-127152380D02*
X86590476Y-126152380D01*
X86495238Y-126295238D01*
X86400000Y-126390476D01*
X86304761Y-126438095D01*
D13*
%TO.C,J6*%
X75230000Y-136730000D02*
X77770000Y-136730000D01*
X77770000Y-136730000D02*
X77770000Y-139270000D01*
X77770000Y-139270000D02*
X75230000Y-139270000D01*
X75230000Y-139270000D02*
X75230000Y-136730000D01*
%TO.C,J4*%
X80590000Y-130070000D02*
X80590000Y-127530000D01*
X88210000Y-130070000D02*
X80590000Y-130070000D01*
X88210000Y-127530000D02*
X88210000Y-130070000D01*
X80590000Y-127530000D02*
X88210000Y-127530000D01*
%TO.C,J3*%
X80590000Y-130630000D02*
X88210000Y-130630000D01*
X88210000Y-130630000D02*
X88210000Y-133170000D01*
X88210000Y-133170000D02*
X80590000Y-133170000D01*
X80590000Y-133170000D02*
X80590000Y-130630000D01*
%TO.C,C28*%
X121525000Y-131325000D02*
X121775000Y-131325000D01*
X121775000Y-131325000D02*
X121775000Y-131975000D01*
X121775000Y-131975000D02*
X121525000Y-131975000D01*
X121525000Y-131975000D02*
X121525000Y-131325000D01*
%TO.C,C8*%
X106475000Y-142475000D02*
X106725000Y-142475000D01*
X106725000Y-142475000D02*
X106725000Y-143125000D01*
X106725000Y-143125000D02*
X106475000Y-143125000D01*
X106475000Y-143125000D02*
X106475000Y-142475000D01*
%TO.C,C27*%
X96741421Y-139681802D02*
X96918198Y-139858579D01*
X96918198Y-139858579D02*
X96458579Y-140318198D01*
X96458579Y-140318198D02*
X96281802Y-140141421D01*
X96281802Y-140141421D02*
X96741421Y-139681802D01*
%TO.C,C26*%
X81725000Y-137225000D02*
X81475000Y-137225000D01*
X81475000Y-137225000D02*
X81475000Y-136575000D01*
X81475000Y-136575000D02*
X81725000Y-136575000D01*
X81725000Y-136575000D02*
X81725000Y-137225000D01*
%TO.C,C25*%
X94225000Y-135225000D02*
X93575000Y-135225000D01*
X94225000Y-134975000D02*
X94225000Y-135225000D01*
X93575000Y-134975000D02*
X94225000Y-134975000D01*
X93575000Y-135225000D02*
X93575000Y-134975000D01*
%TO.C,C24*%
X81725000Y-138925000D02*
X81475000Y-138925000D01*
X81475000Y-138925000D02*
X81475000Y-138275000D01*
X81475000Y-138275000D02*
X81725000Y-138275000D01*
X81725000Y-138275000D02*
X81725000Y-138925000D01*
%TO.C,C23*%
X78675000Y-123775000D02*
X79325000Y-123775000D01*
X78675000Y-124025000D02*
X78675000Y-123775000D01*
X79325000Y-124025000D02*
X78675000Y-124025000D01*
X79325000Y-123775000D02*
X79325000Y-124025000D01*
%TO.C,C18*%
X98225000Y-123775000D02*
X98225000Y-124025000D01*
X98225000Y-124025000D02*
X97575000Y-124025000D01*
X97575000Y-124025000D02*
X97575000Y-123775000D01*
X97575000Y-123775000D02*
X98225000Y-123775000D01*
%TO.C,IC7*%
X102250000Y-137850000D02*
X102250000Y-140350000D01*
X99150000Y-137250000D02*
X99150000Y-140350000D01*
X102250000Y-137850000D02*
G75*
G03X102250000Y-137250000I0J300000D01*
G01*
%TO.C,P2*%
X77300000Y-87900000D02*
X77300000Y-98700000D01*
X77300000Y-98700000D02*
X76300000Y-98700000D01*
X76300000Y-98700000D02*
X76300000Y-103300000D01*
X76300000Y-103300000D02*
X74700000Y-103300000D01*
X74700000Y-103300000D02*
X74700000Y-104000000D01*
X74700000Y-104000000D02*
X77300000Y-104000000D01*
X77300000Y-104000000D02*
X77300000Y-106200000D01*
X77300000Y-106200000D02*
X77300000Y-106200000D01*
X77300000Y-87900000D02*
X86700000Y-87900000D01*
X86700000Y-87900000D02*
X86700000Y-98700000D01*
X86700000Y-98700000D02*
X87700000Y-98700000D01*
X87700000Y-98700000D02*
X87700000Y-103300000D01*
X87700000Y-103300000D02*
X89300000Y-103300000D01*
X89300000Y-103300000D02*
X89300000Y-104000000D01*
X89300000Y-104000000D02*
X86700000Y-104000000D01*
X86700000Y-104000000D02*
X86700000Y-106200000D01*
X76300000Y-99200000D02*
X87700000Y-99700000D01*
X76300000Y-99700000D02*
X87700000Y-100200000D01*
X76300000Y-98700000D02*
X87700000Y-99200000D01*
X76300000Y-100200000D02*
X87700000Y-100700000D01*
X76400000Y-100700000D02*
X87700000Y-101200000D01*
X76300000Y-101200000D02*
X87700000Y-101700000D01*
X76300000Y-101700000D02*
X87700000Y-102200000D01*
X76300000Y-102200000D02*
X87700000Y-102700000D01*
X76300000Y-102700000D02*
X87700000Y-103200000D01*
X76300000Y-103300000D02*
X87700000Y-103300000D01*
X77300000Y-104000000D02*
X86700000Y-104000000D01*
X77000001Y-113400000D02*
G75*
G02X77000001Y-107600001I4999999J2900000D01*
G01*
X84900000Y-115499999D02*
G75*
G02X79100001Y-115499999I-2900000J4999999D01*
G01*
X86999999Y-107600000D02*
G75*
G02X86999999Y-113399999I-4999999J-2900000D01*
G01*
%TO.C,P3*%
X122999999Y-107600000D02*
G75*
G02X122999999Y-113399999I-4999999J-2900000D01*
G01*
X120900000Y-115499999D02*
G75*
G02X115100001Y-115499999I-2900000J4999999D01*
G01*
X113000001Y-113400000D02*
G75*
G02X113000001Y-107600001I4999999J2900000D01*
G01*
X113300000Y-104000000D02*
X122700000Y-104000000D01*
X112300000Y-103300000D02*
X123700000Y-103300000D01*
X112300000Y-102700000D02*
X123700000Y-103200000D01*
X112300000Y-102200000D02*
X123700000Y-102700000D01*
X112300000Y-101700000D02*
X123700000Y-102200000D01*
X112300000Y-101200000D02*
X123700000Y-101700000D01*
X112400000Y-100700000D02*
X123700000Y-101200000D01*
X112300000Y-100200000D02*
X123700000Y-100700000D01*
X112300000Y-98700000D02*
X123700000Y-99200000D01*
X112300000Y-99700000D02*
X123700000Y-100200000D01*
X112300000Y-99200000D02*
X123700000Y-99700000D01*
X122700000Y-104000000D02*
X122700000Y-106200000D01*
X125300000Y-104000000D02*
X122700000Y-104000000D01*
X125300000Y-103300000D02*
X125300000Y-104000000D01*
X123700000Y-103300000D02*
X125300000Y-103300000D01*
X123700000Y-98700000D02*
X123700000Y-103300000D01*
X122700000Y-98700000D02*
X123700000Y-98700000D01*
X122700000Y-87900000D02*
X122700000Y-98700000D01*
X113300000Y-87900000D02*
X122700000Y-87900000D01*
X113300000Y-106200000D02*
X113300000Y-106200000D01*
X113300000Y-104000000D02*
X113300000Y-106200000D01*
X110700000Y-104000000D02*
X113300000Y-104000000D01*
X110700000Y-103300000D02*
X110700000Y-104000000D01*
X112300000Y-103300000D02*
X110700000Y-103300000D01*
X112300000Y-98700000D02*
X112300000Y-103300000D01*
X113300000Y-98700000D02*
X112300000Y-98700000D01*
X113300000Y-87900000D02*
X113300000Y-98700000D01*
%TO.C,P1*%
X95300000Y-87900000D02*
X95300000Y-98700000D01*
X95300000Y-98700000D02*
X94300000Y-98700000D01*
X94300000Y-98700000D02*
X94300000Y-103300000D01*
X94300000Y-103300000D02*
X92700000Y-103300000D01*
X92700000Y-103300000D02*
X92700000Y-104000000D01*
X92700000Y-104000000D02*
X95300000Y-104000000D01*
X95300000Y-104000000D02*
X95300000Y-106200000D01*
X95300000Y-106200000D02*
X95300000Y-106200000D01*
X95300000Y-87900000D02*
X104700000Y-87900000D01*
X104700000Y-87900000D02*
X104700000Y-98700000D01*
X104700000Y-98700000D02*
X105700000Y-98700000D01*
X105700000Y-98700000D02*
X105700000Y-103300000D01*
X105700000Y-103300000D02*
X107300000Y-103300000D01*
X107300000Y-103300000D02*
X107300000Y-104000000D01*
X107300000Y-104000000D02*
X104700000Y-104000000D01*
X104700000Y-104000000D02*
X104700000Y-106200000D01*
X94300000Y-99200000D02*
X105700000Y-99700000D01*
X94300000Y-99700000D02*
X105700000Y-100200000D01*
X94300000Y-98700000D02*
X105700000Y-99200000D01*
X94300000Y-100200000D02*
X105700000Y-100700000D01*
X94400000Y-100700000D02*
X105700000Y-101200000D01*
X94300000Y-101200000D02*
X105700000Y-101700000D01*
X94300000Y-101700000D02*
X105700000Y-102200000D01*
X94300000Y-102200000D02*
X105700000Y-102700000D01*
X94300000Y-102700000D02*
X105700000Y-103200000D01*
X94300000Y-103300000D02*
X105700000Y-103300000D01*
X95300000Y-104000000D02*
X104700000Y-104000000D01*
X95000001Y-113400000D02*
G75*
G02X95000001Y-107600001I4999999J2900000D01*
G01*
X102900000Y-115499999D02*
G75*
G02X97100001Y-115499999I-2900000J4999999D01*
G01*
X104999999Y-107600000D02*
G75*
G02X104999999Y-113399999I-4999999J-2900000D01*
G01*
%TO.C,R23*%
X121525000Y-134975000D02*
X121525000Y-134325000D01*
X121775000Y-134975000D02*
X121525000Y-134975000D01*
X121775000Y-134325000D02*
X121775000Y-134975000D01*
X121525000Y-134325000D02*
X121775000Y-134325000D01*
%TO.C,R21*%
X121525000Y-135825000D02*
X121775000Y-135825000D01*
X121775000Y-135825000D02*
X121775000Y-136475000D01*
X121775000Y-136475000D02*
X121525000Y-136475000D01*
X121525000Y-136475000D02*
X121525000Y-135825000D01*
%TO.C,R20*%
X113575000Y-134425000D02*
X113575000Y-135075000D01*
X113325000Y-134425000D02*
X113575000Y-134425000D01*
X113325000Y-135075000D02*
X113325000Y-134425000D01*
X113575000Y-135075000D02*
X113325000Y-135075000D01*
%TO.C,R19*%
X116425000Y-134425000D02*
X116675000Y-134425000D01*
X116675000Y-134425000D02*
X116675000Y-135075000D01*
X116675000Y-135075000D02*
X116425000Y-135075000D01*
X116425000Y-135075000D02*
X116425000Y-134425000D01*
%TO.C,R18*%
X78625000Y-131525000D02*
X78625000Y-130875000D01*
X78875000Y-131525000D02*
X78625000Y-131525000D01*
X78875000Y-130875000D02*
X78875000Y-131525000D01*
X78625000Y-130875000D02*
X78875000Y-130875000D01*
%TO.C,R26*%
X113925000Y-121975000D02*
X113925000Y-122225000D01*
X113925000Y-122225000D02*
X113275000Y-122225000D01*
X113275000Y-122225000D02*
X113275000Y-121975000D01*
X113275000Y-121975000D02*
X113925000Y-121975000D01*
%TO.C,R16*%
X95875000Y-126525000D02*
X95875000Y-125875000D01*
X96125000Y-126525000D02*
X95875000Y-126525000D01*
X96125000Y-125875000D02*
X96125000Y-126525000D01*
X95875000Y-125875000D02*
X96125000Y-125875000D01*
%TO.C,R15*%
X95875000Y-127375000D02*
X96125000Y-127375000D01*
X96125000Y-127375000D02*
X96125000Y-128025000D01*
X96125000Y-128025000D02*
X95875000Y-128025000D01*
X95875000Y-128025000D02*
X95875000Y-127375000D01*
%TO.C,R13*%
X89175000Y-123125000D02*
X89825000Y-123125000D01*
X89175000Y-123375000D02*
X89175000Y-123125000D01*
X89825000Y-123375000D02*
X89175000Y-123375000D01*
X89825000Y-123125000D02*
X89825000Y-123375000D01*
%TO.C,R12*%
X99725000Y-123775000D02*
X99725000Y-124025000D01*
X99725000Y-124025000D02*
X99075000Y-124025000D01*
X99075000Y-124025000D02*
X99075000Y-123775000D01*
X99075000Y-123775000D02*
X99725000Y-123775000D01*
%TO.C,R10*%
X80175000Y-120675000D02*
X80825000Y-120675000D01*
X80175000Y-120925000D02*
X80175000Y-120675000D01*
X80825000Y-120925000D02*
X80175000Y-120925000D01*
X80825000Y-120675000D02*
X80825000Y-120925000D01*
%TO.C,R22*%
X114525000Y-130825000D02*
X114525000Y-131075000D01*
X114525000Y-131075000D02*
X113875000Y-131075000D01*
X113875000Y-131075000D02*
X113875000Y-130825000D01*
X113875000Y-130825000D02*
X114525000Y-130825000D01*
%TO.C,R24*%
X121775000Y-132825000D02*
X121775000Y-133475000D01*
X121525000Y-132825000D02*
X121775000Y-132825000D01*
X121525000Y-133475000D02*
X121525000Y-132825000D01*
X121775000Y-133475000D02*
X121525000Y-133475000D01*
%TO.C,R25*%
X116125000Y-130825000D02*
X116125000Y-131075000D01*
X116125000Y-131075000D02*
X115475000Y-131075000D01*
X115475000Y-131075000D02*
X115475000Y-130825000D01*
X115475000Y-130825000D02*
X116125000Y-130825000D01*
%TO.C,C1*%
X104025000Y-130125000D02*
X103375000Y-130125000D01*
X104025000Y-129875000D02*
X104025000Y-130125000D01*
X103375000Y-129875000D02*
X104025000Y-129875000D01*
X103375000Y-130125000D02*
X103375000Y-129875000D01*
%TO.C,R17*%
X78625000Y-132375000D02*
X78875000Y-132375000D01*
X78875000Y-132375000D02*
X78875000Y-133025000D01*
X78875000Y-133025000D02*
X78625000Y-133025000D01*
X78625000Y-133025000D02*
X78625000Y-132375000D01*
%TO.C,R1*%
X101575000Y-118575000D02*
X101575000Y-117925000D01*
X101825000Y-118575000D02*
X101575000Y-118575000D01*
X101825000Y-117925000D02*
X101825000Y-118575000D01*
X101575000Y-117925000D02*
X101825000Y-117925000D01*
%TO.C,R2*%
X96725000Y-123775000D02*
X96725000Y-124025000D01*
X96725000Y-124025000D02*
X96075000Y-124025000D01*
X96075000Y-124025000D02*
X96075000Y-123775000D01*
X96075000Y-123775000D02*
X96725000Y-123775000D01*
%TO.C,R3*%
X96075000Y-120675000D02*
X96725000Y-120675000D01*
X96075000Y-120925000D02*
X96075000Y-120675000D01*
X96725000Y-120925000D02*
X96075000Y-120925000D01*
X96725000Y-120675000D02*
X96725000Y-120925000D01*
%TO.C,R7*%
X77825000Y-120675000D02*
X77825000Y-120925000D01*
X77825000Y-120925000D02*
X77175000Y-120925000D01*
X77175000Y-120925000D02*
X77175000Y-120675000D01*
X77175000Y-120675000D02*
X77825000Y-120675000D01*
%TO.C,R5*%
X82675000Y-117925000D02*
X82925000Y-117925000D01*
X82925000Y-117925000D02*
X82925000Y-118575000D01*
X82925000Y-118575000D02*
X82675000Y-118575000D01*
X82675000Y-118575000D02*
X82675000Y-117925000D01*
%TO.C,R6*%
X77825000Y-123775000D02*
X77825000Y-124025000D01*
X77825000Y-124025000D02*
X77175000Y-124025000D01*
X77175000Y-124025000D02*
X77175000Y-123775000D01*
X77175000Y-123775000D02*
X77825000Y-123775000D01*
%TO.C,R4*%
X101825000Y-119425000D02*
X101825000Y-120075000D01*
X101575000Y-119425000D02*
X101825000Y-119425000D01*
X101575000Y-120075000D02*
X101575000Y-119425000D01*
X101825000Y-120075000D02*
X101575000Y-120075000D01*
%TO.C,R11*%
X108725000Y-123125000D02*
X108725000Y-123375000D01*
X108725000Y-123375000D02*
X108075000Y-123375000D01*
X108075000Y-123375000D02*
X108075000Y-123125000D01*
X108075000Y-123125000D02*
X108725000Y-123125000D01*
%TO.C,C22*%
X122275000Y-123125000D02*
X122925000Y-123125000D01*
X122275000Y-123375000D02*
X122275000Y-123125000D01*
X122925000Y-123375000D02*
X122275000Y-123375000D01*
X122925000Y-123125000D02*
X122925000Y-123375000D01*
%TO.C,C21*%
X88925000Y-132675000D02*
X88925000Y-132425000D01*
X88925000Y-132425000D02*
X89575000Y-132425000D01*
X89575000Y-132425000D02*
X89575000Y-132675000D01*
X89575000Y-132675000D02*
X88925000Y-132675000D01*
%TO.C,C20*%
X103375000Y-137175000D02*
X104025000Y-137175000D01*
X103375000Y-137425000D02*
X103375000Y-137175000D01*
X104025000Y-137425000D02*
X103375000Y-137425000D01*
X104025000Y-137175000D02*
X104025000Y-137425000D01*
%TO.C,C19*%
X98425000Y-130125000D02*
X97775000Y-130125000D01*
X98425000Y-129875000D02*
X98425000Y-130125000D01*
X97775000Y-129875000D02*
X98425000Y-129875000D01*
X97775000Y-130125000D02*
X97775000Y-129875000D01*
%TO.C,C17*%
X98425000Y-133225000D02*
X97775000Y-133225000D01*
X98425000Y-132975000D02*
X98425000Y-133225000D01*
X97775000Y-132975000D02*
X98425000Y-132975000D01*
X97775000Y-133225000D02*
X97775000Y-132975000D01*
%TO.C,C16*%
X118425000Y-136775000D02*
X118425000Y-136125000D01*
X118675000Y-136775000D02*
X118425000Y-136775000D01*
X118675000Y-136125000D02*
X118675000Y-136775000D01*
X118425000Y-136125000D02*
X118675000Y-136125000D01*
%TO.C,C14*%
X103375000Y-140525000D02*
X103375000Y-140275000D01*
X103375000Y-140275000D02*
X104025000Y-140275000D01*
X104025000Y-140275000D02*
X104025000Y-140525000D01*
X104025000Y-140525000D02*
X103375000Y-140525000D01*
%TO.C,C13*%
X103375000Y-133225000D02*
X103375000Y-132975000D01*
X103375000Y-132975000D02*
X104025000Y-132975000D01*
X104025000Y-132975000D02*
X104025000Y-133225000D01*
X104025000Y-133225000D02*
X103375000Y-133225000D01*
%TO.C,C12*%
X78625000Y-133875000D02*
X78875000Y-133875000D01*
X78875000Y-133875000D02*
X78875000Y-134525000D01*
X78875000Y-134525000D02*
X78625000Y-134525000D01*
X78625000Y-134525000D02*
X78625000Y-133875000D01*
%TO.C,C11*%
X110325000Y-136075000D02*
X110325000Y-136725000D01*
X110075000Y-136075000D02*
X110325000Y-136075000D01*
X110075000Y-136725000D02*
X110075000Y-136075000D01*
X110325000Y-136725000D02*
X110075000Y-136725000D01*
%TO.C,C10*%
X93375000Y-127075000D02*
X93375000Y-126825000D01*
X93375000Y-126825000D02*
X94025000Y-126825000D01*
X94025000Y-126825000D02*
X94025000Y-127075000D01*
X94025000Y-127075000D02*
X93375000Y-127075000D01*
%TO.C,C9*%
X108825000Y-140175000D02*
X109475000Y-140175000D01*
X108825000Y-140425000D02*
X108825000Y-140175000D01*
X109475000Y-140425000D02*
X108825000Y-140425000D01*
X109475000Y-140175000D02*
X109475000Y-140425000D01*
%TO.C,C7*%
X104025000Y-143625000D02*
X103375000Y-143625000D01*
X104025000Y-143375000D02*
X104025000Y-143625000D01*
X103375000Y-143375000D02*
X104025000Y-143375000D01*
X103375000Y-143625000D02*
X103375000Y-143375000D01*
%TO.C,C6*%
X110325000Y-135125000D02*
X110075000Y-135125000D01*
X110075000Y-135125000D02*
X110075000Y-134475000D01*
X110075000Y-134475000D02*
X110325000Y-134475000D01*
X110325000Y-134475000D02*
X110325000Y-135125000D01*
%TO.C,C5*%
X109725000Y-131125000D02*
X109075000Y-131125000D01*
X109725000Y-130875000D02*
X109725000Y-131125000D01*
X109075000Y-130875000D02*
X109725000Y-130875000D01*
X109075000Y-131125000D02*
X109075000Y-130875000D01*
%TO.C,C4*%
X78675000Y-120925000D02*
X78675000Y-120675000D01*
X78675000Y-120675000D02*
X79325000Y-120675000D01*
X79325000Y-120675000D02*
X79325000Y-120925000D01*
X79325000Y-120925000D02*
X78675000Y-120925000D01*
%TO.C,C3*%
X110075000Y-133625000D02*
X110075000Y-132975000D01*
X110325000Y-133625000D02*
X110075000Y-133625000D01*
X110325000Y-132975000D02*
X110325000Y-133625000D01*
X110075000Y-132975000D02*
X110325000Y-132975000D01*
%TO.C,C2*%
X97575000Y-120925000D02*
X97575000Y-120675000D01*
X97575000Y-120675000D02*
X98225000Y-120675000D01*
X98225000Y-120675000D02*
X98225000Y-120925000D01*
X98225000Y-120925000D02*
X97575000Y-120925000D01*
%TO.C,R9*%
X82925000Y-119425000D02*
X82925000Y-120075000D01*
X82675000Y-119425000D02*
X82925000Y-119425000D01*
X82675000Y-120075000D02*
X82675000Y-119425000D01*
X82925000Y-120075000D02*
X82675000Y-120075000D01*
%TO.C,C15*%
X115125000Y-133575000D02*
X114875000Y-133575000D01*
X114875000Y-133575000D02*
X114875000Y-132925000D01*
X114875000Y-132925000D02*
X115125000Y-132925000D01*
X115125000Y-132925000D02*
X115125000Y-133575000D01*
%TO.C,R8*%
X99075000Y-120675000D02*
X99725000Y-120675000D01*
X99075000Y-120925000D02*
X99075000Y-120675000D01*
X99725000Y-120925000D02*
X99075000Y-120925000D01*
X99725000Y-120675000D02*
X99725000Y-120925000D01*
%TO.C,R14*%
X80825000Y-123775000D02*
X80825000Y-124025000D01*
X80825000Y-124025000D02*
X80175000Y-124025000D01*
X80175000Y-124025000D02*
X80175000Y-123775000D01*
X80175000Y-123775000D02*
X80825000Y-123775000D01*
%TO.C,J1*%
X74600000Y-147460000D02*
X125400000Y-147460000D01*
X125400000Y-147460000D02*
X125400000Y-152540000D01*
X125400000Y-152540000D02*
X101270000Y-152540000D01*
X98730000Y-152540000D02*
X74600000Y-152540000D01*
X74600000Y-152540000D02*
X74600000Y-147460000D01*
%TO.C,IC9*%
X91950000Y-137650000D02*
X91950000Y-142950000D01*
X91950000Y-142950000D02*
X86050000Y-142950000D01*
X86050000Y-142950000D02*
X86050000Y-137050000D01*
X86050000Y-137050000D02*
X91350000Y-137050000D01*
X91350000Y-137050000D02*
X91950000Y-137650000D01*
%TO.C,IC4*%
X106975000Y-137825000D02*
X107575000Y-138425000D01*
X105625000Y-137825000D02*
X106975000Y-137825000D01*
X105625000Y-139775000D02*
X105625000Y-137825000D01*
X107575000Y-139775000D02*
X105625000Y-139775000D01*
X107575000Y-138425000D02*
X107575000Y-139775000D01*
%TO.C,IC6*%
X101075000Y-130525000D02*
X101675000Y-131125000D01*
X99725000Y-130525000D02*
X101075000Y-130525000D01*
X99725000Y-132475000D02*
X99725000Y-130525000D01*
X101675000Y-132475000D02*
X99725000Y-132475000D01*
X101675000Y-131125000D02*
X101675000Y-132475000D01*
%TO.C,IC1*%
X107575000Y-131125000D02*
X107575000Y-132475000D01*
X107575000Y-132475000D02*
X105625000Y-132475000D01*
X105625000Y-132475000D02*
X105625000Y-130525000D01*
X105625000Y-130525000D02*
X106975000Y-130525000D01*
X106975000Y-130525000D02*
X107575000Y-131125000D01*
%TO.C,J2*%
X121030000Y-137690000D02*
X123570000Y-137690000D01*
X121030000Y-145310000D02*
X121030000Y-137690000D01*
X123570000Y-145310000D02*
X121030000Y-145310000D01*
X123570000Y-137690000D02*
X123570000Y-145310000D01*
%TO.C,J5*%
X95370000Y-117490000D02*
X95370000Y-125110000D01*
X95370000Y-125110000D02*
X92830000Y-125110000D01*
X92830000Y-125110000D02*
X92830000Y-117490000D01*
X92830000Y-117490000D02*
X95370000Y-117490000D01*
%TO.C,IC2*%
X103075000Y-121345000D02*
X105325000Y-121345000D01*
X105325000Y-121345000D02*
X105325000Y-125155000D01*
X105325000Y-125155000D02*
X102475000Y-125155000D01*
X102475000Y-125155000D02*
X102475000Y-121945000D01*
X102475000Y-121945000D02*
X103075000Y-121345000D01*
%TO.C,IC3*%
X83575000Y-121945000D02*
X84175000Y-121345000D01*
X83575000Y-125155000D02*
X83575000Y-121945000D01*
X86425000Y-125155000D02*
X83575000Y-125155000D01*
X86425000Y-121345000D02*
X86425000Y-125155000D01*
X84175000Y-121345000D02*
X86425000Y-121345000D01*
%TO.C,IC8*%
X117275000Y-121345000D02*
X119525000Y-121345000D01*
X119525000Y-121345000D02*
X119525000Y-125155000D01*
X119525000Y-125155000D02*
X116675000Y-125155000D01*
X116675000Y-125155000D02*
X116675000Y-121945000D01*
X116675000Y-121945000D02*
X117275000Y-121345000D01*
%TO.C,IC5*%
X110775000Y-142100000D02*
X110775000Y-139300000D01*
X110775000Y-139300000D02*
X119225000Y-139300000D01*
X119225000Y-139300000D02*
X119225000Y-142700000D01*
X119225000Y-142700000D02*
X111375000Y-142700000D01*
X111375000Y-142700000D02*
X110775000Y-142100000D01*
%TD*%
%LPC*%
D14*
%TO.C,J6*%
X76500000Y-138000000D03*
%TD*%
D15*
%TO.C,TP4*%
X102200000Y-127500000D03*
%TD*%
%TO.C,TP3*%
X107200000Y-144000000D03*
%TD*%
%TO.C,TP2*%
X104900000Y-145800000D03*
%TD*%
%TO.C,TP1*%
X107000000Y-127600000D03*
%TD*%
%TO.C,TP5*%
X98100000Y-135400000D03*
%TD*%
D16*
%TO.C,J4*%
X86940000Y-128800000D03*
X84400000Y-128800000D03*
D14*
X81860000Y-128800000D03*
%TD*%
%TO.C,J3*%
X81860000Y-131900000D03*
D16*
X84400000Y-131900000D03*
X86940000Y-131900000D03*
%TD*%
D17*
%TO.C,C28*%
X120850000Y-131650000D03*
X122450000Y-131650000D03*
%TD*%
%TO.C,C8*%
X105800000Y-142800000D03*
X107400000Y-142800000D03*
%TD*%
D18*
%TO.C,C27*%
X96034315Y-139434315D03*
D19*
G36*
X95344886Y-139451993D02*
X96051993Y-138744886D01*
X96723744Y-139416637D01*
X96016637Y-140123744D01*
X95344886Y-139451993D01*
X95344886Y-139451993D01*
G37*
D18*
X97165685Y-140565685D03*
D19*
G36*
X96476256Y-140583363D02*
X97183363Y-139876256D01*
X97855114Y-140548007D01*
X97148007Y-141255114D01*
X96476256Y-140583363D01*
X96476256Y-140583363D01*
G37*
%TD*%
D17*
%TO.C,C26*%
X82400000Y-136900000D03*
X80800000Y-136900000D03*
%TD*%
D20*
%TO.C,C25*%
X93900000Y-134300000D03*
X93900000Y-135900000D03*
%TD*%
D17*
%TO.C,C24*%
X82400000Y-138600000D03*
X80800000Y-138600000D03*
%TD*%
D20*
%TO.C,C23*%
X79000000Y-124700000D03*
X79000000Y-123100000D03*
%TD*%
%TO.C,C18*%
X97900000Y-123100000D03*
X97900000Y-124700000D03*
%TD*%
D21*
%TO.C,IC7*%
X101675000Y-136600000D03*
X101025000Y-136600000D03*
X100375000Y-136600000D03*
X99725000Y-136600000D03*
X99725000Y-141000000D03*
X100375000Y-141000000D03*
X101025000Y-141000000D03*
X101675000Y-141000000D03*
D22*
X100700000Y-138800000D03*
%TD*%
D23*
%TO.C,P2*%
X78700000Y-107200000D03*
D24*
X82000000Y-110500000D03*
D23*
X85300000Y-107200000D03*
X78700000Y-113800000D03*
X85300000Y-113800000D03*
%TD*%
%TO.C,P3*%
X121300000Y-113800000D03*
X114700000Y-113800000D03*
X121300000Y-107200000D03*
D24*
X118000000Y-110500000D03*
D23*
X114700000Y-107200000D03*
%TD*%
%TO.C,P1*%
X96700000Y-107200000D03*
D24*
X100000000Y-110500000D03*
D23*
X103300000Y-107200000D03*
X96700000Y-113800000D03*
X103300000Y-113800000D03*
%TD*%
D25*
%TO.C,D3*%
X118000000Y-116900000D03*
X117100000Y-116900000D03*
%TD*%
%TO.C,D2*%
X81050000Y-116900000D03*
X81950000Y-116900000D03*
%TD*%
%TO.C,D1*%
X100150000Y-116900000D03*
X99250000Y-116900000D03*
%TD*%
D17*
%TO.C,R23*%
X122450000Y-134650000D03*
X120850000Y-134650000D03*
%TD*%
%TO.C,R21*%
X120850000Y-136150000D03*
X122450000Y-136150000D03*
%TD*%
%TO.C,R20*%
X112650000Y-134750000D03*
X114250000Y-134750000D03*
%TD*%
%TO.C,R19*%
X115750000Y-134750000D03*
X117350000Y-134750000D03*
%TD*%
%TO.C,R18*%
X79550000Y-131200000D03*
X77950000Y-131200000D03*
%TD*%
D20*
%TO.C,R26*%
X113600000Y-121300000D03*
X113600000Y-122900000D03*
%TD*%
D17*
%TO.C,R16*%
X96800000Y-126200000D03*
X95200000Y-126200000D03*
%TD*%
%TO.C,R15*%
X95200000Y-127700000D03*
X96800000Y-127700000D03*
%TD*%
D20*
%TO.C,R13*%
X89500000Y-124050000D03*
X89500000Y-122450000D03*
%TD*%
%TO.C,R12*%
X99400000Y-123100000D03*
X99400000Y-124700000D03*
%TD*%
%TO.C,R10*%
X80500000Y-121600000D03*
X80500000Y-120000000D03*
%TD*%
%TO.C,R22*%
X114200000Y-130150000D03*
X114200000Y-131750000D03*
%TD*%
D17*
%TO.C,R24*%
X120850000Y-133150000D03*
X122450000Y-133150000D03*
%TD*%
D20*
%TO.C,R25*%
X115800000Y-130150000D03*
X115800000Y-131750000D03*
%TD*%
%TO.C,C1*%
X103700000Y-129200000D03*
X103700000Y-130800000D03*
%TD*%
D17*
%TO.C,R17*%
X77950000Y-132700000D03*
X79550000Y-132700000D03*
%TD*%
%TO.C,R1*%
X102500000Y-118250000D03*
X100900000Y-118250000D03*
%TD*%
D20*
%TO.C,R2*%
X96400000Y-123100000D03*
X96400000Y-124700000D03*
%TD*%
%TO.C,R3*%
X96400000Y-121600000D03*
X96400000Y-120000000D03*
%TD*%
%TO.C,R7*%
X77500000Y-120000000D03*
X77500000Y-121600000D03*
%TD*%
D17*
%TO.C,R5*%
X82000000Y-118250000D03*
X83600000Y-118250000D03*
%TD*%
D20*
%TO.C,R6*%
X77500000Y-123100000D03*
X77500000Y-124700000D03*
%TD*%
D17*
%TO.C,R4*%
X100900000Y-119750000D03*
X102500000Y-119750000D03*
%TD*%
D20*
%TO.C,R11*%
X108400000Y-122450000D03*
X108400000Y-124050000D03*
%TD*%
%TO.C,C22*%
X122600000Y-124050000D03*
X122600000Y-122450000D03*
%TD*%
%TO.C,C21*%
X89250000Y-133350000D03*
X89250000Y-131750000D03*
%TD*%
%TO.C,C20*%
X103700000Y-138100000D03*
X103700000Y-136500000D03*
%TD*%
%TO.C,C19*%
X98100000Y-129200000D03*
X98100000Y-130800000D03*
%TD*%
%TO.C,C17*%
X98100000Y-132300000D03*
X98100000Y-133900000D03*
%TD*%
D17*
%TO.C,C16*%
X119350000Y-136450000D03*
X117750000Y-136450000D03*
%TD*%
D20*
%TO.C,C14*%
X103700000Y-141200000D03*
X103700000Y-139600000D03*
%TD*%
%TO.C,C13*%
X103700000Y-133900000D03*
X103700000Y-132300000D03*
%TD*%
D17*
%TO.C,C12*%
X77950000Y-134200000D03*
X79550000Y-134200000D03*
%TD*%
%TO.C,C11*%
X109400000Y-136400000D03*
X111000000Y-136400000D03*
%TD*%
D20*
%TO.C,C10*%
X93700000Y-127750000D03*
X93700000Y-126150000D03*
%TD*%
%TO.C,C9*%
X109150000Y-141100000D03*
X109150000Y-139500000D03*
%TD*%
%TO.C,C7*%
X103700000Y-142700000D03*
X103700000Y-144300000D03*
%TD*%
D17*
%TO.C,C6*%
X111000000Y-134800000D03*
X109400000Y-134800000D03*
%TD*%
D20*
%TO.C,C5*%
X109400000Y-130200000D03*
X109400000Y-131800000D03*
%TD*%
%TO.C,C4*%
X79000000Y-121600000D03*
X79000000Y-120000000D03*
%TD*%
D17*
%TO.C,C3*%
X111000000Y-133300000D03*
X109400000Y-133300000D03*
%TD*%
D20*
%TO.C,C2*%
X97900000Y-121600000D03*
X97900000Y-120000000D03*
%TD*%
D17*
%TO.C,R9*%
X82000000Y-119750000D03*
X83600000Y-119750000D03*
%TD*%
%TO.C,C15*%
X115800000Y-133250000D03*
X114200000Y-133250000D03*
%TD*%
D20*
%TO.C,R8*%
X99400000Y-121600000D03*
X99400000Y-120000000D03*
%TD*%
%TO.C,R14*%
X80500000Y-123100000D03*
X80500000Y-124700000D03*
%TD*%
D14*
%TO.C,J1*%
X75870000Y-151270000D03*
D16*
X75870000Y-148730000D03*
X78410000Y-151270000D03*
X78410000Y-148730000D03*
X80950000Y-151270000D03*
X80950000Y-148730000D03*
X83490000Y-151270000D03*
X83490000Y-148730000D03*
X86030000Y-151270000D03*
X86030000Y-148730000D03*
X88570000Y-151270000D03*
X88570000Y-148730000D03*
X91110000Y-151270000D03*
X91110000Y-148730000D03*
X93650000Y-151270000D03*
X93650000Y-148730000D03*
X96190000Y-151270000D03*
X96190000Y-148730000D03*
X98730000Y-151270000D03*
X98730000Y-148730000D03*
X101270000Y-151270000D03*
X101270000Y-148730000D03*
X103810000Y-151270000D03*
X103810000Y-148730000D03*
X106350000Y-151270000D03*
X106350000Y-148730000D03*
X108890000Y-151270000D03*
X108890000Y-148730000D03*
X111430000Y-151270000D03*
X111430000Y-148730000D03*
X113970000Y-151270000D03*
X113970000Y-148730000D03*
X116510000Y-151270000D03*
X116510000Y-148730000D03*
X119050000Y-151270000D03*
X119050000Y-148730000D03*
X121590000Y-151270000D03*
X121590000Y-148730000D03*
X124130000Y-151270000D03*
X124130000Y-148730000D03*
%TD*%
D26*
%TO.C,IC9*%
X91750000Y-135800000D03*
X91250000Y-135800000D03*
X90750000Y-135800000D03*
X90250000Y-135800000D03*
X89750000Y-135800000D03*
X89250000Y-135800000D03*
X88750000Y-135800000D03*
X88250000Y-135800000D03*
X87750000Y-135800000D03*
X87250000Y-135800000D03*
X86750000Y-135800000D03*
X86250000Y-135800000D03*
D27*
X84800000Y-137250000D03*
X84800000Y-137750000D03*
X84800000Y-138250000D03*
X84800000Y-138750000D03*
X84800000Y-139250000D03*
X84800000Y-139750000D03*
X84800000Y-140250000D03*
X84800000Y-140750000D03*
X84800000Y-141250000D03*
X84800000Y-141750000D03*
X84800000Y-142250000D03*
X84800000Y-142750000D03*
D26*
X86250000Y-144200000D03*
X86750000Y-144200000D03*
X87250000Y-144200000D03*
X87750000Y-144200000D03*
X88250000Y-144200000D03*
X88750000Y-144200000D03*
X89250000Y-144200000D03*
X89750000Y-144200000D03*
X90250000Y-144200000D03*
X90750000Y-144200000D03*
X91250000Y-144200000D03*
X91750000Y-144200000D03*
D27*
X93200000Y-142750000D03*
X93200000Y-142250000D03*
X93200000Y-141750000D03*
X93200000Y-141250000D03*
X93200000Y-140750000D03*
X93200000Y-140250000D03*
X93200000Y-139750000D03*
X93200000Y-139250000D03*
X93200000Y-138750000D03*
X93200000Y-138250000D03*
X93200000Y-137750000D03*
X93200000Y-137250000D03*
%TD*%
D21*
%TO.C,IC4*%
X107575000Y-141000000D03*
X106925000Y-141000000D03*
X106275000Y-141000000D03*
X105625000Y-141000000D03*
X105625000Y-136600000D03*
X106275000Y-136600000D03*
X106925000Y-136600000D03*
X107575000Y-136600000D03*
%TD*%
%TO.C,IC6*%
X101675000Y-133700000D03*
X101025000Y-133700000D03*
X100375000Y-133700000D03*
X99725000Y-133700000D03*
X99725000Y-129300000D03*
X100375000Y-129300000D03*
X101025000Y-129300000D03*
X101675000Y-129300000D03*
%TD*%
%TO.C,IC1*%
X107575000Y-129300000D03*
X106925000Y-129300000D03*
X106275000Y-129300000D03*
X105625000Y-129300000D03*
X105625000Y-133700000D03*
X106275000Y-133700000D03*
X106925000Y-133700000D03*
X107575000Y-133700000D03*
%TD*%
D16*
%TO.C,J2*%
X122300000Y-144040000D03*
X122300000Y-141500000D03*
D14*
X122300000Y-138960000D03*
%TD*%
%TO.C,J5*%
X94100000Y-118760000D03*
D16*
X94100000Y-121300000D03*
X94100000Y-123840000D03*
%TD*%
D28*
%TO.C,IC2*%
X101200000Y-121345000D03*
X101200000Y-122615000D03*
X101200000Y-123885000D03*
X101200000Y-125155000D03*
X106600000Y-125155000D03*
X106600000Y-123885000D03*
X106600000Y-122615000D03*
X106600000Y-121345000D03*
%TD*%
%TO.C,IC3*%
X87700000Y-121345000D03*
X87700000Y-122615000D03*
X87700000Y-123885000D03*
X87700000Y-125155000D03*
X82300000Y-125155000D03*
X82300000Y-123885000D03*
X82300000Y-122615000D03*
X82300000Y-121345000D03*
%TD*%
%TO.C,IC8*%
X115400000Y-121345000D03*
X115400000Y-122615000D03*
X115400000Y-123885000D03*
X115400000Y-125155000D03*
X120800000Y-125155000D03*
X120800000Y-123885000D03*
X120800000Y-122615000D03*
X120800000Y-121345000D03*
%TD*%
D29*
%TO.C,IC5*%
X110775000Y-143875000D03*
X111425000Y-143875000D03*
X112075000Y-143875000D03*
X112725000Y-143875000D03*
X113375000Y-143875000D03*
X114025000Y-143875000D03*
X114675000Y-143875000D03*
X115325000Y-143875000D03*
X115975000Y-143875000D03*
X116625000Y-143875000D03*
X117275000Y-143875000D03*
X117925000Y-143875000D03*
X118575000Y-143875000D03*
X119225000Y-143875000D03*
X119225000Y-138125000D03*
X118575000Y-138125000D03*
X117925000Y-138125000D03*
X117275000Y-138125000D03*
X116625000Y-138125000D03*
X115975000Y-138125000D03*
X115325000Y-138125000D03*
X114675000Y-138125000D03*
X114025000Y-138125000D03*
X113375000Y-138125000D03*
X112725000Y-138125000D03*
X112075000Y-138125000D03*
X111425000Y-138125000D03*
X110775000Y-138125000D03*
%TD*%
M02*
